{"glyphs":{"0":{"ha":722,"x_min":58,"x_max":663,"o":"m 366 735 q 127 613 213 735 q 58 366 58 514 q 190 41 58 140 q 359 -14 263 -14 q 595 111 511 -14 q 663 361 663 212 q 524 690 663 598 q 366 735 456 735 m 363 22 q 212 161 248 22 q 193 361 193 239 q 307 690 193 646 q 362 700 331 700 q 506 578 471 700 q 529 366 529 500 q 418 31 529 76 q 363 22 393 22 z "},"1":{"ha":574,"x_min":27,"x_max":553,"o":"m 302 722 l 27 541 l 52 502 l 260 633 l 260 47 l 77 35 l 77 0 l 553 0 q 528 35 553 30 q 517 37 522 37 l 382 47 l 382 722 l 302 722 z "},"2":{"ha":642,"x_min":41,"x_max":567,"o":"m 113 103 q 210 205 113 145 q 273 243 229 217 q 479 388 423 330 q 547 540 547 460 q 418 713 547 666 q 290 735 361 735 q 90 669 163 735 q 42 562 42 623 q 84 490 42 505 q 106 486 95 486 q 174 543 161 486 q 179 585 176 556 q 212 680 186 656 q 278 700 235 700 q 414 590 392 700 q 418 544 418 568 q 305 326 418 415 q 186 244 292 315 q 58 114 87 178 q 41 30 41 75 l 41 0 l 564 0 l 567 233 l 540 233 l 518 163 q 465 106 502 114 q 419 103 449 103 l 113 103 z "},"3":{"ha":686,"x_min":54,"x_max":617,"o":"m 591 693 l 591 722 l 79 722 l 76 492 l 109 492 l 133 566 q 194 620 148 613 q 239 621 209 621 l 453 621 l 210 340 l 241 315 q 336 335 290 335 q 472 240 431 335 q 491 136 491 194 q 293 -75 488 -73 q 202 -8 218 -75 q 195 37 199 5 q 165 121 189 103 q 121 133 148 133 q 57 84 69 133 q 54 62 54 73 q 161 -80 54 -33 q 311 -109 227 -109 q 566 4 479 -109 q 617 155 617 73 q 536 328 617 264 q 380 377 472 377 q 289 366 338 377 l 591 693 z "},"4":{"ha":682,"x_min":12,"x_max":628,"o":"m 628 -94 q 610 -58 628 -61 q 595 -57 604 -57 l 505 -57 l 505 117 l 628 117 l 628 157 l 505 157 l 505 427 l 476 427 l 461 374 q 423 321 449 328 q 396 317 412 317 l 387 317 l 387 159 l 72 160 q 506 644 477 496 q 509 667 509 656 q 439 736 506 735 q 366 684 391 736 q 343 623 358 667 q 210 362 289 468 q 12 160 130 258 l 20 119 l 387 118 l 387 -57 l 240 -57 l 240 -94 l 628 -94 z "},"5":{"ha":658,"x_min":64,"x_max":612,"o":"m 612 156 q 515 355 612 285 q 347 407 446 407 q 164 354 241 406 l 164 613 q 350 602 275 602 q 528 639 491 602 q 560 776 560 674 l 528 776 q 475 720 515 731 q 376 711 444 711 q 119 722 334 711 l 119 339 l 164 305 q 311 358 232 358 q 475 235 438 358 q 486 149 486 195 q 384 -57 486 -8 q 300 -75 346 -75 q 213 -11 228 -75 q 206 34 209 4 q 178 118 199 100 q 132 132 160 132 q 64 61 71 121 q 149 -71 64 -20 q 305 -109 216 -109 q 560 3 476 -109 q 612 156 612 69 z "},"6":{"ha":699,"x_min":66,"x_max":640,"o":"m 640 251 q 528 464 640 395 q 378 503 461 503 q 202 446 278 502 q 286 757 214 686 q 387 795 327 795 q 481 734 465 795 q 488 696 486 722 q 518 625 496 640 q 559 616 534 616 q 627 670 616 616 q 628 688 628 680 q 540 802 628 760 q 400 830 479 830 q 119 651 206 830 q 66 389 66 541 q 201 34 66 133 q 357 -14 267 -14 q 583 85 503 -14 q 640 251 640 155 m 195 236 q 302 453 195 411 q 359 464 330 464 q 505 336 476 464 q 513 254 513 298 q 355 22 511 23 q 206 144 240 22 q 195 236 195 186 z "},"7":{"ha":616,"x_min":38,"x_max":625,"o":"m 625 692 l 625 722 l 41 722 l 38 481 l 69 481 l 94 555 q 159 614 110 608 q 199 617 175 617 l 528 617 q 227 176 264 236 q 134 -39 134 27 q 187 -107 134 -96 q 206 -109 197 -109 q 277 -66 256 -109 q 317 66 283 -53 q 625 692 400 361 z "},"8":{"ha":731,"x_min":79,"x_max":646,"o":"m 346 -14 q 579 66 490 -14 q 646 212 644 127 q 524 396 646 316 q 463 433 498 414 q 595 602 578 492 q 598 633 598 618 q 484 806 598 754 q 362 830 430 830 q 151 746 224 830 q 104 617 104 692 q 228 438 104 517 q 264 416 245 427 q 87 259 122 374 q 79 199 79 229 q 190 20 79 79 q 346 -14 258 -14 m 220 667 q 312 784 220 757 q 376 792 342 792 q 519 727 469 792 q 552 632 552 686 q 473 481 552 541 q 425 453 450 465 q 263 562 302 519 q 220 667 220 610 m 125 202 q 210 353 125 296 q 309 392 254 380 q 475 289 437 324 q 532 175 532 237 q 422 37 532 71 q 335 24 382 24 q 165 94 227 24 q 125 202 125 138 z "},"9":{"ha":703,"x_min":58,"x_max":636,"o":"m 636 336 q 503 682 636 582 q 336 735 433 735 q 104 632 182 735 q 58 483 58 567 q 172 275 58 340 q 317 240 236 240 q 502 304 425 241 q 366 -64 495 -15 q 311 -73 340 -73 q 217 -11 233 -73 q 210 26 214 0 q 182 96 203 81 q 140 107 165 107 q 73 58 85 107 q 71 38 71 49 q 159 -80 71 -38 q 294 -109 218 -109 q 591 88 507 -109 q 636 336 636 193 m 186 502 q 338 700 189 699 q 490 570 458 700 q 499 487 499 532 q 380 288 499 316 q 335 282 358 282 q 186 502 187 285 z "},"A":{"ha":841,"x_min":0,"x_max":841,"o":"m 841 0 q 819 34 841 31 q 806 35 812 35 l 761 35 l 449 814 l 388 814 l 85 35 l 0 35 l 0 0 l 243 0 q 222 34 243 31 q 209 35 216 35 l 140 35 l 241 298 l 522 298 l 624 35 l 533 35 l 533 0 l 841 0 m 506 338 l 256 338 l 381 662 l 506 338 z "},"Æ":{"ha":1190,"x_min":0,"x_max":1123,"o":"m 342 363 l 593 776 l 593 363 l 342 363 m 252 0 q 235 34 252 31 q 220 35 228 35 l 142 35 l 317 324 l 593 324 l 593 35 l 480 35 l 480 0 l 1116 0 l 1123 248 l 1093 248 l 1072 178 q 963 41 1036 61 q 924 35 944 35 l 723 35 l 723 400 l 996 400 l 996 439 l 723 439 l 723 779 l 924 779 q 1070 642 1028 779 q 1072 636 1072 639 l 1093 566 l 1123 566 l 1116 814 l 559 814 l 81 35 l 0 35 l 0 0 l 252 0 z "},"Á":{"ha":841,"x_min":0,"x_max":841,"o":"m 841 0 q 819 34 841 31 q 806 35 812 35 l 761 35 l 449 814 l 388 814 l 85 35 l 0 35 l 0 0 l 243 0 q 222 34 243 31 q 209 35 216 35 l 140 35 l 241 298 l 522 298 l 624 35 l 533 35 l 533 0 l 841 0 m 506 338 l 256 338 l 381 662 l 506 338 m 543 959 q 563 1001 562 977 q 528 1058 563 1036 q 498 1066 511 1066 q 457 1048 476 1065 q 392 958 445 1038 q 311 856 349 895 l 332 831 q 483 920 366 856 q 543 959 526 944 z "},"Ă":{"ha":841,"x_min":0,"x_max":841,"o":"m 841 0 q 819 34 841 31 q 806 35 812 35 l 761 35 l 449 814 l 388 814 l 85 35 l 0 35 l 0 0 l 243 0 q 222 34 243 31 q 209 35 216 35 l 140 35 l 241 298 l 522 298 l 624 35 l 533 35 l 533 0 l 841 0 m 506 338 l 256 338 l 381 662 l 506 338 m 422 958 q 556 1038 536 958 q 557 1044 557 1042 l 586 1044 q 499 883 586 924 q 418 867 463 867 q 259 974 294 867 q 248 1044 248 1008 l 275 1044 q 422 958 296 958 z "},"Â":{"ha":841,"x_min":0,"x_max":841,"o":"m 841 0 q 819 34 841 31 q 806 35 812 35 l 761 35 l 449 814 l 388 814 l 85 35 l 0 35 l 0 0 l 243 0 q 222 34 243 31 q 209 35 216 35 l 140 35 l 241 298 l 522 298 l 624 35 l 533 35 l 533 0 l 841 0 m 506 338 l 256 338 l 381 662 l 506 338 m 583 853 l 600 876 q 499 996 582 895 q 416 1051 448 1047 q 340 1002 381 1051 q 313 967 332 991 q 236 875 267 910 l 252 854 q 419 947 321 898 q 583 853 521 895 z "},"Ä":{"ha":841,"x_min":0,"x_max":841,"o":"m 841 0 q 819 34 841 31 q 806 35 812 35 l 761 35 l 449 814 l 388 814 l 85 35 l 0 35 l 0 0 l 243 0 q 222 34 243 31 q 209 35 216 35 l 140 35 l 241 298 l 522 298 l 624 35 l 533 35 l 533 0 l 841 0 m 506 338 l 256 338 l 381 662 l 506 338 m 366 951 q 324 1016 366 998 q 294 1023 309 1023 q 228 981 245 1023 q 221 951 221 966 q 264 883 221 902 q 294 878 279 878 q 359 921 342 878 q 366 951 366 936 m 616 951 q 572 1017 616 998 q 543 1023 557 1023 q 476 979 494 1023 q 471 951 471 964 q 515 883 471 901 q 543 878 529 878 q 609 921 591 878 q 616 951 616 935 z "},"À":{"ha":841,"x_min":0,"x_max":841,"o":"m 841 0 q 819 34 841 31 q 806 35 812 35 l 761 35 l 449 814 l 388 814 l 85 35 l 0 35 l 0 0 l 243 0 q 222 34 243 31 q 209 35 216 35 l 140 35 l 241 298 l 522 298 l 624 35 l 533 35 l 533 0 l 841 0 m 506 338 l 256 338 l 381 662 l 506 338 m 540 856 q 431 998 500 897 q 392 1048 406 1035 q 353 1066 373 1066 q 294 1028 315 1066 q 288 1001 288 1015 q 308 959 289 975 q 420 891 324 944 q 518 831 480 859 l 540 856 z "},"Ā":{"ha":841,"x_min":0,"x_max":841,"o":"m 841 0 q 819 34 841 31 q 806 35 812 35 l 761 35 l 449 814 l 388 814 l 85 35 l 0 35 l 0 0 l 243 0 q 222 34 243 31 q 209 35 216 35 l 140 35 l 241 298 l 522 298 l 624 35 l 533 35 l 533 0 l 841 0 m 506 338 l 256 338 l 381 662 l 506 338 m 214 909 l 627 909 l 627 978 l 214 978 l 214 909 z "},"Ą":{"ha":841,"x_min":0,"x_max":841,"o":"m 841 0 q 819 34 841 31 q 806 35 812 35 l 761 35 l 449 814 l 388 814 l 85 35 l 0 35 l 0 0 l 243 0 q 222 34 243 31 q 209 35 216 35 l 140 35 l 241 298 l 522 298 l 624 35 l 533 35 l 533 0 l 765 0 q 587 -126 614 -39 q 582 -157 582 -142 q 648 -247 582 -220 q 715 -259 678 -259 q 838 -209 792 -258 l 822 -189 q 749 -220 784 -220 q 694 -167 701 -220 q 693 -152 693 -159 q 764 -33 693 -85 q 823 0 791 -14 l 841 0 m 506 338 l 256 338 l 381 662 l 506 338 z "},"Å":{"ha":841,"x_min":0,"x_max":841,"o":"m 841 0 q 819 34 841 31 q 806 35 812 35 l 761 35 l 457 795 q 567 880 544 807 q 572 920 572 899 q 502 1028 572 997 q 431 1042 469 1042 q 293 970 327 1042 q 282 918 282 945 q 355 804 282 837 q 381 796 369 799 l 85 35 l 0 35 l 0 0 l 243 0 q 222 34 243 31 q 209 35 216 35 l 140 35 l 241 298 l 522 298 l 624 35 l 533 35 l 533 0 l 841 0 m 506 338 l 256 338 l 381 662 l 506 338 m 362 916 q 414 1009 362 998 q 427 1010 420 1010 q 492 937 484 1010 q 494 918 494 928 q 449 827 494 845 q 427 823 438 823 q 362 916 363 825 z "},"Ã":{"ha":841,"x_min":0,"x_max":841,"o":"m 841 0 q 819 34 841 31 q 806 35 812 35 l 761 35 l 449 814 l 388 814 l 85 35 l 0 35 l 0 0 l 243 0 q 222 34 243 31 q 209 35 216 35 l 140 35 l 241 298 l 522 298 l 624 35 l 533 35 l 533 0 l 841 0 m 506 338 l 256 338 l 381 662 l 506 338 m 349 1040 q 449 996 389 1040 q 525 959 498 959 q 597 1031 576 959 q 598 1036 598 1034 l 627 1029 q 503 879 598 880 q 404 922 463 879 q 327 959 355 959 q 256 894 277 959 q 254 883 255 888 l 227 888 q 349 1040 255 1039 z "},"B":{"ha":806,"x_min":49,"x_max":750,"o":"m 697 629 q 594 784 697 735 q 442 814 530 814 l 49 814 l 49 779 l 157 779 l 157 35 l 49 35 l 49 0 l 450 0 q 708 110 627 0 q 750 237 750 168 q 643 411 750 354 q 545 444 600 434 q 684 567 648 480 q 697 629 697 600 m 400 779 q 557 651 541 779 q 560 618 560 635 q 488 483 560 525 q 400 460 450 460 l 288 460 l 288 779 l 400 779 m 429 423 q 590 319 549 423 q 605 237 605 281 q 533 69 605 126 q 430 35 490 35 l 288 35 l 288 423 l 429 423 z "},"C":{"ha":840,"x_min":62,"x_max":785,"o":"m 742 61 q 761 -4 742 4 q 785 -7 769 -7 l 785 252 l 750 252 q 477 24 682 26 q 235 233 289 24 q 214 408 214 311 q 355 754 214 667 q 483 789 412 789 q 746 567 681 787 l 781 567 l 777 821 q 739 800 746 821 q 736 751 736 784 q 532 825 659 811 q 475 827 503 827 q 142 669 258 827 q 62 410 62 556 q 174 111 62 232 q 479 -14 290 -14 q 742 61 617 -12 z "},"Ć":{"ha":840,"x_min":62,"x_max":785,"o":"m 742 61 q 761 -4 742 4 q 785 -7 769 -7 l 785 252 l 750 252 q 477 24 682 26 q 235 233 289 24 q 214 408 214 311 q 355 754 214 667 q 483 789 412 789 q 746 567 681 787 l 781 567 l 777 821 q 739 800 746 821 q 736 751 736 784 q 532 825 659 811 q 475 827 503 827 q 142 669 258 827 q 62 410 62 556 q 174 111 62 232 q 479 -14 290 -14 q 742 61 617 -12 m 560 1054 q 581 1096 579 1072 q 545 1153 581 1131 q 515 1161 529 1161 q 475 1143 494 1160 q 410 1053 463 1133 q 328 951 366 990 l 350 926 q 500 1015 384 951 q 560 1054 544 1039 z "},"Č":{"ha":840,"x_min":62,"x_max":785,"o":"m 742 61 q 761 -4 742 4 q 785 -7 769 -7 l 785 252 l 750 252 q 477 24 682 26 q 235 233 289 24 q 214 408 214 311 q 355 754 214 667 q 483 789 412 789 q 746 567 681 787 l 781 567 l 777 821 q 739 800 746 821 q 736 751 736 784 q 532 825 659 811 q 475 827 503 827 q 142 669 258 827 q 62 410 62 556 q 174 111 62 232 q 479 -14 290 -14 q 742 61 617 -12 m 438 951 q 521 1004 476 951 q 555 1044 532 1015 q 632 1135 601 1101 l 613 1157 q 438 1058 541 1111 q 260 1158 313 1122 l 241 1134 q 323 1040 275 1097 q 404 959 380 971 q 438 951 422 951 z "},"Ç":{"ha":840,"x_min":62,"x_max":785,"o":"m 742 61 q 761 -4 742 4 q 785 -7 769 -7 l 785 252 l 750 252 q 477 24 682 26 q 235 233 289 24 q 214 408 214 311 q 355 754 214 667 q 483 789 412 789 q 746 567 681 787 l 781 567 l 777 821 q 739 800 746 821 q 736 751 736 784 q 532 825 659 811 q 475 827 503 827 q 142 669 258 827 q 62 410 62 556 q 172 113 62 232 q 408 -8 266 12 l 355 -115 l 374 -127 q 442 -104 407 -104 q 511 -165 503 -104 q 513 -182 513 -174 q 458 -270 513 -254 q 437 -273 448 -273 q 343 -220 384 -271 l 321 -236 q 465 -308 369 -307 q 605 -248 560 -308 q 625 -184 625 -218 q 551 -83 625 -113 q 481 -69 518 -69 q 410 -84 445 -69 l 442 -12 q 479 -14 456 -14 q 742 61 617 -12 z "},"D":{"ha":918,"x_min":49,"x_max":849,"o":"m 49 814 l 49 779 l 157 779 l 157 35 l 49 35 l 49 0 l 429 0 q 734 115 614 0 q 849 407 849 228 q 678 747 849 639 q 431 814 572 814 l 49 814 m 429 779 q 684 589 631 779 q 704 412 704 514 q 431 35 703 37 l 288 35 l 288 779 l 429 779 z "},"Ď":{"ha":918,"x_min":49,"x_max":849,"o":"m 49 814 l 49 779 l 157 779 l 157 35 l 49 35 l 49 0 l 429 0 q 734 115 614 0 q 849 407 849 228 q 678 747 849 639 q 431 814 572 814 l 49 814 m 429 779 q 684 589 631 779 q 704 412 704 514 q 431 35 703 37 l 288 35 l 288 779 l 429 779 m 450 856 q 533 909 488 856 q 567 949 544 920 q 644 1040 613 1006 l 625 1062 q 450 963 553 1016 q 273 1063 326 1027 l 254 1039 q 335 945 288 1002 q 416 864 392 876 q 450 856 434 856 z "},"Đ":{"ha":918,"x_min":49,"x_max":849,"o":"m 49 814 l 49 779 l 157 779 l 157 449 l 61 449 l 61 393 l 157 393 l 157 35 l 49 35 l 49 0 l 429 0 q 734 115 614 0 q 849 407 849 228 q 678 747 849 639 q 431 814 572 814 l 49 814 m 429 779 q 684 589 631 779 q 704 412 704 514 q 431 35 703 37 l 288 35 l 288 393 l 446 393 l 446 449 l 288 449 l 288 779 l 429 779 z "},"E":{"ha":758,"x_min":49,"x_max":692,"o":"m 692 567 l 685 814 l 49 814 l 49 779 l 157 779 l 157 35 l 49 35 l 49 0 l 685 0 l 692 247 l 662 247 l 640 178 q 532 41 605 61 q 492 35 513 35 l 288 35 l 288 400 l 564 400 l 564 439 l 288 439 l 288 779 l 492 779 q 639 642 597 779 q 640 636 640 639 l 662 567 l 692 567 z "},"É":{"ha":758,"x_min":49,"x_max":692,"o":"m 692 567 l 685 814 l 49 814 l 49 779 l 157 779 l 157 35 l 49 35 l 49 0 l 685 0 l 692 247 l 662 247 l 640 178 q 532 41 605 61 q 492 35 513 35 l 288 35 l 288 400 l 564 400 l 564 439 l 288 439 l 288 779 l 492 779 q 639 642 597 779 q 640 636 640 639 l 662 567 l 692 567 m 522 962 q 543 1004 541 979 q 507 1061 543 1039 q 477 1069 491 1069 q 437 1051 456 1067 q 372 960 425 1040 q 290 859 328 898 l 312 834 q 463 922 346 859 q 522 962 506 947 z "},"Ě":{"ha":758,"x_min":49,"x_max":692,"o":"m 692 567 l 685 814 l 49 814 l 49 779 l 157 779 l 157 35 l 49 35 l 49 0 l 685 0 l 692 247 l 662 247 l 640 178 q 532 41 605 61 q 492 35 513 35 l 288 35 l 288 400 l 564 400 l 564 439 l 288 439 l 288 779 l 492 779 q 639 642 597 779 q 640 636 640 639 l 662 567 l 692 567 m 399 856 q 481 909 437 856 q 515 949 492 920 q 593 1040 562 1006 l 574 1062 q 399 963 502 1016 q 221 1063 274 1027 l 202 1039 q 283 945 236 1002 q 365 864 340 876 q 399 856 382 856 z "},"Ê":{"ha":758,"x_min":49,"x_max":692,"o":"m 692 567 l 685 814 l 49 814 l 49 779 l 157 779 l 157 35 l 49 35 l 49 0 l 685 0 l 692 247 l 662 247 l 640 178 q 532 41 605 61 q 492 35 513 35 l 288 35 l 288 400 l 564 400 l 564 439 l 288 439 l 288 779 l 492 779 q 639 642 597 779 q 640 636 640 639 l 662 567 l 692 567 m 563 853 l 579 876 q 479 996 562 895 q 396 1051 427 1047 q 320 1002 361 1051 q 293 967 312 991 q 216 875 247 910 l 232 854 q 399 947 301 898 q 563 853 500 895 z "},"Ë":{"ha":758,"x_min":49,"x_max":692,"o":"m 692 567 l 685 814 l 49 814 l 49 779 l 157 779 l 157 35 l 49 35 l 49 0 l 685 0 l 692 247 l 662 247 l 640 178 q 532 41 605 61 q 492 35 513 35 l 288 35 l 288 400 l 564 400 l 564 439 l 288 439 l 288 779 l 492 779 q 639 642 597 779 q 640 636 640 639 l 662 567 l 692 567 m 346 951 q 304 1016 346 998 q 274 1023 289 1023 q 208 981 225 1023 q 201 951 201 966 q 244 883 201 902 q 274 878 259 878 q 339 921 321 878 q 346 951 346 936 m 595 951 q 552 1017 595 998 q 522 1023 537 1023 q 456 979 473 1023 q 450 951 450 964 q 495 883 450 901 q 522 878 509 878 q 589 921 571 878 q 595 951 595 935 z "},"Ė":{"ha":758,"x_min":49,"x_max":692,"o":"m 692 567 l 685 814 l 49 814 l 49 779 l 157 779 l 157 35 l 49 35 l 49 0 l 685 0 l 692 247 l 662 247 l 640 178 q 532 41 605 61 q 492 35 513 35 l 288 35 l 288 400 l 564 400 l 564 439 l 288 439 l 288 779 l 492 779 q 639 642 597 779 q 640 636 640 639 l 662 567 l 692 567 m 476 948 q 433 1020 476 997 q 397 1028 415 1028 q 326 983 347 1028 q 317 948 317 966 q 363 875 317 897 q 397 868 380 868 q 468 913 446 868 q 476 948 476 930 z "},"È":{"ha":758,"x_min":49,"x_max":692,"o":"m 692 567 l 685 814 l 49 814 l 49 779 l 157 779 l 157 35 l 49 35 l 49 0 l 685 0 l 692 247 l 662 247 l 640 178 q 532 41 605 61 q 492 35 513 35 l 288 35 l 288 400 l 564 400 l 564 439 l 288 439 l 288 779 l 492 779 q 639 642 597 779 q 640 636 640 639 l 662 567 l 692 567 m 519 856 q 411 998 480 897 q 372 1048 385 1035 q 332 1066 353 1066 q 274 1028 294 1066 q 267 1001 267 1015 q 288 959 269 975 q 400 891 304 944 q 498 831 460 859 l 519 856 z "},"Ē":{"ha":758,"x_min":49,"x_max":692,"o":"m 692 567 l 685 814 l 49 814 l 49 779 l 157 779 l 157 35 l 49 35 l 49 0 l 685 0 l 692 247 l 662 247 l 640 178 q 532 41 605 61 q 492 35 513 35 l 288 35 l 288 400 l 564 400 l 564 439 l 288 439 l 288 779 l 492 779 q 639 642 597 779 q 640 636 640 639 l 662 567 l 692 567 m 194 909 l 606 909 l 606 978 l 194 978 l 194 909 z "},"Ę":{"ha":758,"x_min":49,"x_max":692,"o":"m 692 567 l 685 814 l 49 814 l 49 779 l 157 779 l 157 35 l 49 35 l 49 0 l 614 0 q 437 -126 464 -39 q 431 -157 431 -142 q 498 -247 431 -220 q 564 -259 528 -259 q 688 -209 642 -258 l 671 -189 q 598 -220 633 -220 q 544 -167 551 -220 q 543 -152 543 -159 q 613 -33 543 -85 q 673 0 640 -14 l 685 0 l 692 247 l 662 247 l 640 178 q 532 41 605 61 q 492 35 513 35 l 288 35 l 288 400 l 564 400 l 564 439 l 288 439 l 288 779 l 492 779 q 639 642 597 779 q 640 636 640 639 l 662 567 l 692 567 z "},"Ð":{"ha":918,"x_min":49,"x_max":849,"o":"m 49 814 l 49 779 l 157 779 l 157 449 l 61 449 l 61 393 l 157 393 l 157 35 l 49 35 l 49 0 l 429 0 q 734 115 614 0 q 849 407 849 228 q 678 747 849 639 q 431 814 572 814 l 49 814 m 429 779 q 684 589 631 779 q 704 412 704 514 q 431 35 703 37 l 288 35 l 288 393 l 446 393 l 446 449 l 288 449 l 288 779 l 429 779 z "},"€":{"ha":822,"x_min":12,"x_max":758,"o":"m 757 145 q 715 208 757 193 q 689 212 701 212 q 616 161 635 212 q 606 132 612 152 q 557 46 589 68 q 468 24 525 24 q 269 336 288 24 q 269 339 269 338 l 563 339 l 575 378 l 267 378 l 267 407 l 267 446 l 590 446 l 602 486 l 270 486 q 415 780 283 738 q 483 789 446 789 q 601 722 576 789 q 612 684 605 709 q 647 614 625 628 q 692 604 666 604 q 758 677 753 616 q 670 792 758 746 q 507 827 598 827 q 175 646 275 827 q 123 486 137 574 l 24 486 l 12 446 l 118 446 q 117 397 117 429 l 117 378 l 24 378 l 12 339 l 119 339 q 267 52 140 146 q 473 -14 354 -14 q 731 77 661 -14 q 757 145 757 111 z "},"F":{"ha":704,"x_min":49,"x_max":692,"o":"m 450 0 l 450 35 l 288 35 l 288 400 l 564 400 l 564 439 l 288 439 l 288 779 l 492 779 q 639 642 597 779 q 640 636 640 639 l 662 566 l 692 566 l 685 814 l 49 814 l 49 779 l 157 779 l 157 35 l 49 35 l 49 0 l 450 0 z "},"G":{"ha":941,"x_min":69,"x_max":903,"o":"m 555 368 l 555 332 l 675 332 l 675 109 q 484 27 595 33 q 222 340 243 27 q 220 407 220 373 q 430 784 220 745 q 483 788 456 788 q 684 704 621 788 q 751 543 723 650 l 788 543 l 783 811 l 662 785 q 477 827 576 827 q 194 719 311 827 q 69 412 69 602 q 227 71 69 190 q 479 -14 338 -14 q 667 33 583 -14 q 680 39 674 37 l 804 0 l 804 332 l 903 332 l 903 368 l 555 368 z "},"Ğ":{"ha":941,"x_min":69,"x_max":903,"o":"m 555 368 l 555 332 l 675 332 l 675 109 q 484 27 595 33 q 222 340 243 27 q 220 407 220 373 q 430 784 220 745 q 483 788 456 788 q 684 704 621 788 q 751 543 723 650 l 788 543 l 783 811 l 662 785 q 477 827 576 827 q 194 719 311 827 q 69 412 69 602 q 227 71 69 190 q 479 -14 338 -14 q 667 33 583 -14 q 680 39 674 37 l 804 0 l 804 332 l 903 332 l 903 368 l 555 368 m 480 958 q 614 1038 594 958 q 616 1044 616 1042 l 644 1044 q 557 883 644 924 q 476 867 521 867 q 317 974 353 867 q 307 1044 307 1008 l 334 1044 q 480 958 354 958 z "},"H":{"ha":978,"x_min":49,"x_max":929,"o":"m 396 0 q 374 34 396 30 q 361 35 368 35 l 288 35 l 288 400 l 690 400 l 690 35 l 582 35 l 582 0 l 929 0 q 907 34 929 30 q 894 35 901 35 l 821 35 l 821 779 l 929 779 l 929 814 l 582 814 l 582 779 l 690 779 l 690 439 l 288 439 l 288 779 l 396 779 l 396 814 l 49 814 l 49 779 l 157 779 l 157 35 l 49 35 l 49 0 l 396 0 z "},"I":{"ha":445,"x_min":49,"x_max":396,"o":"m 396 0 q 374 34 396 30 q 361 35 368 35 l 288 35 l 288 779 l 396 779 l 396 814 l 49 814 l 49 779 l 157 779 l 157 35 l 49 35 l 49 0 l 396 0 z "},"Í":{"ha":445,"x_min":49,"x_max":396,"o":"m 396 0 q 374 34 396 30 q 361 35 368 35 l 288 35 l 288 779 l 396 779 l 396 814 l 49 814 l 49 779 l 157 779 l 157 35 l 49 35 l 49 0 l 396 0 m 349 959 q 369 1001 368 977 q 334 1058 369 1036 q 304 1066 317 1066 q 263 1048 282 1065 q 198 958 251 1038 q 117 856 155 895 l 138 831 q 289 920 172 856 q 349 959 332 944 z "},"Î":{"ha":445,"x_min":42,"x_max":406,"o":"m 396 0 q 374 34 396 30 q 361 35 368 35 l 288 35 l 288 779 l 396 779 l 396 814 l 49 814 l 49 779 l 157 779 l 157 35 l 49 35 l 49 0 l 396 0 m 389 853 l 406 876 q 305 996 388 895 q 222 1051 254 1047 q 146 1002 187 1051 q 119 967 138 991 q 42 875 73 910 l 58 854 q 225 947 127 898 q 389 853 327 895 z "},"Ï":{"ha":445,"x_min":27,"x_max":422,"o":"m 396 0 q 374 34 396 30 q 361 35 368 35 l 288 35 l 288 779 l 396 779 l 396 814 l 49 814 l 49 779 l 157 779 l 157 35 l 49 35 l 49 0 l 396 0 m 172 951 q 130 1016 172 998 q 100 1023 115 1023 q 34 981 52 1023 q 27 951 27 966 q 71 883 27 902 q 100 878 85 878 q 165 921 148 878 q 172 951 172 936 m 422 951 q 378 1017 422 998 q 349 1023 363 1023 q 282 979 300 1023 q 277 951 277 964 q 321 883 277 901 q 349 878 335 878 q 415 921 397 878 q 422 951 422 935 z "},"İ":{"ha":445,"x_min":49,"x_max":396,"o":"m 396 0 q 374 34 396 30 q 361 35 368 35 l 288 35 l 288 779 l 396 779 l 396 814 l 49 814 l 49 779 l 157 779 l 157 35 l 49 35 l 49 0 l 396 0 m 302 948 q 259 1020 302 997 q 224 1028 241 1028 q 152 983 174 1028 q 144 948 144 966 q 190 875 144 897 q 224 868 206 868 q 294 913 273 868 q 302 948 302 930 z "},"Ì":{"ha":445,"x_min":49,"x_max":396,"o":"m 396 0 q 374 34 396 30 q 361 35 368 35 l 288 35 l 288 779 l 396 779 l 396 814 l 49 814 l 49 779 l 157 779 l 157 35 l 49 35 l 49 0 l 396 0 m 346 856 q 237 998 307 897 q 198 1048 212 1035 q 159 1066 179 1066 q 100 1028 121 1066 q 94 1001 94 1015 q 114 959 95 975 q 227 891 130 944 q 324 831 286 859 l 346 856 z "},"Ī":{"ha":445,"x_min":20,"x_max":433,"o":"m 396 0 q 374 34 396 30 q 361 35 368 35 l 288 35 l 288 779 l 396 779 l 396 814 l 49 814 l 49 779 l 157 779 l 157 35 l 49 35 l 49 0 l 396 0 m 20 909 l 433 909 l 433 978 l 20 978 l 20 909 z "},"Į":{"ha":445,"x_min":49,"x_max":406,"o":"m 396 0 q 374 34 396 30 q 361 35 368 35 l 288 35 l 288 779 l 396 779 l 396 814 l 49 814 l 49 779 l 157 779 l 157 35 l 49 35 l 49 0 l 332 0 q 155 -126 182 -39 q 149 -157 149 -142 q 216 -247 149 -220 q 282 -259 245 -259 q 406 -209 359 -258 l 389 -189 q 316 -220 351 -220 q 262 -167 269 -220 q 260 -152 260 -159 q 331 -33 260 -85 q 391 0 358 -14 l 396 0 z "},"J":{"ha":509,"x_min":-34,"x_max":467,"o":"m 467 779 l 467 814 l 107 814 l 107 779 l 229 779 l 229 228 q 190 22 229 56 q 152 9 174 9 q 103 52 115 9 q 85 107 88 103 q 28 137 68 136 q -30 98 -15 137 q -34 75 -34 85 q 37 -8 -34 19 q 130 -24 77 -24 q 316 71 255 -24 q 359 240 359 138 l 359 779 l 467 779 z "},"K":{"ha":865,"x_min":49,"x_max":865,"o":"m 396 0 q 374 34 396 30 q 361 35 368 35 l 288 35 l 288 351 l 354 414 l 663 0 l 865 0 q 844 34 865 30 q 830 35 837 35 l 798 35 l 448 500 l 684 720 q 760 776 735 769 q 785 779 772 779 q 819 800 817 779 q 821 814 821 807 l 575 814 l 575 779 l 684 779 l 288 415 l 288 779 l 396 779 l 396 814 l 49 814 l 49 779 l 157 779 l 157 35 l 49 35 l 49 0 l 396 0 z "},"L":{"ha":674,"x_min":49,"x_max":663,"o":"m 656 0 l 663 275 l 633 275 l 608 178 q 502 39 576 58 q 465 35 484 35 l 288 35 l 288 779 l 403 779 l 403 814 l 49 814 l 49 779 l 157 779 l 157 35 l 49 35 l 49 0 l 656 0 z "},"Ĺ":{"ha":674,"x_min":49,"x_max":663,"o":"m 656 0 l 663 275 l 633 275 l 608 178 q 502 39 576 58 q 465 35 484 35 l 288 35 l 288 779 l 403 779 l 403 814 l 49 814 l 49 779 l 157 779 l 157 35 l 49 35 l 49 0 l 656 0 m 457 959 q 477 1001 476 977 q 442 1058 477 1036 q 412 1066 426 1066 q 372 1048 391 1065 q 307 958 359 1038 q 225 856 263 895 l 247 831 q 397 920 281 856 q 457 959 441 944 z "},"Ľ":{"ha":674,"x_min":46,"x_max":663,"o":"m 656 0 l 663 275 l 633 275 l 608 178 q 502 39 576 58 q 465 35 484 35 l 288 35 l 288 779 l 403 779 l 403 814 l 49 814 l 49 779 l 157 779 l 157 35 l 49 35 l 49 0 l 656 0 m 243 856 q 326 909 281 856 q 359 949 336 920 q 437 1040 406 1006 l 418 1062 q 243 963 346 1016 q 65 1063 118 1027 l 46 1039 q 127 945 80 1002 q 209 864 184 876 q 243 856 227 856 z "},"Ł":{"ha":681,"x_min":16,"x_max":663,"o":"m 656 0 l 663 275 l 633 275 l 608 178 q 502 39 576 58 q 465 35 484 35 l 288 35 l 288 351 l 562 506 l 541 541 l 288 399 l 288 779 l 403 779 l 403 814 l 49 814 l 49 779 l 157 779 l 157 326 l 16 247 l 37 210 l 157 278 l 157 35 l 49 35 l 49 0 l 656 0 z "},"M":{"ha":1097,"x_min":35,"x_max":1062,"o":"m 1062 814 l 830 814 l 548 167 l 239 814 l 35 814 l 35 779 l 144 779 l 144 35 l 35 35 l 35 0 l 307 0 q 285 34 307 30 q 271 35 278 35 l 198 35 l 198 605 l 494 -8 l 522 -8 l 830 688 l 830 35 l 722 35 l 722 0 l 1062 0 q 1040 34 1062 30 q 1027 35 1034 35 l 954 35 l 954 779 l 1062 779 l 1062 814 z "},"N":{"ha":906,"x_min":26,"x_max":894,"o":"m 617 779 l 731 779 l 731 186 l 222 814 l 26 814 l 26 779 l 134 779 l 134 35 l 26 35 l 26 0 l 304 0 q 282 34 304 30 q 269 35 275 35 l 189 35 l 189 651 l 720 -7 l 785 7 l 785 779 l 894 779 l 894 814 l 617 814 l 617 779 z "},"Ń":{"ha":906,"x_min":26,"x_max":894,"o":"m 617 779 l 731 779 l 731 186 l 222 814 l 26 814 l 26 779 l 134 779 l 134 35 l 26 35 l 26 0 l 304 0 q 282 34 304 30 q 269 35 275 35 l 189 35 l 189 651 l 720 -7 l 785 7 l 785 779 l 894 779 l 894 814 l 617 814 l 617 779 m 581 959 q 601 1001 600 977 q 566 1058 601 1036 q 536 1066 549 1066 q 495 1048 514 1065 q 430 958 483 1038 q 349 856 387 895 l 370 831 q 521 920 404 856 q 581 959 564 944 z "},"Ň":{"ha":906,"x_min":26,"x_max":894,"o":"m 617 779 l 731 779 l 731 186 l 222 814 l 26 814 l 26 779 l 134 779 l 134 35 l 26 35 l 26 0 l 304 0 q 282 34 304 30 q 269 35 275 35 l 189 35 l 189 651 l 720 -7 l 785 7 l 785 779 l 894 779 l 894 814 l 617 814 l 617 779 m 458 856 q 541 909 496 856 q 575 949 552 920 q 652 1040 621 1006 l 633 1062 q 458 963 562 1016 q 281 1063 334 1027 l 262 1039 q 343 945 296 1002 q 425 864 400 876 q 458 856 442 856 z "},"Ñ":{"ha":906,"x_min":26,"x_max":894,"o":"m 617 779 l 731 779 l 731 186 l 222 814 l 26 814 l 26 779 l 134 779 l 134 35 l 26 35 l 26 0 l 304 0 q 282 34 304 30 q 269 35 275 35 l 189 35 l 189 651 l 720 -7 l 785 7 l 785 779 l 894 779 l 894 814 l 617 814 l 617 779 m 387 1040 q 487 996 427 1040 q 563 959 536 959 q 635 1031 614 959 q 636 1036 636 1034 l 665 1029 q 541 879 636 880 q 442 922 500 879 q 365 959 393 959 q 294 894 315 959 q 292 883 293 888 l 264 888 q 387 1040 293 1039 z "},"O":{"ha":956,"x_min":69,"x_max":887,"o":"m 481 827 q 197 719 316 827 q 69 412 69 600 q 220 75 69 195 q 477 -14 332 -14 q 760 96 642 -14 q 887 407 887 217 q 731 747 887 631 q 481 827 623 827 m 481 24 q 221 358 237 24 q 220 407 220 382 q 438 787 220 758 q 477 789 458 789 q 735 412 734 787 q 544 31 735 80 q 481 24 514 24 z "},"Œ":{"ha":1227,"x_min":69,"x_max":1161,"o":"m 499 30 q 220 407 221 33 q 454 781 220 757 q 495 784 475 784 q 627 764 564 784 l 627 50 q 499 30 563 30 m 674 0 l 1154 0 l 1161 248 l 1131 248 l 1109 178 q 947 35 1065 37 l 757 35 l 757 400 l 1034 400 l 1034 439 l 757 439 l 757 779 l 947 779 q 1108 636 1063 777 l 1131 566 l 1161 566 l 1154 814 l 675 814 q 581 817 646 814 q 487 821 515 821 q 193 711 312 821 q 69 412 69 597 q 228 75 69 190 q 488 -7 339 -7 q 605 -3 529 -7 q 674 0 656 0 z "},"Ó":{"ha":956,"x_min":69,"x_max":887,"o":"m 481 827 q 197 719 316 827 q 69 412 69 600 q 220 75 69 195 q 477 -14 332 -14 q 760 96 642 -14 q 887 407 887 217 q 731 747 887 631 q 481 827 623 827 m 481 24 q 221 358 237 24 q 220 407 220 382 q 438 787 220 758 q 477 789 458 789 q 735 412 734 787 q 544 31 735 80 q 481 24 514 24 m 605 959 q 625 1001 624 977 q 590 1058 625 1036 q 560 1066 574 1066 q 519 1048 538 1065 q 454 958 507 1038 q 373 856 411 895 l 395 831 q 545 920 429 856 q 605 959 589 944 z "},"Ô":{"ha":956,"x_min":69,"x_max":887,"o":"m 481 827 q 197 719 316 827 q 69 412 69 600 q 220 75 69 195 q 477 -14 332 -14 q 760 96 642 -14 q 887 407 887 217 q 731 747 887 631 q 481 827 623 827 m 481 24 q 221 358 237 24 q 220 407 220 382 q 438 787 220 758 q 477 789 458 789 q 735 412 734 787 q 544 31 735 80 q 481 24 514 24 m 646 853 l 662 876 q 562 996 644 895 q 479 1051 510 1047 q 403 1002 444 1051 q 376 967 395 991 q 298 875 330 910 l 315 854 q 481 947 384 898 q 646 853 583 895 z "},"Ö":{"ha":956,"x_min":69,"x_max":887,"o":"m 481 827 q 197 719 316 827 q 69 412 69 600 q 220 75 69 195 q 477 -14 332 -14 q 760 96 642 -14 q 887 407 887 217 q 731 747 887 631 q 481 827 623 827 m 481 24 q 221 358 237 24 q 220 407 220 382 q 438 787 220 758 q 477 789 458 789 q 735 412 734 787 q 544 31 735 80 q 481 24 514 24 m 429 951 q 387 1016 429 998 q 357 1023 372 1023 q 290 981 308 1023 q 283 951 283 966 q 327 883 283 902 q 357 878 342 878 q 422 921 404 878 q 429 951 429 936 m 678 951 q 635 1017 678 998 q 605 1023 620 1023 q 538 979 556 1023 q 533 951 533 964 q 578 883 533 901 q 605 878 591 878 q 671 921 654 878 q 678 951 678 935 z "},"Ò":{"ha":956,"x_min":69,"x_max":887,"o":"m 481 827 q 197 719 316 827 q 69 412 69 600 q 220 75 69 195 q 477 -14 332 -14 q 760 96 642 -14 q 887 407 887 217 q 731 747 887 631 q 481 827 623 827 m 481 24 q 221 358 237 24 q 220 407 220 382 q 438 787 220 758 q 477 789 458 789 q 735 412 734 787 q 544 31 735 80 q 481 24 514 24 m 602 856 q 494 998 563 897 q 454 1048 468 1035 q 415 1066 435 1066 q 357 1028 377 1066 q 350 1001 350 1015 q 370 959 351 975 q 483 891 387 944 q 581 831 543 859 l 602 856 z "},"Ő":{"ha":956,"x_min":69,"x_max":887,"o":"m 481 827 q 197 719 316 827 q 69 412 69 600 q 220 75 69 195 q 477 -14 332 -14 q 760 96 642 -14 q 887 407 887 217 q 731 747 887 631 q 481 827 623 827 m 481 24 q 221 358 237 24 q 220 407 220 382 q 438 787 220 758 q 477 789 458 789 q 735 412 734 787 q 544 31 735 80 q 481 24 514 24 m 522 981 q 540 1021 540 997 q 505 1077 540 1058 q 476 1084 490 1084 q 438 1067 454 1082 q 376 978 427 1057 q 297 878 334 917 l 317 854 q 468 944 349 878 q 522 981 507 967 m 745 940 q 770 977 765 952 q 745 1038 777 1015 q 720 1048 734 1047 q 680 1040 696 1053 q 600 966 663 1031 q 505 883 548 914 l 519 856 q 685 916 553 872 q 745 940 727 929 z "},"Ō":{"ha":956,"x_min":69,"x_max":887,"o":"m 481 827 q 197 719 316 827 q 69 412 69 600 q 220 75 69 195 q 477 -14 332 -14 q 760 96 642 -14 q 887 407 887 217 q 731 747 887 631 q 481 827 623 827 m 481 24 q 221 358 237 24 q 220 407 220 382 q 438 787 220 758 q 477 789 458 789 q 735 412 734 787 q 544 31 735 80 q 481 24 514 24 m 277 909 l 689 909 l 689 978 l 277 978 l 277 909 z "},"Ø":{"ha":956,"x_min":69,"x_max":887,"o":"m 481 827 q 197 719 316 827 q 69 412 69 600 q 220 76 69 195 q 283 34 250 52 l 187 -210 l 275 -210 l 359 3 q 477 -14 418 -14 q 760 96 642 -14 q 887 407 887 217 q 728 749 887 632 q 667 785 699 770 l 738 963 l 650 963 l 591 814 q 481 827 538 827 m 220 407 q 438 787 220 758 q 477 789 458 789 q 575 773 530 789 l 307 94 q 220 407 220 191 m 481 24 q 376 45 425 24 l 644 727 q 735 412 735 636 q 544 31 735 80 q 481 24 514 24 z "},"Õ":{"ha":956,"x_min":69,"x_max":887,"o":"m 481 827 q 197 719 316 827 q 69 412 69 600 q 220 75 69 195 q 477 -14 332 -14 q 760 96 642 -14 q 887 407 887 217 q 731 747 887 631 q 481 827 623 827 m 481 24 q 221 358 237 24 q 220 407 220 382 q 438 787 220 758 q 477 789 458 789 q 735 412 734 787 q 544 31 735 80 q 481 24 514 24 m 411 1040 q 511 996 452 1040 q 587 959 560 959 q 659 1031 639 959 q 661 1036 661 1034 l 689 1029 q 566 879 661 880 q 467 922 525 879 q 389 959 418 959 q 319 894 339 959 q 316 883 317 888 l 289 888 q 411 1040 317 1039 z "},"P":{"ha":762,"x_min":49,"x_max":727,"o":"m 422 779 q 576 662 545 779 q 585 593 585 629 q 431 400 585 416 q 403 399 416 399 l 288 399 l 288 779 l 422 779 m 425 0 q 403 34 425 30 q 389 35 396 35 l 288 35 l 288 359 l 407 359 q 700 487 628 359 q 727 597 727 536 q 610 785 727 730 q 461 814 548 814 l 49 814 l 49 779 l 157 779 l 157 35 l 49 35 l 49 0 l 425 0 z "},"Q":{"ha":959,"x_min":72,"x_max":978,"o":"m 484 827 q 199 719 317 827 q 72 408 72 600 q 221 76 72 197 q 480 -14 334 -14 q 587 0 537 -14 q 675 -130 651 -104 q 799 -195 731 -195 q 978 -35 909 -193 l 949 -19 q 817 -100 878 -99 q 689 -16 760 -100 q 656 24 680 -5 q 864 254 808 95 q 890 410 890 327 q 736 745 890 628 q 484 827 627 827 m 464 163 q 327 76 388 161 q 222 407 222 168 q 465 789 222 776 q 483 789 475 789 q 739 414 738 787 q 623 66 738 156 q 464 163 540 161 m 481 24 q 358 54 411 24 q 457 113 410 111 q 563 37 511 111 q 481 24 526 24 z "},"R":{"ha":830,"x_min":49,"x_max":830,"o":"m 396 0 l 396 35 l 288 35 l 288 373 l 404 373 l 618 0 l 830 0 q 812 34 830 31 q 798 35 806 35 l 753 35 l 536 385 q 712 522 666 419 q 728 602 728 562 q 640 765 728 704 q 461 814 567 814 l 49 814 l 49 779 l 157 779 l 157 35 l 49 35 l 49 0 l 396 0 m 412 779 q 570 682 526 779 q 586 600 586 643 q 518 446 586 499 q 418 412 476 412 l 288 412 l 288 779 l 412 779 z "},"Ŕ":{"ha":830,"x_min":49,"x_max":830,"o":"m 396 0 l 396 35 l 288 35 l 288 373 l 404 373 l 618 0 l 830 0 q 812 34 830 31 q 798 35 806 35 l 753 35 l 536 385 q 712 522 666 419 q 728 602 728 562 q 640 765 728 704 q 461 814 567 814 l 49 814 l 49 779 l 157 779 l 157 35 l 49 35 l 49 0 l 396 0 m 412 779 q 570 682 526 779 q 586 600 586 643 q 518 446 586 499 q 418 412 476 412 l 288 412 l 288 779 l 412 779 m 538 959 q 559 1001 557 977 q 524 1058 559 1036 q 494 1066 507 1066 q 453 1048 472 1065 q 388 958 441 1038 q 307 856 345 895 l 328 831 q 479 920 362 856 q 538 959 522 944 z "},"Ř":{"ha":830,"x_min":49,"x_max":830,"o":"m 396 0 l 396 35 l 288 35 l 288 373 l 404 373 l 618 0 l 830 0 q 812 34 830 31 q 798 35 806 35 l 753 35 l 536 385 q 712 522 666 419 q 728 602 728 562 q 640 765 728 704 q 461 814 567 814 l 49 814 l 49 779 l 157 779 l 157 35 l 49 35 l 49 0 l 396 0 m 412 779 q 570 682 526 779 q 586 600 586 643 q 518 446 586 499 q 418 412 476 412 l 288 412 l 288 779 l 412 779 m 415 856 q 498 909 453 856 q 532 949 509 920 q 609 1040 578 1006 l 590 1062 q 415 963 518 1016 q 237 1063 290 1027 l 218 1039 q 300 945 252 1002 q 381 864 357 876 q 415 856 399 856 z "},"S":{"ha":732,"x_min":80,"x_max":667,"o":"m 667 216 q 537 410 667 335 q 382 483 515 423 q 232 591 263 536 q 217 654 217 621 q 301 774 217 741 q 381 789 338 789 q 552 712 494 789 q 591 582 593 659 l 635 582 l 635 821 q 595 798 600 821 q 593 774 593 788 q 372 827 492 827 q 141 746 224 827 q 85 613 85 690 q 212 427 85 499 q 366 354 235 414 q 519 243 487 300 q 536 178 536 213 q 446 42 536 83 q 354 24 404 24 q 126 251 157 24 q 123 279 125 266 l 80 279 l 80 -3 q 119 16 113 -3 q 122 56 122 28 q 362 -14 227 -14 q 606 71 519 -14 q 667 216 667 132 z "},"Ś":{"ha":732,"x_min":80,"x_max":667,"o":"m 667 216 q 537 410 667 335 q 382 483 515 423 q 232 591 263 536 q 217 654 217 621 q 301 774 217 741 q 381 789 338 789 q 552 712 494 789 q 591 582 593 659 l 635 582 l 635 821 q 595 798 600 821 q 593 774 593 788 q 372 827 492 827 q 141 746 224 827 q 85 613 85 690 q 212 427 85 499 q 366 354 235 414 q 519 243 487 300 q 536 178 536 213 q 446 42 536 83 q 354 24 404 24 q 126 251 157 24 q 123 279 125 266 l 80 279 l 80 -3 q 119 16 113 -3 q 122 56 122 28 q 362 -14 227 -14 q 606 71 519 -14 q 667 216 667 132 m 517 959 q 537 1001 536 977 q 502 1058 537 1036 q 472 1066 486 1066 q 431 1048 450 1065 q 366 958 419 1038 q 285 856 323 895 l 307 831 q 457 920 340 856 q 517 959 500 944 z "},"Š":{"ha":732,"x_min":80,"x_max":667,"o":"m 667 216 q 537 410 667 335 q 382 483 515 423 q 232 591 263 536 q 217 654 217 621 q 301 774 217 741 q 381 789 338 789 q 552 712 494 789 q 591 582 593 659 l 635 582 l 635 821 q 595 798 600 821 q 593 774 593 788 q 372 827 492 827 q 141 746 224 827 q 85 613 85 690 q 212 427 85 499 q 366 354 235 414 q 519 243 487 300 q 536 178 536 213 q 446 42 536 83 q 354 24 404 24 q 126 251 157 24 q 123 279 125 266 l 80 279 l 80 -3 q 119 16 113 -3 q 122 56 122 28 q 362 -14 227 -14 q 606 71 519 -14 q 667 216 667 132 m 393 856 q 476 909 431 856 q 510 949 487 920 q 587 1040 556 1006 l 568 1062 q 393 963 496 1016 q 216 1063 269 1027 l 197 1039 q 278 945 231 1002 q 359 864 335 876 q 393 856 377 856 z "},"T":{"ha":773,"x_min":42,"x_max":731,"o":"m 578 0 q 556 34 578 30 q 543 35 549 35 l 449 35 l 449 779 l 518 779 q 667 639 631 777 l 693 543 l 731 543 l 726 814 l 49 814 l 42 543 l 80 543 l 106 639 q 256 779 144 777 l 319 779 l 319 35 l 190 35 l 190 0 l 578 0 z "},"Ť":{"ha":773,"x_min":42,"x_max":731,"o":"m 578 0 q 556 34 578 30 q 543 35 549 35 l 449 35 l 449 779 l 518 779 q 667 639 631 777 l 693 543 l 731 543 l 726 814 l 49 814 l 42 543 l 80 543 l 106 639 q 256 779 144 777 l 319 779 l 319 35 l 190 35 l 190 0 l 578 0 m 387 856 q 469 909 425 856 q 503 949 480 920 q 581 1040 549 1006 l 562 1062 q 387 963 490 1016 q 209 1063 262 1027 l 190 1039 q 271 945 224 1002 q 353 864 328 876 q 387 856 370 856 z "},"Þ":{"ha":791,"x_min":43,"x_max":722,"o":"m 418 616 q 571 499 540 616 q 579 430 579 467 q 426 237 579 254 q 397 236 412 236 l 282 236 l 282 616 l 418 616 m 396 0 q 378 34 396 31 q 363 35 372 35 l 282 35 l 282 197 l 401 197 q 694 324 623 197 q 722 434 722 373 q 605 623 722 567 q 456 651 543 651 l 282 651 l 282 779 l 396 779 l 396 814 l 43 814 l 43 779 l 152 779 l 152 35 l 43 35 l 43 0 l 396 0 z "},"U":{"ha":861,"x_min":14,"x_max":854,"o":"m 14 779 l 122 779 l 122 304 q 444 -14 125 -12 q 730 175 678 -14 q 746 317 746 236 l 746 779 l 854 779 l 854 814 l 590 814 l 590 779 l 699 779 l 699 309 q 492 24 699 39 q 472 24 481 24 q 269 171 309 24 q 252 312 252 231 l 252 779 l 359 779 l 359 814 l 14 814 l 14 779 z "},"Ú":{"ha":861,"x_min":14,"x_max":854,"o":"m 14 779 l 122 779 l 122 304 q 444 -14 125 -12 q 730 175 678 -14 q 746 317 746 236 l 746 779 l 854 779 l 854 814 l 590 814 l 590 779 l 699 779 l 699 309 q 492 24 699 39 q 472 24 481 24 q 269 171 309 24 q 252 312 252 231 l 252 779 l 359 779 l 359 814 l 14 814 l 14 779 m 585 959 q 605 1001 604 977 q 570 1058 605 1036 q 540 1066 553 1066 q 499 1048 518 1065 q 434 958 487 1038 q 353 856 391 895 l 374 831 q 525 920 408 856 q 585 959 568 944 z "},"Û":{"ha":861,"x_min":14,"x_max":854,"o":"m 14 779 l 122 779 l 122 304 q 444 -14 125 -12 q 730 175 678 -14 q 746 317 746 236 l 746 779 l 854 779 l 854 814 l 590 814 l 590 779 l 699 779 l 699 309 q 492 24 699 39 q 472 24 481 24 q 269 171 309 24 q 252 312 252 231 l 252 779 l 359 779 l 359 814 l 14 814 l 14 779 m 625 853 l 642 876 q 541 996 624 895 q 458 1051 490 1047 q 382 1002 423 1051 q 355 967 374 991 q 278 875 309 910 l 294 854 q 461 947 363 898 q 625 853 563 895 z "},"Ü":{"ha":861,"x_min":14,"x_max":854,"o":"m 14 779 l 122 779 l 122 304 q 444 -14 125 -12 q 730 175 678 -14 q 746 317 746 236 l 746 779 l 854 779 l 854 814 l 590 814 l 590 779 l 699 779 l 699 309 q 492 24 699 39 q 472 24 481 24 q 269 171 309 24 q 252 312 252 231 l 252 779 l 359 779 l 359 814 l 14 814 l 14 779 m 408 951 q 366 1016 408 998 q 336 1023 351 1023 q 270 981 288 1023 q 263 951 263 966 q 307 883 263 902 q 336 878 321 878 q 401 921 384 878 q 408 951 408 936 m 658 951 q 614 1017 658 998 q 585 1023 600 1023 q 518 979 536 1023 q 513 951 513 964 q 557 883 513 901 q 585 878 571 878 q 651 921 633 878 q 658 951 658 935 z "},"Ù":{"ha":861,"x_min":14,"x_max":854,"o":"m 14 779 l 122 779 l 122 304 q 444 -14 125 -12 q 730 175 678 -14 q 746 317 746 236 l 746 779 l 854 779 l 854 814 l 590 814 l 590 779 l 699 779 l 699 309 q 492 24 699 39 q 472 24 481 24 q 269 171 309 24 q 252 312 252 231 l 252 779 l 359 779 l 359 814 l 14 814 l 14 779 m 582 856 q 473 998 543 897 q 434 1048 448 1035 q 395 1066 415 1066 q 336 1028 357 1066 q 330 1001 330 1015 q 350 959 331 975 q 463 891 366 944 q 560 831 522 859 l 582 856 z "},"Ű":{"ha":861,"x_min":14,"x_max":854,"o":"m 14 779 l 122 779 l 122 304 q 444 -14 125 -12 q 730 175 678 -14 q 746 317 746 236 l 746 779 l 854 779 l 854 814 l 590 814 l 590 779 l 699 779 l 699 309 q 492 24 699 39 q 472 24 481 24 q 269 171 309 24 q 252 312 252 231 l 252 779 l 359 779 l 359 814 l 14 814 l 14 779 m 503 981 q 521 1021 521 997 q 486 1077 521 1058 q 457 1084 471 1084 q 419 1067 435 1082 q 357 978 408 1057 q 278 878 315 917 l 298 854 q 449 944 330 878 q 503 981 488 967 m 726 940 q 751 977 746 952 q 726 1038 758 1015 q 701 1048 713 1047 q 661 1040 677 1053 q 581 966 644 1031 q 486 883 529 914 l 500 856 q 666 916 534 872 q 726 940 708 929 z "},"Ū":{"ha":861,"x_min":14,"x_max":854,"o":"m 14 779 l 122 779 l 122 304 q 444 -14 125 -12 q 730 175 678 -14 q 746 317 746 236 l 746 779 l 854 779 l 854 814 l 590 814 l 590 779 l 699 779 l 699 309 q 492 24 699 39 q 472 24 481 24 q 269 171 309 24 q 252 312 252 231 l 252 779 l 359 779 l 359 814 l 14 814 l 14 779 m 256 909 l 669 909 l 669 978 l 256 978 l 256 909 z "},"Ų":{"ha":861,"x_min":14,"x_max":854,"o":"m 14 779 l 122 779 l 122 304 q 444 -14 125 -12 q 730 175 678 -14 q 746 317 746 236 l 746 779 l 854 779 l 854 814 l 590 814 l 590 779 l 699 779 l 699 309 q 492 24 699 39 q 472 24 481 24 q 269 171 309 24 q 252 312 252 231 l 252 779 l 359 779 l 359 814 l 14 814 l 14 779 m 548 -220 q 494 -167 500 -220 q 492 -152 492 -159 q 563 -33 492 -85 q 623 0 590 -14 l 621 12 q 392 -113 437 -19 q 381 -157 381 -134 q 448 -247 381 -220 q 514 -259 477 -259 q 637 -209 591 -258 l 621 -189 q 548 -220 583 -220 z "},"Ů":{"ha":861,"x_min":14,"x_max":854,"o":"m 14 779 l 122 779 l 122 304 q 444 -14 125 -12 q 730 175 678 -14 q 746 317 746 236 l 746 779 l 854 779 l 854 814 l 590 814 l 590 779 l 699 779 l 699 309 q 492 24 699 39 q 472 24 481 24 q 269 171 309 24 q 252 312 252 231 l 252 779 l 359 779 l 359 814 l 14 814 l 14 779 m 423 954 q 475 1047 423 1036 q 488 1048 481 1048 q 553 975 545 1048 q 555 956 555 966 q 510 865 555 883 q 488 861 499 861 q 423 954 425 863 m 492 1080 q 354 1008 388 1080 q 343 956 343 983 q 415 844 343 875 q 486 830 448 830 q 621 903 586 830 q 633 958 633 929 q 563 1066 633 1035 q 492 1080 530 1080 z "},"V":{"ha":787,"x_min":-8,"x_max":787,"o":"m 439 -7 l 719 779 l 787 779 l 787 814 l 559 814 l 559 779 l 667 779 l 445 151 l 202 779 l 311 779 l 311 814 l -8 814 l -8 779 l 71 779 l 331 96 q 380 3 361 16 q 420 -7 395 -7 l 439 -7 z "},"W":{"ha":1143,"x_min":-8,"x_max":1143,"o":"m 808 0 l 1076 779 l 1143 779 l 1143 814 l 922 814 l 922 779 l 1031 779 l 822 151 l 605 779 l 715 779 l 715 814 l 467 814 l 560 552 l 420 149 l 194 779 l 304 779 l 304 814 l -8 814 l -8 779 l 69 779 l 321 85 q 372 -1 350 8 q 392 -5 381 -5 l 407 -5 l 583 490 l 728 85 q 772 4 754 14 q 795 0 781 0 l 808 0 z "},"X":{"ha":829,"x_min":12,"x_max":829,"o":"m 264 0 l 264 35 l 156 35 l 385 354 l 598 35 l 499 35 l 499 0 l 829 0 q 807 34 829 30 q 793 35 800 35 l 750 35 l 469 452 l 678 741 q 734 779 703 776 q 750 779 742 779 q 787 814 784 789 l 549 814 l 549 779 l 658 779 l 446 486 l 250 779 l 347 779 l 347 814 l 19 814 l 19 779 l 102 779 l 361 389 l 132 73 q 47 35 103 35 q 14 14 18 35 q 12 0 12 7 l 264 0 z "},"Y":{"ha":758,"x_min":-5,"x_max":758,"o":"m 560 0 q 524 35 549 33 l 450 35 l 450 340 l 651 741 q 723 779 681 776 q 757 800 753 779 q 758 814 758 807 l 517 814 l 517 779 l 625 779 l 425 388 l 212 779 l 315 779 l 315 814 l -5 814 l -5 779 l 66 779 l 320 328 l 320 35 l 210 35 l 210 0 l 560 0 z "},"Ý":{"ha":758,"x_min":-5,"x_max":758,"o":"m 560 0 q 524 35 549 33 l 450 35 l 450 340 l 651 741 q 723 779 681 776 q 757 800 753 779 q 758 814 758 807 l 517 814 l 517 779 l 625 779 l 425 388 l 212 779 l 315 779 l 315 814 l -5 814 l -5 779 l 66 779 l 320 328 l 320 35 l 210 35 l 210 0 l 560 0 m 526 959 q 547 1001 545 977 q 511 1058 547 1036 q 481 1066 495 1066 q 441 1048 460 1065 q 376 958 429 1038 q 294 856 332 895 l 316 831 q 467 920 350 856 q 526 959 510 944 z "},"Ÿ":{"ha":758,"x_min":-5,"x_max":758,"o":"m 560 0 q 524 35 549 33 l 450 35 l 450 340 l 651 741 q 723 779 681 776 q 757 800 753 779 q 758 814 758 807 l 517 814 l 517 779 l 625 779 l 425 388 l 212 779 l 315 779 l 315 814 l -5 814 l -5 779 l 66 779 l 320 328 l 320 35 l 210 35 l 210 0 l 560 0 m 350 951 q 308 1016 350 998 q 278 1023 293 1023 q 212 981 229 1023 q 205 951 205 966 q 248 883 205 902 q 278 878 263 878 q 343 921 326 878 q 350 951 350 936 m 600 951 q 556 1017 600 998 q 526 1023 541 1023 q 460 979 477 1023 q 454 951 454 964 q 499 883 454 901 q 526 878 513 878 q 593 921 575 878 q 600 951 600 935 z "},"Z":{"ha":746,"x_min":33,"x_max":707,"o":"m 704 0 l 707 281 l 675 281 l 644 151 q 511 35 614 37 l 190 35 l 700 785 l 700 814 l 95 814 l 83 568 l 113 568 l 167 690 q 277 779 208 777 l 557 779 l 33 27 l 33 0 l 704 0 z "},"Ź":{"ha":746,"x_min":33,"x_max":707,"o":"m 704 0 l 707 281 l 675 281 l 644 151 q 511 35 614 37 l 190 35 l 700 785 l 700 814 l 95 814 l 83 568 l 113 568 l 167 690 q 277 779 208 777 l 557 779 l 33 27 l 33 0 l 704 0 m 532 959 q 552 1001 551 977 q 517 1058 552 1036 q 487 1066 500 1066 q 446 1048 465 1065 q 381 958 434 1038 q 300 856 338 895 l 321 831 q 472 920 355 856 q 532 959 515 944 z "},"Ž":{"ha":746,"x_min":33,"x_max":707,"o":"m 704 0 l 707 281 l 675 281 l 644 151 q 511 35 614 37 l 190 35 l 700 785 l 700 814 l 95 814 l 83 568 l 113 568 l 167 690 q 277 779 208 777 l 557 779 l 33 27 l 33 0 l 704 0 m 410 856 q 492 909 448 856 q 526 949 503 920 q 604 1040 572 1006 l 585 1062 q 410 963 513 1016 q 232 1063 285 1027 l 213 1039 q 294 945 247 1002 q 376 864 351 876 q 410 856 393 856 z "},"Ż":{"ha":746,"x_min":33,"x_max":707,"o":"m 704 0 l 707 281 l 675 281 l 644 151 q 511 35 614 37 l 190 35 l 700 785 l 700 814 l 95 814 l 83 568 l 113 568 l 167 690 q 277 779 208 777 l 557 779 l 33 27 l 33 0 l 704 0 m 487 948 q 444 1020 487 997 q 408 1028 426 1028 q 336 983 358 1028 q 328 948 328 966 q 374 875 328 897 q 408 868 391 868 q 479 913 457 868 q 487 948 487 930 z "},"a":{"ha":656,"x_min":43,"x_max":650,"o":"m 529 -14 q 646 84 627 -14 q 650 127 648 104 l 614 129 q 563 30 605 31 q 528 99 529 33 l 528 385 q 304 593 525 591 q 95 521 146 593 q 79 475 79 498 q 119 422 79 431 q 137 420 129 420 q 190 464 174 420 q 213 524 209 517 q 290 559 239 559 q 412 418 411 556 l 412 332 q 46 176 75 331 q 43 144 43 161 q 137 0 43 37 q 213 -14 172 -14 q 377 54 312 -14 q 414 110 401 80 q 529 -14 431 -12 m 263 42 q 165 137 178 42 q 164 165 164 151 q 264 281 164 256 q 412 294 317 293 l 412 182 q 315 53 389 88 q 263 42 288 42 z "},"á":{"ha":656,"x_min":43,"x_max":650,"o":"m 529 -14 q 646 84 627 -14 q 650 127 648 104 l 614 129 q 563 30 605 31 q 528 99 529 33 l 528 385 q 304 593 525 591 q 95 521 146 593 q 79 475 79 498 q 119 422 79 431 q 137 420 129 420 q 190 464 174 420 q 213 524 209 517 q 290 559 239 559 q 412 418 411 556 l 412 332 q 46 176 75 331 q 43 144 43 161 q 137 0 43 37 q 213 -14 172 -14 q 377 54 312 -14 q 414 110 401 80 q 529 -14 431 -12 m 263 42 q 165 137 178 42 q 164 165 164 151 q 264 281 164 256 q 412 294 317 293 l 412 182 q 315 53 389 88 q 263 42 288 42 m 453 783 q 473 825 472 800 q 438 882 473 860 q 408 890 422 890 q 368 872 387 888 q 302 781 355 861 q 221 680 259 719 l 243 655 q 393 743 277 680 q 453 783 437 768 z "},"ă":{"ha":656,"x_min":43,"x_max":650,"o":"m 529 -14 q 646 84 627 -14 q 650 127 648 104 l 614 129 q 563 30 605 31 q 528 99 529 33 l 528 385 q 304 593 525 591 q 95 521 146 593 q 79 475 79 498 q 119 422 79 431 q 137 420 129 420 q 190 464 174 420 q 213 524 209 517 q 290 559 239 559 q 412 418 411 556 l 412 332 q 46 176 75 331 q 43 144 43 161 q 137 0 43 37 q 213 -14 172 -14 q 377 54 312 -14 q 414 110 401 80 q 529 -14 431 -12 m 263 42 q 165 137 178 42 q 164 165 164 151 q 264 281 164 256 q 412 294 317 293 l 412 182 q 315 53 389 88 q 263 42 288 42 m 332 781 q 467 861 446 781 q 468 868 468 865 l 496 868 q 410 707 496 747 q 328 690 373 690 q 170 798 205 690 q 159 868 159 831 l 186 868 q 332 781 206 781 z "},"â":{"ha":656,"x_min":43,"x_max":650,"o":"m 529 -14 q 646 84 627 -14 q 650 127 648 104 l 614 129 q 563 30 605 31 q 528 99 529 33 l 528 385 q 304 593 525 591 q 95 521 146 593 q 79 475 79 498 q 119 422 79 431 q 137 420 129 420 q 190 464 174 420 q 213 524 209 517 q 290 559 239 559 q 412 418 411 556 l 412 332 q 46 176 75 331 q 43 144 43 161 q 137 0 43 37 q 213 -14 172 -14 q 377 54 312 -14 q 414 110 401 80 q 529 -14 431 -12 m 263 42 q 165 137 178 42 q 164 165 164 151 q 264 281 164 256 q 412 294 317 293 l 412 182 q 315 53 389 88 q 263 42 288 42 m 494 677 l 510 700 q 410 819 492 719 q 327 875 358 871 q 251 826 292 875 q 224 791 243 815 q 146 699 178 734 l 163 678 q 330 770 232 722 q 494 677 431 719 z "},"´":{"ha":678,"x_min":267,"x_max":519,"o":"m 499 783 q 519 825 518 800 q 484 882 519 860 q 454 890 468 890 q 414 872 433 888 q 349 781 401 861 q 267 680 305 719 l 289 655 q 439 743 323 680 q 499 783 483 768 z "},"ä":{"ha":656,"x_min":43,"x_max":650,"o":"m 529 -14 q 646 84 627 -14 q 650 127 648 104 l 614 129 q 563 30 605 31 q 528 99 529 33 l 528 385 q 304 593 525 591 q 95 521 146 593 q 79 475 79 498 q 119 422 79 431 q 137 420 129 420 q 190 464 174 420 q 213 524 209 517 q 290 559 239 559 q 412 418 411 556 l 412 332 q 46 176 75 331 q 43 144 43 161 q 137 0 43 37 q 213 -14 172 -14 q 377 54 312 -14 q 414 110 401 80 q 529 -14 431 -12 m 263 42 q 165 137 178 42 q 164 165 164 151 q 264 281 164 256 q 412 294 317 293 l 412 182 q 315 53 389 88 q 263 42 288 42 m 277 774 q 235 840 277 822 q 205 846 220 846 q 138 804 156 846 q 132 774 132 789 q 175 707 132 726 q 205 701 190 701 q 270 745 252 701 q 277 774 277 760 m 526 774 q 483 841 526 822 q 453 846 468 846 q 387 803 404 846 q 381 774 381 788 q 426 707 381 724 q 453 701 439 701 q 519 745 502 701 q 526 774 526 758 z "},"æ":{"ha":986,"x_min":42,"x_max":941,"o":"m 692 559 q 812 471 788 559 q 819 420 819 446 q 760 339 819 354 q 666 332 726 331 l 534 336 q 646 552 541 515 q 692 559 667 559 m 933 137 l 898 144 q 760 28 854 49 q 718 24 738 24 q 545 197 579 24 q 534 298 536 243 l 689 296 q 910 331 863 293 q 941 404 941 358 q 844 555 941 500 q 690 593 777 593 q 496 509 571 591 q 307 593 445 593 q 92 521 145 593 q 77 475 77 498 q 118 422 77 431 q 136 420 127 420 q 187 461 171 420 q 210 519 208 515 q 293 559 236 557 q 418 437 408 559 q 418 418 418 426 l 418 332 q 49 194 92 331 q 42 144 42 171 q 138 0 42 37 q 214 -14 174 -14 q 400 73 327 -14 q 442 146 429 109 q 694 -14 502 -12 q 911 94 844 -14 q 933 137 925 115 m 266 42 q 163 149 171 42 q 163 165 163 157 q 271 283 163 258 q 418 296 326 294 l 418 182 q 321 56 397 91 q 266 42 293 42 z "},"à":{"ha":656,"x_min":43,"x_max":650,"o":"m 529 -14 q 646 84 627 -14 q 650 127 648 104 l 614 129 q 563 30 605 31 q 528 99 529 33 l 528 385 q 304 593 525 591 q 95 521 146 593 q 79 475 79 498 q 119 422 79 431 q 137 420 129 420 q 190 464 174 420 q 213 524 209 517 q 290 559 239 559 q 412 418 411 556 l 412 332 q 46 176 75 331 q 43 144 43 161 q 137 0 43 37 q 213 -14 172 -14 q 377 54 312 -14 q 414 110 401 80 q 529 -14 431 -12 m 263 42 q 165 137 178 42 q 164 165 164 151 q 264 281 164 256 q 412 294 317 293 l 412 182 q 315 53 389 88 q 263 42 288 42 m 450 680 q 342 822 411 720 q 302 872 316 859 q 263 890 283 890 q 205 852 225 890 q 198 825 198 838 q 218 783 199 799 q 331 715 235 768 q 429 655 391 682 l 450 680 z "},"ā":{"ha":656,"x_min":43,"x_max":650,"o":"m 529 -14 q 646 84 627 -14 q 650 127 648 104 l 614 129 q 563 30 605 31 q 528 99 529 33 l 528 385 q 304 593 525 591 q 95 521 146 593 q 79 475 79 498 q 119 422 79 431 q 137 420 129 420 q 190 464 174 420 q 213 524 209 517 q 290 559 239 559 q 412 418 411 556 l 412 332 q 46 176 75 331 q 43 144 43 161 q 137 0 43 37 q 213 -14 172 -14 q 377 54 312 -14 q 414 110 401 80 q 529 -14 431 -12 m 263 42 q 165 137 178 42 q 164 165 164 151 q 264 281 164 256 q 412 294 317 293 l 412 182 q 315 53 389 88 q 263 42 288 42 m 125 732 l 537 732 l 537 802 l 125 802 l 125 732 z "},"&":{"ha":802,"x_min":45,"x_max":817,"o":"m 312 685 q 374 787 312 764 q 410 792 392 792 q 503 726 484 792 q 507 692 507 709 q 442 579 507 629 q 358 537 406 551 q 312 685 312 632 m 365 27 q 174 222 194 27 q 171 274 171 248 q 239 449 171 396 q 274 467 256 461 q 538 88 362 297 q 365 27 461 27 m 713 433 l 712 433 l 716 433 l 758 434 q 793 450 789 434 q 796 471 796 460 l 601 471 l 601 435 l 675 435 q 612 176 675 285 q 374 507 452 369 q 528 625 484 540 q 545 692 545 659 q 468 814 545 781 q 401 827 437 827 q 229 741 275 827 q 210 659 210 704 q 259 496 212 597 q 54 312 92 449 q 45 239 45 277 q 138 43 45 115 q 321 -14 213 -14 q 562 62 467 -12 q 617 0 581 39 l 817 0 q 795 34 817 31 q 783 35 789 35 l 738 35 q 637 146 670 110 q 713 433 713 264 z "},"ං":{"ha":481,"x_min":39,"x_max":419,"o":"m 92 237 q 155 127 92 167 q 229 106 189 106 q 345 168 305 106 q 365 237 365 201 q 301 349 365 311 q 229 368 267 368 q 113 307 152 368 q 92 237 92 274 m 39 218 q 115 366 39 311 q 229 404 167 404 q 382 328 326 404 q 419 218 419 278 q 343 71 419 126 q 229 33 292 33 q 76 109 133 33 q 39 218 39 159 z "},"ą":{"ha":656,"x_min":43,"x_max":650,"o":"m 263 42 q 165 137 178 42 q 164 165 164 151 q 264 281 164 256 q 412 294 317 293 l 412 182 q 315 53 389 88 q 263 42 288 42 m 544 -220 q 490 -167 496 -220 q 488 -152 488 -159 q 559 -33 488 -85 q 618 0 586 -14 l 617 12 l 608 11 q 650 127 646 45 l 614 129 q 563 30 605 31 q 528 99 529 33 l 528 385 q 304 593 525 591 q 95 521 146 593 q 79 475 79 498 q 119 422 79 431 q 137 420 129 420 q 190 464 174 420 q 213 524 209 517 q 290 559 239 559 q 412 418 411 556 l 412 332 q 46 176 75 331 q 43 144 43 161 q 137 0 43 37 q 213 -14 172 -14 q 377 54 312 -14 q 414 110 401 80 q 518 -14 431 -5 q 378 -140 393 -58 q 377 -157 377 -149 q 444 -247 377 -220 q 510 -259 473 -259 q 633 -209 587 -258 l 617 -189 q 544 -220 579 -220 z "},"≈":{"ha":667,"x_min":52,"x_max":616,"o":"m 217 518 q 363 468 269 518 q 476 426 441 426 q 583 521 547 429 l 616 511 q 509 355 591 391 q 458 346 483 346 q 309 396 407 346 q 189 438 227 438 q 85 346 119 435 l 52 355 q 176 513 81 486 q 217 518 197 518 m 217 301 q 363 251 269 301 q 476 209 441 209 q 583 302 548 212 l 616 292 q 506 137 591 170 q 458 129 483 129 q 309 179 407 129 q 189 221 227 221 q 85 126 121 218 l 52 137 q 175 294 81 267 q 217 301 195 301 z "},"å":{"ha":656,"x_min":43,"x_max":650,"o":"m 529 -14 q 646 84 627 -14 q 650 127 648 104 l 614 129 q 563 30 605 31 q 528 99 529 33 l 528 385 q 304 593 525 591 q 95 521 146 593 q 79 475 79 498 q 119 422 79 431 q 137 420 129 420 q 190 464 174 420 q 213 524 209 517 q 290 559 239 559 q 412 418 411 556 l 412 332 q 46 176 75 331 q 43 144 43 161 q 137 0 43 37 q 213 -14 172 -14 q 377 54 312 -14 q 414 110 401 80 q 529 -14 431 -12 m 263 42 q 165 137 178 42 q 164 165 164 151 q 264 281 164 256 q 412 294 317 293 l 412 182 q 315 53 389 88 q 263 42 288 42 m 263 777 q 315 871 263 860 q 328 872 321 872 q 393 799 385 872 q 395 780 395 789 q 350 689 395 707 q 328 685 339 685 q 263 777 264 686 m 332 903 q 194 831 228 903 q 183 780 183 807 q 255 667 183 699 q 326 654 288 654 q 461 727 426 654 q 473 781 473 753 q 403 890 473 859 q 332 903 370 903 z "},"^":{"ha":745,"x_min":115,"x_max":629,"o":"m 115 452 l 155 426 l 373 777 l 590 426 l 629 452 l 385 846 l 359 846 l 115 452 z "},"~":{"ha":667,"x_min":52,"x_max":616,"o":"m 217 423 q 362 373 269 423 q 476 330 441 330 q 583 423 548 332 l 616 414 q 509 256 591 292 q 458 247 483 247 q 309 297 407 247 q 189 339 227 339 q 85 247 119 336 l 52 258 q 174 416 81 387 q 217 423 195 423 z "},"*":{"ha":465,"x_min":31,"x_max":435,"o":"m 233 882 q 183 848 191 882 q 182 837 182 841 q 205 747 182 825 q 221 681 217 709 q 142 760 202 696 q 81 799 104 798 q 37 762 52 799 q 33 742 33 751 q 54 704 34 716 q 145 680 64 699 q 209 661 182 670 q 92 628 187 652 q 54 614 66 621 q 31 579 33 601 q 60 528 31 547 q 83 521 71 521 q 156 574 107 521 q 221 639 199 621 q 190 522 218 618 q 182 481 182 495 q 232 438 191 444 q 285 483 281 445 q 262 571 285 495 q 245 640 250 610 q 321 564 262 628 q 384 521 362 521 q 430 556 416 521 q 434 578 434 568 q 411 616 433 604 q 321 640 401 621 q 259 659 285 650 q 372 690 275 666 q 412 705 400 699 q 435 741 435 719 q 407 792 435 773 q 382 799 395 799 q 312 747 358 799 q 245 681 269 699 q 277 795 248 700 q 285 838 285 823 q 233 882 275 876 z "},"@":{"ha":1210,"x_min":83,"x_max":1120,"o":"m 909 -160 l 892 -126 q 654 -183 774 -183 q 332 -53 463 -183 q 198 294 198 84 q 323 640 198 513 q 610 753 434 753 q 901 629 785 753 q 1023 279 1023 499 q 943 68 1023 123 q 884 47 916 47 q 818 127 819 50 l 818 376 q 612 566 815 564 q 419 498 465 566 q 407 458 407 479 q 441 411 407 420 q 458 408 450 408 q 518 452 505 408 q 524 469 519 457 q 559 526 534 515 q 598 534 575 534 q 704 407 703 532 l 704 330 q 389 229 444 327 q 373 157 373 198 q 469 23 373 53 q 529 15 498 15 q 680 83 623 15 q 704 122 694 102 q 822 18 719 37 q 871 14 846 14 q 1061 106 990 14 q 1120 297 1120 183 q 936 696 1120 560 q 623 791 803 791 q 197 605 346 791 q 83 260 83 463 q 248 -104 83 35 q 613 -232 400 -232 q 909 -160 768 -232 m 574 66 q 496 136 513 66 q 492 178 492 156 q 621 288 492 269 q 704 294 658 293 l 704 195 q 614 75 681 104 q 574 66 594 66 z "},"ã":{"ha":656,"x_min":43,"x_max":650,"o":"m 529 -14 q 646 84 627 -14 q 650 127 648 104 l 614 129 q 563 30 605 31 q 528 99 529 33 l 528 385 q 304 593 525 591 q 95 521 146 593 q 79 475 79 498 q 119 422 79 431 q 137 420 129 420 q 190 464 174 420 q 213 524 209 517 q 290 559 239 559 q 412 418 411 556 l 412 332 q 46 176 75 331 q 43 144 43 161 q 137 0 43 37 q 213 -14 172 -14 q 377 54 312 -14 q 414 110 401 80 q 529 -14 431 -12 m 263 42 q 165 137 178 42 q 164 165 164 151 q 264 281 164 256 q 412 294 317 293 l 412 182 q 315 53 389 88 q 263 42 288 42 m 259 864 q 359 819 300 864 q 435 783 408 783 q 507 854 487 783 q 509 860 509 857 l 537 853 q 414 703 509 704 q 315 746 373 703 q 237 783 266 783 q 167 718 187 783 q 164 707 165 712 l 137 712 q 259 864 165 863 z "},"b":{"ha":747,"x_min":33,"x_max":697,"o":"m 419 -14 q 621 77 540 -14 q 697 298 697 164 q 610 536 697 453 q 464 593 549 593 q 251 453 315 593 q 245 441 248 446 l 245 882 l 33 882 l 33 848 l 129 848 l 129 114 q 94 41 129 53 q 33 34 73 34 l 33 0 l 210 0 l 222 91 q 419 -14 289 -12 m 416 536 q 557 393 526 536 q 567 288 567 346 q 467 37 567 92 q 401 20 437 20 q 264 127 305 20 q 244 262 244 184 q 326 502 244 430 q 416 536 366 536 z "},"\\":{"ha":564,"x_min":-20,"x_max":530,"o":"m 442 -210 l -20 963 l 68 963 l 530 -210 l 442 -210 z "},"|":{"ha":372,"x_min":144,"x_max":228,"o":"m 144 -184 l 144 882 l 228 882 l 228 -184 l 144 -184 z "},"{":{"ha":543,"x_min":106,"x_max":515,"o":"m 324 201 l 324 -4 q 358 -121 324 -95 q 515 -146 395 -146 l 515 -184 q 289 -163 342 -184 q 210 -33 218 -133 q 209 5 209 -14 l 209 208 q 174 307 209 282 q 106 331 151 321 l 106 359 q 199 415 182 376 q 209 483 209 439 l 209 685 q 274 845 209 808 q 484 875 324 873 q 515 875 498 875 l 515 837 q 354 807 387 837 q 324 694 324 779 l 324 490 q 256 366 324 403 q 221 349 243 358 l 221 342 q 308 278 288 313 q 324 201 324 245 z "},"}":{"ha":532,"x_min":27,"x_max":437,"o":"m 218 487 l 218 692 q 184 808 218 783 q 27 834 148 834 l 27 872 q 254 850 201 872 q 332 720 324 821 q 334 682 334 701 l 334 480 q 369 381 334 406 q 437 357 392 366 l 437 328 q 343 273 361 312 q 334 205 334 248 l 334 3 q 269 -157 334 -121 q 58 -187 218 -186 q 27 -187 45 -187 l 27 -149 q 189 -119 156 -149 q 218 -7 218 -91 l 218 198 q 286 321 218 285 q 321 339 300 330 l 321 346 q 235 410 255 374 q 218 487 218 442 z "},"[":{"ha":481,"x_min":117,"x_max":453,"o":"m 453 -184 l 117 -184 l 117 875 l 453 875 l 453 837 l 237 837 l 237 -144 l 453 -146 l 453 -184 z "},"]":{"ha":499,"x_min":46,"x_max":382,"o":"m 46 -184 l 382 -184 l 382 875 l 46 875 l 46 837 l 262 837 l 262 -144 l 46 -146 l 46 -184 z "},"˘":{"ha":678,"x_min":171,"x_max":509,"o":"m 345 781 q 479 861 458 781 q 480 868 480 865 l 509 868 q 422 707 509 747 q 340 690 385 690 q 182 798 217 690 q 171 868 171 831 l 198 868 q 345 781 218 781 z "},"¦":{"ha":372,"x_min":144,"x_max":228,"o":"m 228 427 l 228 882 l 144 882 l 144 427 l 228 427 m 228 -184 l 228 270 l 144 270 l 144 -184 l 228 -184 z "},"•":{"ha":492,"x_min":123,"x_max":369,"o":"m 369 309 q 309 416 369 381 q 247 434 279 434 q 142 376 178 434 q 123 309 123 345 q 183 205 123 240 q 247 187 213 187 q 351 245 315 187 q 369 309 369 275 z "},"c":{"ha":595,"x_min":52,"x_max":589,"o":"m 52 285 q 178 33 52 113 q 346 -14 251 -14 q 560 84 488 -14 q 589 133 578 107 l 553 144 q 399 27 506 45 q 363 24 381 24 q 213 127 263 24 q 180 293 180 195 q 293 548 180 503 q 350 559 320 559 q 435 500 420 559 q 441 468 438 491 q 472 397 449 411 q 506 388 486 389 q 570 430 557 387 q 572 448 572 439 q 488 559 572 514 q 345 593 423 593 q 96 461 174 593 q 52 285 52 384 z "},"ć":{"ha":595,"x_min":52,"x_max":589,"o":"m 52 285 q 178 33 52 113 q 346 -14 251 -14 q 560 84 488 -14 q 589 133 578 107 l 553 144 q 399 27 506 45 q 363 24 381 24 q 213 127 263 24 q 180 293 180 195 q 293 548 180 503 q 350 559 320 559 q 435 500 420 559 q 441 468 438 491 q 472 397 449 411 q 506 388 486 389 q 570 430 557 387 q 572 448 572 439 q 488 559 572 514 q 345 593 423 593 q 96 461 174 593 q 52 285 52 384 m 458 783 q 479 825 477 800 q 444 882 479 860 q 414 890 427 890 q 373 872 392 888 q 308 781 361 861 q 227 680 264 719 l 248 655 q 399 743 282 680 q 458 783 442 768 z "},"ˇ":{"ha":678,"x_min":144,"x_max":534,"o":"m 340 680 q 423 732 378 680 q 457 773 434 743 q 534 864 503 830 l 515 886 q 340 787 444 840 q 163 887 216 850 l 144 863 q 225 769 178 826 q 307 688 282 700 q 340 680 324 680 z "},"č":{"ha":595,"x_min":52,"x_max":589,"o":"m 52 285 q 178 33 52 113 q 346 -14 251 -14 q 560 84 488 -14 q 589 133 578 107 l 553 144 q 399 27 506 45 q 363 24 381 24 q 213 127 263 24 q 180 293 180 195 q 293 548 180 503 q 350 559 320 559 q 435 500 420 559 q 441 468 438 491 q 472 397 449 411 q 506 388 486 389 q 570 430 557 387 q 572 448 572 439 q 488 559 572 514 q 345 593 423 593 q 96 461 174 593 q 52 285 52 384 m 335 680 q 418 732 373 680 q 452 773 429 743 q 529 864 498 830 l 510 886 q 335 787 438 840 q 157 887 210 850 l 138 863 q 220 769 172 826 q 301 688 277 700 q 335 680 319 680 z "},"ç":{"ha":595,"x_min":52,"x_max":589,"o":"m 52 285 q 176 33 52 114 q 277 -7 222 4 l 222 -115 l 241 -127 q 309 -104 274 -104 q 378 -165 370 -104 q 380 -182 380 -174 q 326 -270 380 -254 q 304 -273 315 -273 q 210 -220 251 -271 l 189 -236 q 332 -308 236 -307 q 472 -248 427 -308 q 492 -184 492 -218 q 418 -83 492 -113 q 349 -69 385 -69 q 277 -84 312 -69 l 309 -12 q 346 -14 323 -14 q 560 84 488 -14 q 589 133 578 107 l 553 144 q 399 27 506 45 q 363 24 381 24 q 213 127 263 24 q 180 293 180 195 q 293 548 180 503 q 350 559 320 559 q 435 500 420 559 q 441 468 438 491 q 472 397 449 411 q 506 388 486 389 q 570 430 557 387 q 572 448 572 439 q 488 559 572 514 q 345 593 423 593 q 96 461 174 593 q 52 285 52 384 z "},"¸":{"ha":678,"x_min":187,"x_max":491,"o":"m 221 -115 l 240 -127 q 308 -104 273 -104 q 377 -165 369 -104 q 378 -182 378 -174 q 324 -270 378 -254 q 302 -273 313 -273 q 209 -220 250 -271 l 187 -236 q 331 -308 235 -307 q 471 -248 426 -308 q 491 -184 491 -218 q 416 -83 491 -113 q 347 -69 384 -69 q 275 -84 311 -69 l 316 5 l 281 5 l 221 -115 z "},"¢":{"ha":627,"x_min":52,"x_max":589,"o":"m 52 370 q 176 119 52 199 q 317 73 239 80 l 317 -27 l 357 -27 l 357 72 q 568 180 502 77 q 589 221 581 201 l 553 229 q 410 114 510 134 q 363 109 387 109 l 357 109 l 357 644 q 438 587 425 644 q 444 555 441 576 q 472 483 450 498 q 506 473 487 475 q 570 515 557 472 q 572 533 572 525 q 488 644 572 600 q 357 678 429 674 l 357 773 l 317 773 l 317 677 q 88 533 157 667 q 52 370 52 461 m 179 378 q 298 636 179 594 q 317 642 308 640 l 317 115 q 189 282 217 145 q 179 378 179 327 z "},"ˆ":{"ha":678,"x_min":157,"x_max":521,"o":"m 505 677 l 521 700 q 420 819 503 719 q 338 875 369 871 q 262 826 302 875 q 235 791 254 815 q 157 699 189 734 l 174 678 q 340 770 243 722 q 505 677 442 719 z "},":":{"ha":281,"x_min":68,"x_max":213,"o":"m 213 453 q 171 519 213 499 q 140 526 156 526 q 75 484 95 526 q 68 453 68 469 q 109 388 68 408 q 140 381 123 381 q 206 422 186 381 q 213 453 213 438 m 213 138 q 171 205 213 184 q 140 212 156 212 q 75 170 95 212 q 68 138 68 153 q 109 72 68 92 q 140 65 125 65 q 206 107 186 65 q 213 138 213 122 z "},",":{"ha":260,"x_min":61,"x_max":212,"o":"m 212 54 q 156 145 212 129 q 132 149 144 149 q 68 106 87 149 q 61 75 61 91 q 106 11 61 28 q 119 7 113 8 q 152 -19 151 -1 q 94 -117 151 -57 l 122 -137 q 212 54 206 -41 z "},"":{"ha":678,"x_min":258,"x_max":420,"o":"m 420 -151 q 362 -53 420 -72 q 334 -49 349 -49 q 264 -94 285 -49 q 258 -127 258 -111 q 311 -198 258 -180 q 323 -202 317 -201 q 357 -228 355 -210 q 293 -335 355 -267 l 324 -357 q 420 -151 414 -251 z "},"©":{"ha":888,"x_min":57,"x_max":831,"o":"m 831 373 q 713 655 831 544 q 445 758 605 758 q 149 629 262 758 q 57 373 57 522 q 176 90 57 201 q 445 -14 286 -14 q 736 114 625 -14 q 831 373 831 222 m 99 373 q 213 639 99 540 q 445 722 308 722 q 713 600 614 722 q 791 373 791 503 q 680 110 791 212 q 445 23 583 23 q 175 146 274 23 q 99 373 99 243 m 452 617 q 255 513 321 617 q 216 372 216 450 q 304 182 216 250 q 452 134 366 134 q 631 227 575 134 q 642 245 637 236 l 613 258 q 473 170 566 174 q 354 281 387 170 q 340 384 340 327 q 399 563 340 513 q 452 583 423 583 q 511 538 500 583 q 515 514 513 530 q 545 452 524 464 q 582 444 560 444 q 637 491 632 452 q 553 597 637 560 q 452 617 506 617 z "},"¤":{"ha":819,"x_min":76,"x_max":732,"o":"m 403 149 q 235 231 297 149 q 189 381 189 292 q 290 581 189 519 q 401 610 342 610 q 567 530 506 610 q 614 380 614 468 q 510 178 614 239 q 403 149 461 149 m 400 104 q 581 170 506 106 l 697 52 l 730 84 l 612 203 q 669 382 669 277 q 616 553 667 483 l 732 670 l 700 704 l 585 589 q 404 655 511 655 q 225 590 298 654 l 109 705 l 76 673 l 193 557 q 134 378 134 483 q 194 198 136 269 l 79 83 l 113 50 l 227 164 q 400 104 301 104 z "},"d":{"ha":750,"x_min":52,"x_max":719,"o":"m 515 0 l 719 0 q 701 33 719 28 q 686 34 694 34 l 618 34 l 617 882 l 373 882 l 373 848 l 500 848 l 500 524 q 324 593 433 593 q 103 469 180 593 q 52 275 52 384 q 159 30 52 109 q 292 -14 218 -14 q 503 141 441 -11 l 515 0 m 180 292 q 278 538 180 481 q 349 557 309 557 q 484 450 445 557 q 505 317 505 393 q 422 75 505 146 q 332 42 382 42 q 194 175 228 42 q 180 292 180 227 z "},"†":{"ha":628,"x_min":71,"x_max":557,"o":"m 315 742 q 260 694 266 734 q 283 591 260 682 q 298 515 294 548 q 163 547 277 518 q 118 553 133 553 q 71 502 73 548 q 119 449 80 454 q 224 472 130 449 q 313 488 275 486 q 464 457 346 486 q 511 449 496 449 q 557 500 553 456 q 510 553 553 551 q 403 530 499 553 q 330 515 361 519 q 359 648 332 536 q 368 696 368 680 q 315 742 362 739 m 315 452 q 256 406 264 452 q 255 392 255 399 q 271 266 255 381 q 297 -107 290 122 l 332 -107 q 369 338 340 130 q 373 393 373 372 q 315 452 366 448 z "},"‡":{"ha":625,"x_min":69,"x_max":556,"o":"m 313 742 q 259 694 264 734 q 282 591 259 682 q 297 515 293 548 q 161 547 275 518 q 117 553 132 553 q 69 502 72 548 q 118 449 79 454 q 222 472 129 449 q 312 488 274 486 q 463 457 345 486 q 510 449 495 449 q 556 500 552 456 q 509 553 552 551 q 401 530 498 553 q 328 515 359 519 q 358 648 331 536 q 366 696 366 680 q 313 742 361 739 m 312 -90 q 368 -42 363 -83 q 345 61 368 -30 q 330 137 334 104 q 467 106 351 134 q 510 99 496 99 q 556 151 552 106 q 509 203 552 201 q 404 180 498 203 q 315 164 351 167 q 164 195 281 167 q 117 203 132 203 q 69 152 72 198 q 118 99 79 104 q 222 122 127 99 q 297 136 264 132 q 267 3 294 111 q 259 -43 259 -28 q 312 -90 264 -87 m 385 327 q 343 395 385 374 q 312 401 328 401 q 245 358 266 401 q 239 327 239 343 q 281 260 239 281 q 312 254 297 254 q 378 296 358 254 q 385 327 385 311 z "},"ď":{"ha":762,"x_min":52,"x_max":819,"o":"m 515 0 l 719 0 q 701 33 719 28 q 686 34 694 34 l 618 34 l 617 882 l 373 882 l 373 848 l 500 848 l 500 524 q 324 593 433 593 q 103 469 180 593 q 52 275 52 384 q 159 30 52 109 q 292 -14 218 -14 q 503 141 441 -11 l 515 0 m 180 292 q 278 538 180 481 q 349 557 309 557 q 484 450 445 557 q 505 317 505 393 q 422 75 505 146 q 332 42 382 42 q 194 175 228 42 q 180 292 180 227 m 819 795 q 761 892 819 873 q 732 897 747 897 q 663 852 684 897 q 656 818 656 836 q 711 747 656 765 q 722 745 716 746 q 755 718 754 734 q 694 614 755 680 q 692 612 693 613 l 723 590 q 819 781 811 680 q 819 795 819 788 z "},"đ":{"ha":750,"x_min":52,"x_max":719,"o":"m 250 690 l 500 690 l 500 524 q 324 593 433 593 q 103 469 180 593 q 52 275 52 384 q 159 30 52 109 q 292 -14 218 -14 q 503 141 441 -11 l 515 0 l 719 0 q 701 33 719 28 q 686 34 694 34 l 618 34 l 617 690 l 719 690 l 719 735 l 617 735 l 617 882 l 373 882 l 373 848 l 500 848 l 500 735 l 250 735 l 250 690 m 180 292 q 278 538 180 481 q 349 557 309 557 q 484 450 445 557 q 505 317 505 393 q 422 75 505 146 q 332 42 382 42 q 194 175 228 42 q 180 292 180 227 z "},"°":{"ha":399,"x_min":65,"x_max":334,"o":"m 106 735 q 156 825 106 798 q 199 836 178 836 q 281 785 254 836 q 293 735 293 762 q 241 651 293 677 q 199 642 221 642 q 115 693 141 642 q 106 735 106 713 m 334 735 q 273 849 334 808 q 199 872 239 872 q 87 810 127 872 q 65 735 65 774 q 127 624 65 662 q 199 605 161 605 q 313 666 274 605 q 334 735 334 699 z "},"¨":{"ha":678,"x_min":142,"x_max":537,"o":"m 288 774 q 245 840 288 822 q 216 846 231 846 q 149 804 167 846 q 142 774 142 789 q 186 707 142 726 q 216 701 201 701 q 281 745 263 701 q 288 774 288 760 m 537 774 q 494 841 537 822 q 464 846 479 846 q 397 803 415 846 q 392 774 392 788 q 437 707 392 724 q 464 701 450 701 q 530 745 513 701 q 537 774 537 758 z "},"÷":{"ha":631,"x_min":57,"x_max":574,"o":"m 574 292 l 574 343 l 57 343 l 57 292 l 574 292 m 263 123 q 307 167 270 156 q 339 165 324 170 q 382 123 373 159 q 382 92 387 107 q 335 47 373 54 q 305 49 319 45 q 267 75 282 54 q 263 123 255 98 m 263 532 q 307 575 270 564 q 339 574 324 578 q 382 532 373 567 q 382 500 387 515 q 335 456 373 463 q 305 457 319 453 q 267 483 282 463 q 263 532 255 506 z "},"$":{"ha":736,"x_min":65,"x_max":671,"o":"m 221 659 q 307 779 221 749 q 355 788 330 785 l 355 496 q 224 631 239 555 q 221 659 221 646 m 544 178 q 395 28 541 47 l 395 347 q 536 224 513 292 q 544 178 544 201 m 395 -123 l 395 -11 q 633 98 563 1 q 671 216 671 149 q 544 406 671 331 q 395 477 515 422 l 395 789 q 495 720 473 784 q 505 686 499 709 q 540 614 517 629 q 587 604 559 604 q 654 678 648 613 q 544 800 654 758 q 395 827 477 826 l 395 948 l 355 948 l 355 826 q 134 731 205 815 q 94 618 94 682 q 222 429 94 505 q 355 365 258 408 l 355 26 l 349 26 q 240 92 262 26 q 229 134 235 106 q 195 213 218 195 q 142 227 175 227 q 68 170 81 227 q 65 145 65 157 q 172 20 65 65 q 354 -12 250 -12 l 355 -12 l 355 -123 l 395 -123 z "},"˙":{"ha":388,"x_min":113,"x_max":271,"o":"m 271 772 q 228 844 271 821 q 193 852 210 852 q 121 807 142 852 q 113 772 113 789 q 159 699 113 720 q 193 692 175 692 q 263 736 241 692 q 271 772 271 754 z "},"ı":{"ha":388,"x_min":38,"x_max":357,"o":"m 324 35 l 259 35 l 259 578 l 38 578 l 38 543 l 136 543 l 136 106 q 38 35 129 37 l 38 0 l 357 0 q 339 34 357 31 q 324 35 332 35 z "},"◌":{"ha":738,"x_min":64,"x_max":665,"o":"m 138 127 q 171 159 142 157 q 202 130 202 159 q 202 127 202 129 q 171 95 198 96 q 138 127 136 95 m 81 217 q 114 250 84 250 q 144 217 144 247 q 113 184 140 186 q 81 217 81 187 m 225 71 q 256 102 229 100 q 289 71 289 99 q 255 38 285 39 q 225 71 225 41 m 326 49 q 358 81 328 81 q 388 49 388 79 q 357 18 384 19 q 326 46 326 18 q 326 49 326 47 m 64 317 q 95 350 66 349 q 127 317 130 350 q 95 286 123 288 q 64 317 65 289 m 85 419 q 119 452 90 450 q 148 419 149 449 q 119 387 144 388 q 85 419 85 389 m 430 71 q 463 102 434 100 q 494 73 494 102 q 494 71 494 72 q 461 38 491 38 q 430 71 430 41 m 145 509 q 179 540 149 538 q 209 509 209 537 q 176 477 205 479 q 145 509 145 480 m 519 127 q 551 159 524 157 q 582 130 582 159 q 582 127 582 129 q 549 95 581 95 q 519 127 519 98 m 233 567 q 266 598 237 597 q 297 570 297 598 q 297 567 297 568 q 264 534 296 534 q 233 567 233 537 m 578 217 q 610 250 582 248 q 643 217 646 250 q 608 184 639 186 q 578 217 576 187 m 336 586 q 368 618 340 617 q 399 586 399 616 q 368 553 395 555 q 336 586 336 556 m 598 317 q 632 350 601 349 q 663 317 663 347 q 632 286 659 288 q 598 317 600 289 m 438 567 q 472 598 442 597 q 502 570 503 598 q 502 567 502 568 q 471 534 498 536 q 438 567 438 537 m 582 419 q 614 452 583 452 q 647 419 648 452 q 613 387 643 388 q 582 419 582 389 m 525 509 q 557 540 529 538 q 590 509 590 537 q 556 477 586 479 q 525 509 525 480 z "},"e":{"ha":632,"x_min":52,"x_max":589,"o":"m 339 559 q 458 475 431 559 q 467 420 467 449 q 407 339 467 354 q 313 332 373 331 l 180 336 q 278 544 186 496 q 339 559 307 559 m 579 132 l 545 144 q 407 28 502 49 q 365 24 385 24 q 189 206 221 24 q 180 298 182 248 l 336 296 q 557 331 510 293 q 589 404 589 358 q 491 556 589 500 q 336 593 423 593 q 95 461 172 593 q 52 286 52 385 q 178 31 52 113 q 340 -14 250 -14 q 562 96 492 -14 q 579 132 571 114 z "},"é":{"ha":632,"x_min":52,"x_max":589,"o":"m 339 559 q 458 475 431 559 q 467 420 467 449 q 407 339 467 354 q 313 332 373 331 l 180 336 q 278 544 186 496 q 339 559 307 559 m 579 132 l 545 144 q 407 28 502 49 q 365 24 385 24 q 189 206 221 24 q 180 298 182 248 l 336 296 q 557 331 510 293 q 589 404 589 358 q 491 556 589 500 q 336 593 423 593 q 95 461 172 593 q 52 286 52 385 q 178 31 52 113 q 340 -14 250 -14 q 562 96 492 -14 q 579 132 571 114 m 442 783 q 463 825 461 800 q 427 882 463 860 q 397 890 411 890 q 357 872 376 888 q 292 781 345 861 q 210 680 248 719 l 232 655 q 382 743 266 680 q 442 783 426 768 z "},"ě":{"ha":632,"x_min":52,"x_max":589,"o":"m 339 559 q 458 475 431 559 q 467 420 467 449 q 407 339 467 354 q 313 332 373 331 l 180 336 q 278 544 186 496 q 339 559 307 559 m 579 132 l 545 144 q 407 28 502 49 q 365 24 385 24 q 189 206 221 24 q 180 298 182 248 l 336 296 q 557 331 510 293 q 589 404 589 358 q 491 556 589 500 q 336 593 423 593 q 95 461 172 593 q 52 286 52 385 q 178 31 52 113 q 340 -14 250 -14 q 562 96 492 -14 q 579 132 571 114 m 319 680 q 401 732 357 680 q 435 773 412 743 q 513 864 481 830 l 494 886 q 319 787 422 840 q 141 887 194 850 l 122 863 q 203 769 156 826 q 285 688 260 700 q 319 680 302 680 z "},"ê":{"ha":632,"x_min":52,"x_max":589,"o":"m 339 559 q 458 475 431 559 q 467 420 467 449 q 407 339 467 354 q 313 332 373 331 l 180 336 q 278 544 186 496 q 339 559 307 559 m 579 132 l 545 144 q 407 28 502 49 q 365 24 385 24 q 189 206 221 24 q 180 298 182 248 l 336 296 q 557 331 510 293 q 589 404 589 358 q 491 556 589 500 q 336 593 423 593 q 95 461 172 593 q 52 286 52 385 q 178 31 52 113 q 340 -14 250 -14 q 562 96 492 -14 q 579 132 571 114 m 483 677 l 499 700 q 399 819 481 719 q 316 875 347 871 q 240 826 281 875 q 213 791 232 815 q 136 699 167 734 l 152 678 q 319 770 221 722 q 483 677 420 719 z "},"ë":{"ha":632,"x_min":52,"x_max":589,"o":"m 339 559 q 458 475 431 559 q 467 420 467 449 q 407 339 467 354 q 313 332 373 331 l 180 336 q 278 544 186 496 q 339 559 307 559 m 579 132 l 545 144 q 407 28 502 49 q 365 24 385 24 q 189 206 221 24 q 180 298 182 248 l 336 296 q 557 331 510 293 q 589 404 589 358 q 491 556 589 500 q 336 593 423 593 q 95 461 172 593 q 52 286 52 385 q 178 31 52 113 q 340 -14 250 -14 q 562 96 492 -14 q 579 132 571 114 m 266 774 q 224 840 266 822 q 194 846 209 846 q 127 804 145 846 q 121 774 121 789 q 164 707 121 726 q 194 701 179 701 q 259 745 241 701 q 266 774 266 760 m 515 774 q 472 841 515 822 q 442 846 457 846 q 376 803 393 846 q 370 774 370 788 q 415 707 370 724 q 442 701 429 701 q 509 745 491 701 q 515 774 515 758 z "},"ė":{"ha":632,"x_min":52,"x_max":589,"o":"m 339 559 q 458 475 431 559 q 467 420 467 449 q 407 339 467 354 q 313 332 373 331 l 180 336 q 278 544 186 496 q 339 559 307 559 m 579 132 l 545 144 q 407 28 502 49 q 365 24 385 24 q 189 206 221 24 q 180 298 182 248 l 336 296 q 557 331 510 293 q 589 404 589 358 q 491 556 589 500 q 336 593 423 593 q 95 461 172 593 q 52 286 52 385 q 178 31 52 113 q 340 -14 250 -14 q 562 96 492 -14 q 579 132 571 114 m 396 772 q 353 844 396 821 q 317 852 335 852 q 245 807 267 852 q 237 772 237 789 q 283 699 237 720 q 317 692 300 692 q 388 736 366 692 q 396 772 396 754 z "},"è":{"ha":632,"x_min":52,"x_max":589,"o":"m 339 559 q 458 475 431 559 q 467 420 467 449 q 407 339 467 354 q 313 332 373 331 l 180 336 q 278 544 186 496 q 339 559 307 559 m 579 132 l 545 144 q 407 28 502 49 q 365 24 385 24 q 189 206 221 24 q 180 298 182 248 l 336 296 q 557 331 510 293 q 589 404 589 358 q 491 556 589 500 q 336 593 423 593 q 95 461 172 593 q 52 286 52 385 q 178 31 52 113 q 340 -14 250 -14 q 562 96 492 -14 q 579 132 571 114 m 439 680 q 331 822 400 720 q 292 872 305 859 q 252 890 273 890 q 194 852 214 890 q 187 825 187 838 q 208 783 189 799 q 320 715 224 768 q 418 655 380 682 l 439 680 z "},"…":{"ha":810,"x_min":66,"x_max":747,"o":"m 481 68 q 439 136 481 115 q 407 144 423 144 q 340 102 361 144 q 332 68 332 85 q 376 0 332 20 q 407 -7 391 -7 q 475 37 454 -7 q 481 68 481 52 m 747 68 q 705 136 747 115 q 673 144 689 144 q 606 102 627 144 q 598 68 598 84 q 642 0 598 20 q 673 -7 656 -7 q 741 37 720 -7 q 747 68 747 52 m 216 68 q 174 136 216 115 q 141 144 157 144 q 75 102 95 144 q 66 68 66 84 q 110 0 66 20 q 141 -7 125 -7 q 209 37 189 -7 q 216 68 216 52 z "},"ē":{"ha":632,"x_min":52,"x_max":589,"o":"m 339 559 q 458 475 431 559 q 467 420 467 449 q 407 339 467 354 q 313 332 373 331 l 180 336 q 278 544 186 496 q 339 559 307 559 m 579 132 l 545 144 q 407 28 502 49 q 365 24 385 24 q 189 206 221 24 q 180 298 182 248 l 336 296 q 557 331 510 293 q 589 404 589 358 q 491 556 589 500 q 336 593 423 593 q 95 461 172 593 q 52 286 52 385 q 178 31 52 113 q 340 -14 250 -14 q 562 96 492 -14 q 579 132 571 114 m 114 732 l 526 732 l 526 802 l 114 802 l 114 732 z "},"—":{"ha":1175,"x_min":122,"x_max":1053,"o":"m 122 270 l 1053 270 l 1053 326 l 122 326 l 122 270 z "},"–":{"ha":903,"x_min":122,"x_max":781,"o":"m 122 270 l 781 270 l 781 326 l 122 326 l 122 270 z "},"ę":{"ha":632,"x_min":52,"x_max":589,"o":"m 339 559 q 458 475 431 559 q 467 420 467 449 q 407 339 467 354 q 313 332 373 331 l 180 336 q 278 544 186 496 q 339 559 307 559 m 579 132 l 545 144 q 407 28 502 49 q 365 24 385 24 q 189 206 221 24 q 180 298 182 248 l 336 296 q 557 331 510 293 q 589 404 589 358 q 491 556 589 500 q 336 593 423 593 q 95 461 172 593 q 52 286 52 385 q 178 31 52 113 q 340 -14 250 -14 q 562 96 492 -14 q 579 132 571 114 m 441 -220 q 387 -167 393 -220 q 385 -152 385 -159 q 456 -33 385 -85 q 515 0 483 -14 l 514 12 q 285 -113 330 -19 q 274 -157 274 -134 q 340 -247 274 -220 q 407 -259 370 -259 q 530 -209 484 -258 l 514 -189 q 441 -220 476 -220 z "},"=":{"ha":631,"x_min":57,"x_max":574,"o":"m 574 366 l 574 418 l 57 418 l 57 366 l 574 366 m 574 217 l 574 269 l 57 269 l 57 217 l 574 217 z "},"℮":{"ha":1019,"x_min":65,"x_max":967,"o":"m 240 136 l 240 456 l 967 456 q 802 799 967 681 q 529 882 684 882 q 159 715 289 882 q 65 431 65 593 q 217 88 65 214 q 517 -14 342 -14 q 872 110 720 -14 q 903 138 888 123 l 872 168 q 593 33 762 56 q 524 27 557 27 q 240 136 354 28 m 792 749 l 792 499 l 240 499 l 240 732 q 529 841 359 837 q 792 749 688 840 z "},"ð":{"ha":726,"x_min":52,"x_max":647,"o":"m 647 334 q 534 680 647 526 q 437 781 491 739 l 557 850 l 537 886 l 399 808 q 157 882 289 876 l 153 845 q 343 777 263 837 l 176 684 l 198 646 l 376 747 q 488 511 457 662 q 349 547 427 547 q 129 460 217 547 q 52 271 52 382 q 171 39 52 119 q 347 -14 248 -14 q 605 141 528 -14 q 647 334 647 224 m 180 266 q 311 509 180 477 q 351 513 331 513 q 509 378 473 513 q 521 273 521 331 q 441 50 521 113 q 351 20 401 20 q 182 231 194 20 q 180 266 180 248 z "},"!":{"ha":366,"x_min":106,"x_max":260,"o":"m 203 233 q 243 606 203 404 q 260 739 260 696 q 184 827 258 826 q 106 736 107 825 q 132 563 106 697 q 161 233 161 401 l 203 233 m 256 68 q 214 136 256 115 q 182 144 198 144 q 115 102 136 144 q 107 68 107 84 q 151 0 107 20 q 182 -7 165 -7 q 250 37 229 -7 q 256 68 256 52 z "},"¡":{"ha":354,"x_min":69,"x_max":224,"o":"m 126 353 q 87 -20 126 182 q 69 -153 69 -110 q 145 -241 72 -240 q 224 -151 222 -239 q 198 23 224 -111 q 168 353 168 184 l 126 353 m 73 518 q 115 450 73 471 q 148 442 132 442 q 214 484 194 442 q 222 518 222 500 q 179 586 222 566 q 148 593 164 593 q 80 549 100 593 q 73 518 73 534 z "},"f":{"ha":423,"x_min":41,"x_max":545,"o":"m 354 34 l 258 34 l 258 544 l 414 544 l 414 578 l 258 578 l 258 586 q 320 846 258 814 q 354 854 335 854 q 422 803 395 854 q 458 746 448 755 q 487 736 472 736 q 544 776 534 736 q 545 789 545 783 q 477 871 545 842 q 382 888 435 888 q 186 783 250 888 q 142 598 142 709 l 142 578 l 45 578 l 45 544 l 142 544 l 142 114 q 102 39 142 52 q 41 34 81 34 l 41 0 l 387 0 q 368 33 387 30 q 354 34 361 34 z "},"ﬁ":{"ha":792,"x_min":39,"x_max":761,"o":"m 330 35 l 258 35 l 258 543 l 544 543 l 544 106 q 483 37 544 46 q 450 35 468 35 l 450 0 l 761 0 q 743 34 761 31 q 728 35 736 35 l 661 35 l 661 578 l 258 578 l 258 586 q 346 841 258 800 q 414 854 374 854 q 509 798 479 854 q 519 774 513 789 q 568 712 544 724 q 604 705 585 705 q 667 747 655 705 q 670 765 670 757 q 600 857 670 821 q 445 888 537 888 q 176 753 247 888 q 142 598 142 688 l 142 578 l 43 578 l 43 543 l 142 543 l 142 106 q 39 35 140 35 l 39 0 l 362 0 q 345 34 362 31 q 330 35 338 35 z "},"ﬂ":{"ha":800,"x_min":39,"x_max":769,"o":"m 769 0 q 751 34 769 31 q 736 35 745 35 l 663 35 l 663 882 l 495 882 q 387 888 431 888 q 176 764 237 888 q 142 598 142 694 l 142 578 l 43 578 l 43 543 l 142 543 l 142 106 q 39 35 140 35 l 39 0 l 361 0 q 343 34 361 31 q 328 35 336 35 l 258 35 l 258 543 l 404 543 l 404 578 l 258 578 l 258 586 q 313 825 258 776 q 404 853 346 853 q 547 827 481 853 l 547 109 q 509 41 547 53 q 449 35 487 35 l 449 0 l 769 0 z "},"ƒ":{"ha":623,"x_min":-71,"x_max":629,"o":"m 350 391 q 350 408 350 396 q 351 426 351 420 l 515 426 l 515 463 l 354 463 q 392 747 365 689 q 450 792 414 791 q 502 745 491 792 q 506 722 503 736 q 537 655 515 667 q 566 650 551 650 q 627 696 614 650 q 629 715 629 705 q 572 807 629 774 q 487 827 536 827 q 269 642 334 827 q 228 463 243 567 l 91 463 l 91 426 l 224 426 q 217 355 218 385 q 208 203 213 305 q 164 -157 190 -76 q 96 -233 138 -232 q 54 -187 58 -233 q 53 -164 54 -180 q 30 -92 52 -106 q -5 -84 15 -84 q -69 -137 -60 -84 q -71 -152 -71 -145 q -12 -243 -71 -210 q 75 -264 26 -264 q 297 -19 231 -264 q 350 391 338 134 z "},"⁄":{"ha":199,"x_min":-203,"x_max":430,"o":"m -160 -41 l 430 827 l 388 856 l -203 -14 l -160 -41 z "},"g":{"ha":659,"x_min":66,"x_max":654,"o":"m 187 376 q 296 557 187 545 q 315 559 305 559 q 439 420 426 559 q 441 376 441 400 q 315 189 429 197 q 187 351 195 189 q 187 376 187 363 m 316 593 q 114 509 186 593 q 66 376 66 452 q 164 205 66 274 q 187 190 176 197 q 79 117 103 190 q 73 77 73 98 q 130 -30 75 5 q 87 -123 87 -77 q 176 -235 87 -198 q 317 -259 235 -259 q 593 -159 526 -259 q 614 -87 614 -125 q 477 52 614 34 q 441 54 460 54 l 187 60 q 127 111 129 64 q 168 153 127 145 q 189 156 178 156 l 309 155 l 313 155 q 511 239 438 155 q 562 377 562 298 q 484 538 560 479 q 541 590 505 586 q 583 568 560 590 q 612 555 598 555 q 652 589 646 555 q 654 600 654 595 q 610 661 654 644 q 579 666 595 666 q 476 605 515 666 q 454 559 461 583 q 316 593 392 593 m 317 -224 q 142 -155 179 -224 q 133 -117 133 -136 q 163 -46 134 -81 q 210 -53 187 -53 l 433 -56 q 544 -95 528 -57 q 549 -123 549 -109 q 437 -212 549 -184 q 317 -224 382 -224 z "},"ğ":{"ha":659,"x_min":66,"x_max":654,"o":"m 187 376 q 296 557 187 545 q 315 559 305 559 q 439 420 426 559 q 441 376 441 400 q 315 189 429 197 q 187 351 195 189 q 187 376 187 363 m 316 593 q 114 509 186 593 q 66 376 66 452 q 164 205 66 274 q 187 190 176 197 q 79 117 103 190 q 73 77 73 98 q 130 -30 75 5 q 87 -123 87 -77 q 176 -235 87 -198 q 317 -259 235 -259 q 593 -159 526 -259 q 614 -87 614 -125 q 477 52 614 34 q 441 54 460 54 l 187 60 q 127 111 129 64 q 168 153 127 145 q 189 156 178 156 l 309 155 l 313 155 q 511 239 438 155 q 562 377 562 298 q 484 538 560 479 q 541 590 505 586 q 583 568 560 590 q 612 555 598 555 q 652 589 646 555 q 654 600 654 595 q 610 661 654 644 q 579 666 595 666 q 476 605 515 666 q 454 559 461 583 q 316 593 392 593 m 317 -224 q 142 -155 179 -224 q 133 -117 133 -136 q 163 -46 134 -81 q 210 -53 187 -53 l 433 -56 q 544 -95 528 -57 q 549 -123 549 -109 q 437 -212 549 -184 q 317 -224 382 -224 m 336 781 q 190 868 209 783 l 163 868 q 244 711 163 754 q 332 690 282 690 q 492 806 461 690 q 500 868 500 834 l 472 868 q 336 781 449 783 z "},"ß":{"ha":754,"x_min":41,"x_max":728,"o":"m 728 161 q 628 336 728 260 q 581 370 613 349 q 490 453 506 422 q 479 492 479 472 q 534 571 479 537 q 605 614 600 610 q 652 715 651 654 q 555 849 652 802 q 411 879 492 879 q 171 741 232 879 q 144 598 144 680 l 144 578 l 45 578 l 45 543 l 144 543 l 144 106 q 41 35 141 35 l 41 0 l 259 0 l 259 586 q 351 841 259 804 q 404 850 374 850 q 521 769 491 850 q 532 703 532 739 q 471 589 532 632 q 449 574 464 583 q 381 509 395 540 q 372 460 372 487 q 461 313 372 382 q 503 283 475 302 q 605 190 583 227 q 621 132 621 161 q 563 26 621 49 q 528 19 545 19 q 456 71 477 19 q 433 126 434 123 q 391 149 416 148 q 335 110 345 149 q 334 96 334 103 q 422 4 334 34 q 524 -12 469 -12 q 690 56 631 -12 q 728 161 728 100 z "},"`":{"ha":678,"x_min":220,"x_max":472,"o":"m 472 680 q 363 822 433 720 q 324 872 338 859 q 285 890 305 890 q 227 852 247 890 q 220 825 220 838 q 240 783 221 799 q 353 715 256 768 q 450 655 412 682 l 472 680 z "},">":{"ha":621,"x_min":57,"x_max":564,"o":"m 77 536 l 57 490 l 481 317 l 57 144 l 75 102 l 564 298 l 564 339 l 77 536 z "},"≥":{"ha":629,"x_min":57,"x_max":571,"o":"m 566 338 l 566 377 l 76 545 l 58 500 l 480 355 l 57 210 l 73 165 l 566 338 m 571 61 l 571 109 l 68 109 l 68 61 l 571 61 z "},"«":{"ha":563,"x_min":31,"x_max":532,"o":"m 296 513 l 271 536 q 94 363 245 509 q 50 320 62 334 q 31 278 31 298 q 50 233 33 252 q 208 84 61 221 q 271 22 245 46 l 296 43 q 175 244 277 71 q 155 278 163 264 q 193 343 165 297 q 296 513 262 464 m 532 513 l 507 536 q 324 358 479 506 q 285 320 297 332 q 267 278 267 297 q 285 233 269 252 q 442 84 293 225 q 507 22 481 47 l 532 43 q 416 235 515 68 q 389 278 400 262 q 435 357 403 300 q 532 513 500 468 z "},"»":{"ha":563,"x_min":31,"x_max":532,"o":"m 267 513 l 292 536 q 469 363 317 509 q 513 320 500 334 q 532 278 532 298 q 513 233 530 252 q 355 84 502 221 q 292 22 317 46 l 267 43 q 388 244 286 71 q 408 278 400 264 q 370 343 397 297 q 267 513 301 464 m 31 513 l 56 536 q 239 358 84 506 q 278 320 266 332 q 296 278 296 297 q 278 233 294 252 q 121 84 270 225 q 56 22 81 47 l 31 43 q 146 235 47 68 q 174 278 163 262 q 127 357 160 300 q 31 513 62 468 z "},"‹":{"ha":350,"x_min":31,"x_max":319,"o":"m 315 513 l 288 536 q 104 370 251 494 q 49 320 62 335 q 31 278 31 297 q 49 233 33 252 q 178 125 58 222 q 293 22 256 61 l 319 43 q 153 278 180 241 q 255 426 183 319 q 315 513 297 487 z "},"›":{"ha":350,"x_min":31,"x_max":319,"o":"m 35 513 l 62 536 q 245 370 99 494 q 301 320 288 335 q 319 278 319 297 q 301 233 317 252 q 172 125 292 222 q 57 22 94 61 l 31 43 q 197 278 170 241 q 95 426 167 319 q 35 513 53 487 z "},"h":{"ha":772,"x_min":41,"x_max":739,"o":"m 315 34 l 254 34 l 254 334 q 336 509 254 458 q 404 529 370 529 q 515 449 486 529 q 526 377 526 418 l 526 114 q 500 42 526 54 q 441 34 483 34 l 441 0 l 739 0 q 719 33 739 30 q 705 34 713 34 l 643 34 l 643 373 q 541 575 643 525 q 463 593 505 593 q 293 518 361 593 q 254 453 267 488 l 254 882 l 41 882 l 41 848 l 137 848 l 137 114 q 100 39 137 52 q 41 34 81 34 l 41 0 l 349 0 q 328 33 349 30 q 315 34 323 34 z "},"˝":{"ha":787,"x_min":229,"x_max":709,"o":"m 454 804 q 472 845 472 821 q 437 901 472 882 q 408 907 422 907 q 370 891 387 906 q 308 802 359 880 q 229 701 266 741 l 250 678 q 400 768 281 701 q 454 804 439 791 m 677 764 q 703 800 697 776 q 677 861 709 838 q 652 872 666 871 q 612 864 628 876 q 532 789 595 854 q 437 707 480 738 l 452 680 q 617 739 486 696 q 677 764 659 753 z "},"i":{"ha":393,"x_min":39,"x_max":355,"o":"m 321 34 l 258 34 l 258 578 l 39 578 l 39 544 l 142 544 l 142 114 q 100 39 142 52 q 39 34 80 34 l 39 0 l 355 0 q 335 33 355 30 q 321 34 330 34 m 273 772 q 229 844 273 821 q 194 852 212 852 q 122 807 144 852 q 114 772 114 789 q 160 699 114 720 q 194 692 176 692 q 264 736 243 692 q 273 772 273 754 z "},"í":{"ha":388,"x_min":38,"x_max":357,"o":"m 324 35 l 259 35 l 259 578 l 38 578 l 38 543 l 136 543 l 136 106 q 38 35 129 37 l 38 0 l 357 0 q 339 34 357 31 q 324 35 332 35 m 319 783 q 339 825 338 800 q 304 882 339 860 q 274 890 288 890 q 233 872 252 888 q 168 781 221 861 q 87 680 125 719 l 109 655 q 259 743 142 680 q 319 783 302 768 z "},"î":{"ha":388,"x_min":14,"x_max":377,"o":"m 324 35 l 259 35 l 259 578 l 38 578 l 38 543 l 136 543 l 136 106 q 38 35 129 37 l 38 0 l 357 0 q 339 34 357 31 q 324 35 332 35 m 361 677 l 377 700 q 277 819 359 719 q 194 875 225 871 q 118 826 159 875 q 91 791 110 815 q 14 699 45 734 l 30 678 q 197 770 99 722 q 361 677 298 719 z "},"ï":{"ha":388,"x_min":12,"x_max":378,"o":"m 156 773 q 114 838 156 821 q 85 845 99 845 q 18 800 35 845 q 12 773 12 787 q 57 708 12 724 q 85 703 71 703 q 149 743 130 703 q 156 773 156 758 m 378 773 q 336 838 378 821 q 307 845 321 845 q 240 802 258 845 q 235 773 235 787 q 278 708 235 724 q 307 703 293 703 q 372 743 354 703 q 378 773 378 758 m 324 35 l 259 35 l 259 578 l 38 578 l 38 543 l 136 543 l 136 106 q 38 35 129 37 l 38 0 l 357 0 q 339 34 357 31 q 324 35 332 35 z "},"ì":{"ha":388,"x_min":38,"x_max":357,"o":"m 324 35 l 259 35 l 259 578 l 38 578 l 38 543 l 136 543 l 136 106 q 38 35 129 37 l 38 0 l 357 0 q 339 34 357 31 q 324 35 332 35 m 316 680 q 208 822 277 720 q 168 872 182 859 q 129 890 149 890 q 71 852 91 890 q 64 825 64 838 q 84 783 65 799 q 197 715 100 768 q 294 655 256 682 l 316 680 z "},"ī":{"ha":388,"x_min":33,"x_max":363,"o":"m 33 732 l 363 732 l 363 802 l 33 802 l 33 732 m 324 35 l 259 35 l 259 578 l 38 578 l 38 543 l 136 543 l 136 106 q 38 35 129 37 l 38 0 l 357 0 q 339 34 357 31 q 324 35 332 35 z "},"∞":{"ha":933,"x_min":50,"x_max":883,"o":"m 701 232 q 860 326 812 232 q 883 419 883 369 q 810 571 883 518 q 696 604 761 604 q 494 492 597 604 q 461 456 479 476 q 232 604 345 602 q 73 510 121 604 q 50 416 50 467 q 123 264 50 317 q 237 232 172 232 q 435 339 332 232 q 472 378 452 355 q 701 232 586 233 m 232 283 q 109 361 141 283 q 98 419 98 388 q 157 537 98 498 q 232 557 191 557 q 434 425 335 556 q 297 300 350 326 q 232 283 264 283 m 701 278 q 498 410 600 279 q 629 532 582 506 q 701 552 666 552 q 825 475 792 552 q 836 416 836 446 q 776 298 836 338 q 701 278 742 278 z "},"∫":{"ha":494,"x_min":-33,"x_max":526,"o":"m 326 155 q 305 551 326 245 q 296 774 296 684 q 342 914 296 905 q 353 916 347 916 q 389 871 381 916 q 407 800 400 812 q 463 773 426 774 q 524 819 511 773 q 526 838 526 829 q 465 935 526 903 q 387 951 431 951 q 212 793 259 951 q 179 490 179 682 q 198 76 179 410 q 206 -136 206 -52 q 152 -354 206 -335 q 137 -357 145 -357 q 100 -313 104 -357 q 99 -293 100 -308 q 73 -217 98 -233 q 33 -208 57 -208 q -31 -260 -22 -208 q -33 -275 -33 -269 q 27 -370 -33 -338 q 106 -388 62 -388 q 290 -206 239 -388 q 326 155 326 -75 z "},"į":{"ha":388,"x_min":38,"x_max":373,"o":"m 324 35 l 259 35 l 259 578 l 38 578 l 38 543 l 136 543 l 136 106 q 38 35 129 37 l 38 0 l 300 0 q 122 -126 149 -39 q 117 -157 117 -142 q 183 -247 117 -220 q 250 -259 213 -259 q 373 -209 327 -258 l 357 -189 q 283 -220 319 -220 q 229 -167 236 -220 q 228 -152 228 -159 q 298 -33 228 -85 q 358 0 326 -14 l 357 12 q 324 35 346 34 m 274 772 q 231 844 274 821 q 195 852 213 852 q 123 807 145 852 q 115 772 115 789 q 161 699 115 720 q 195 692 178 692 q 266 736 244 692 q 274 772 274 754 z "},"j":{"ha":366,"x_min":-47,"x_max":278,"o":"m 278 772 q 235 844 278 821 q 199 852 217 852 q 127 807 149 852 q 119 772 119 789 q 165 699 119 720 q 199 692 182 692 q 270 736 248 692 q 278 772 278 754 m 46 578 l 46 544 l 149 544 l 149 18 q 151 -52 149 -5 q 152 -106 152 -90 q 99 -225 148 -224 q 62 -189 73 -225 q 42 -133 50 -142 q 7 -119 28 -119 q -46 -156 -35 -119 q -47 -171 -47 -164 q 11 -247 -47 -221 q 76 -259 42 -259 q 232 -164 180 -259 q 266 -4 266 -100 l 266 578 l 46 578 z "},"k":{"ha":685,"x_min":38,"x_max":699,"o":"m 319 34 l 255 34 l 255 236 l 323 300 l 510 0 l 699 0 q 681 33 699 28 q 666 34 674 34 l 621 34 l 403 376 l 526 491 q 598 541 574 536 q 623 544 609 544 q 655 564 652 544 q 656 578 656 571 l 426 578 l 426 544 l 528 544 l 255 290 l 255 882 l 38 882 l 38 848 l 140 848 l 140 114 q 99 39 140 52 q 38 34 79 34 l 38 0 l 353 0 q 332 33 353 30 q 319 34 326 34 z "},"l":{"ha":399,"x_min":39,"x_max":363,"o":"m 331 34 l 258 34 l 258 882 l 39 882 l 39 848 l 142 848 l 142 114 q 106 41 142 53 q 39 34 84 34 l 39 0 l 363 0 q 345 33 363 30 q 331 34 338 34 z "},"ĺ":{"ha":397,"x_min":39,"x_max":363,"o":"m 298 997 q 328 1032 323 1010 q 302 1099 338 1072 q 278 1111 290 1108 q 236 1104 256 1115 q 152 1031 221 1095 q 49 947 95 978 l 65 920 q 236 974 99 935 q 298 997 281 986 m 331 34 l 258 34 l 258 882 l 39 882 l 39 848 l 142 848 l 142 114 q 106 41 142 53 q 39 34 84 34 l 39 0 l 363 0 q 345 33 363 30 q 331 34 338 34 z "},"ľ":{"ha":437,"x_min":39,"x_max":464,"o":"m 331 34 l 258 34 l 258 882 l 39 882 l 39 848 l 142 848 l 142 114 q 106 41 142 53 q 39 34 84 34 l 39 0 l 363 0 q 345 33 363 30 q 331 34 338 34 m 464 795 q 406 892 464 873 q 377 897 392 897 q 308 852 328 897 q 301 818 301 836 q 355 747 301 765 q 366 745 361 746 q 400 718 399 734 q 339 614 400 680 q 336 612 338 613 l 368 590 q 464 781 456 680 q 464 795 464 788 z "},"<":{"ha":621,"x_min":57,"x_max":564,"o":"m 544 102 l 564 148 l 140 320 l 564 494 l 547 536 l 57 339 l 57 298 l 544 102 z "},"≤":{"ha":628,"x_min":57,"x_max":566,"o":"m 564 210 l 140 355 l 566 502 l 548 545 l 57 374 l 57 334 l 547 165 l 564 210 m 560 61 l 560 109 l 57 109 l 57 61 l 560 61 z "},"¬":{"ha":665,"x_min":57,"x_max":608,"o":"m 544 157 l 608 157 l 608 453 l 57 453 l 57 401 l 544 401 l 544 157 z "},"◊":{"ha":770,"x_min":49,"x_max":722,"o":"m 363 812 l 49 342 l 362 -129 l 408 -129 l 722 342 l 410 812 l 363 812 m 658 342 l 385 -68 l 113 342 l 387 751 l 658 342 z "},"ł":{"ha":397,"x_min":1,"x_max":408,"o":"m 22 316 l 142 384 l 142 114 q 106 41 142 53 q 39 34 84 34 l 39 0 l 363 0 q 345 33 363 30 q 331 34 338 34 l 258 34 l 258 449 l 408 534 l 388 570 l 258 496 l 258 882 l 39 882 l 39 848 l 142 848 l 142 431 l 1 353 l 22 316 z "},"m":{"ha":1104,"x_min":38,"x_max":1073,"o":"m 305 34 l 251 34 l 251 332 q 328 506 254 450 q 397 532 362 532 q 487 457 463 532 q 496 388 496 426 l 496 114 q 469 41 496 53 q 410 34 450 34 l 410 0 l 700 0 q 680 33 700 30 q 666 34 674 34 l 613 34 l 613 373 l 613 388 q 705 522 635 487 q 753 534 730 534 q 848 463 821 534 q 860 388 860 430 l 860 114 q 831 41 860 53 q 772 34 812 34 l 772 0 l 1073 0 q 1053 33 1073 30 q 1039 34 1047 34 l 975 34 l 975 374 q 884 568 975 511 q 796 593 844 593 q 618 481 682 593 q 604 450 610 467 q 496 583 578 552 q 446 593 472 593 q 278 503 343 593 q 250 452 262 479 l 244 578 l 38 578 l 38 544 l 136 544 l 136 114 q 98 39 136 52 q 38 34 77 34 l 38 0 l 338 0 q 319 33 338 30 q 305 34 312 34 z "},"¯":{"ha":678,"x_min":133,"x_max":545,"o":"m 133 732 l 545 732 l 545 802 l 133 802 l 133 732 z "},"−":{"ha":631,"x_min":57,"x_max":574,"o":"m 574 292 l 574 343 l 57 343 l 57 292 l 574 292 z "},"×":{"ha":544,"x_min":60,"x_max":483,"o":"m 444 106 l 483 145 l 309 319 l 483 491 l 445 529 l 273 357 l 99 529 l 60 490 l 233 317 l 61 145 l 98 107 l 270 279 l 444 106 z "},"n":{"ha":769,"x_min":38,"x_max":738,"o":"m 307 34 l 251 34 l 251 332 q 335 510 254 456 q 406 532 370 532 q 515 453 488 532 q 525 388 525 423 l 525 114 q 490 41 525 53 q 431 34 471 34 l 431 0 l 738 0 q 718 33 738 30 q 704 34 712 34 l 640 34 l 640 373 q 543 570 640 515 q 453 593 500 593 q 286 511 353 593 q 250 450 263 484 l 244 578 l 38 578 l 38 544 l 136 544 l 136 114 q 98 39 136 52 q 38 34 77 34 l 38 0 l 340 0 q 320 33 340 30 q 307 34 315 34 z "},"ń":{"ha":769,"x_min":38,"x_max":738,"o":"m 307 34 l 251 34 l 251 332 q 335 510 254 456 q 406 532 370 532 q 515 453 488 532 q 525 388 525 423 l 525 114 q 490 41 525 53 q 431 34 471 34 l 431 0 l 738 0 q 718 33 738 30 q 704 34 712 34 l 640 34 l 640 373 q 543 570 640 515 q 453 593 500 593 q 286 511 353 593 q 250 450 263 484 l 244 578 l 38 578 l 38 544 l 136 544 l 136 114 q 98 39 136 52 q 38 34 77 34 l 38 0 l 340 0 q 320 33 340 30 q 307 34 315 34 m 509 783 q 529 825 528 800 q 494 882 529 860 q 464 890 477 890 q 423 872 442 888 q 358 781 411 861 q 277 680 315 719 l 298 655 q 449 743 332 680 q 509 783 492 768 z "},"ň":{"ha":769,"x_min":38,"x_max":738,"o":"m 307 34 l 251 34 l 251 332 q 335 510 254 456 q 406 532 370 532 q 515 453 488 532 q 525 388 525 423 l 525 114 q 490 41 525 53 q 431 34 471 34 l 431 0 l 738 0 q 718 33 738 30 q 704 34 712 34 l 640 34 l 640 373 q 543 570 640 515 q 453 593 500 593 q 286 511 353 593 q 250 450 263 484 l 244 578 l 38 578 l 38 544 l 136 544 l 136 114 q 98 39 136 52 q 38 34 77 34 l 38 0 l 340 0 q 320 33 340 30 q 307 34 315 34 m 385 680 q 468 732 423 680 q 502 773 479 743 q 579 864 548 830 l 560 886 q 385 787 488 840 q 208 887 260 850 l 189 863 q 270 769 222 826 q 351 688 327 700 q 385 680 369 680 z "},"≠":{"ha":631,"x_min":57,"x_max":574,"o":"m 574 217 l 574 269 l 317 269 l 357 366 l 574 366 l 574 418 l 377 418 l 442 583 l 396 583 l 331 418 l 57 418 l 57 366 l 311 366 l 271 269 l 57 269 l 57 217 l 251 217 l 190 61 l 236 61 l 297 217 l 574 217 z "},"ñ":{"ha":769,"x_min":38,"x_max":738,"o":"m 307 34 l 251 34 l 251 332 q 335 510 254 456 q 406 532 370 532 q 515 453 488 532 q 525 388 525 423 l 525 114 q 490 41 525 53 q 431 34 471 34 l 431 0 l 738 0 q 718 33 738 30 q 704 34 712 34 l 640 34 l 640 373 q 543 570 640 515 q 453 593 500 593 q 286 511 353 593 q 250 450 263 484 l 244 578 l 38 578 l 38 544 l 136 544 l 136 114 q 98 39 136 52 q 38 34 77 34 l 38 0 l 340 0 q 320 33 340 30 q 307 34 315 34 m 315 864 q 415 819 355 864 q 491 783 464 783 q 563 854 543 783 q 564 860 564 857 l 593 853 q 469 703 564 704 q 370 746 429 703 q 293 783 321 783 q 222 718 243 783 q 220 707 221 712 l 193 712 q 315 864 221 863 z "},"#":{"ha":785,"x_min":81,"x_max":704,"o":"m 434 -14 l 477 -14 l 514 263 l 686 263 l 686 328 l 522 328 l 545 499 l 704 499 l 704 564 l 553 564 l 586 814 l 543 814 l 510 564 l 320 564 l 353 814 l 309 814 l 277 564 l 99 564 l 99 499 l 269 499 l 245 328 l 81 328 l 81 263 l 237 263 l 201 -14 l 244 -14 l 281 263 l 471 263 l 434 -14 m 479 328 l 289 328 l 312 499 l 502 499 l 479 328 z "},"o":{"ha":699,"x_min":52,"x_max":647,"o":"m 180 290 q 349 559 182 557 q 517 296 515 556 q 351 20 515 22 q 180 290 182 23 m 353 593 q 127 499 216 593 q 52 296 52 416 q 171 43 52 130 q 347 -14 250 -14 q 568 81 481 -14 q 647 292 647 167 q 525 541 647 457 q 353 593 449 593 z "},"ó":{"ha":699,"x_min":52,"x_max":647,"o":"m 180 290 q 349 559 182 557 q 517 296 515 556 q 351 20 515 22 q 180 290 182 23 m 353 593 q 127 499 216 593 q 52 296 52 416 q 171 43 52 130 q 347 -14 250 -14 q 568 81 481 -14 q 647 292 647 167 q 525 541 647 457 q 353 593 449 593 m 483 783 q 503 825 502 800 q 468 882 503 860 q 438 890 452 890 q 397 872 416 888 q 332 781 385 861 q 251 680 289 719 l 273 655 q 423 743 307 680 q 483 783 467 768 z "},"ô":{"ha":699,"x_min":52,"x_max":647,"o":"m 180 290 q 349 559 182 557 q 517 296 515 556 q 351 20 515 22 q 180 290 182 23 m 353 593 q 127 499 216 593 q 52 296 52 416 q 171 43 52 130 q 347 -14 250 -14 q 568 81 481 -14 q 647 292 647 167 q 525 541 647 457 q 353 593 449 593 m 524 677 l 540 700 q 439 819 522 719 q 357 875 388 871 q 281 826 321 875 q 254 791 273 815 q 176 699 208 734 l 193 678 q 359 770 262 722 q 524 677 461 719 z "},"ö":{"ha":699,"x_min":52,"x_max":647,"o":"m 180 290 q 349 559 182 557 q 517 296 515 556 q 351 20 515 22 q 180 290 182 23 m 353 593 q 127 499 216 593 q 52 296 52 416 q 171 43 52 130 q 347 -14 250 -14 q 568 81 481 -14 q 647 292 647 167 q 525 541 647 457 q 353 593 449 593 m 307 774 q 264 840 307 822 q 235 846 250 846 q 168 804 186 846 q 161 774 161 789 q 205 707 161 726 q 235 701 220 701 q 300 745 282 701 q 307 774 307 760 m 556 774 q 513 841 556 822 q 483 846 498 846 q 416 803 434 846 q 411 774 411 788 q 456 707 411 724 q 483 701 469 701 q 549 745 532 701 q 556 774 556 758 z "},"œ":{"ha":1090,"x_min":52,"x_max":1047,"o":"m 796 559 q 918 472 891 559 q 925 420 925 448 q 865 339 925 354 q 772 332 831 331 l 639 336 q 750 552 646 515 q 796 559 772 559 m 180 290 q 349 559 182 557 q 517 296 515 556 q 351 20 515 22 q 180 290 182 23 m 353 593 q 127 499 216 593 q 52 296 52 416 q 171 43 52 130 q 347 -14 250 -14 q 557 81 473 -14 q 575 103 567 92 q 776 -12 642 -3 q 799 -14 788 -14 q 1019 95 951 -14 q 1039 137 1031 115 l 1004 144 q 865 28 960 49 q 823 24 844 24 q 647 206 680 24 q 639 298 640 248 l 795 296 q 1016 331 968 293 q 1047 404 1047 358 q 949 555 1047 500 q 796 593 883 593 q 576 479 650 591 q 369 593 503 585 q 353 593 359 593 z "},"˛":{"ha":678,"x_min":186,"x_max":442,"o":"m 353 -220 q 298 -167 305 -220 q 297 -152 297 -159 q 368 -33 297 -85 q 427 0 395 -14 l 426 12 q 197 -113 241 -19 q 186 -157 186 -134 q 252 -247 186 -220 q 319 -259 282 -259 q 442 -209 396 -258 l 426 -189 q 353 -220 388 -220 z "},"ò":{"ha":699,"x_min":52,"x_max":647,"o":"m 180 290 q 349 559 182 557 q 517 296 515 556 q 351 20 515 22 q 180 290 182 23 m 353 593 q 127 499 216 593 q 52 296 52 416 q 171 43 52 130 q 347 -14 250 -14 q 568 81 481 -14 q 647 292 647 167 q 525 541 647 457 q 353 593 449 593 m 480 680 q 372 822 441 720 q 332 872 346 859 q 293 890 313 890 q 235 852 255 890 q 228 825 228 838 q 248 783 229 799 q 361 715 264 768 q 458 655 420 682 l 480 680 z "},"ő":{"ha":699,"x_min":52,"x_max":655,"o":"m 180 290 q 349 559 182 557 q 517 296 515 556 q 351 20 515 22 q 180 290 182 23 m 353 593 q 127 499 216 593 q 52 296 52 416 q 171 43 52 130 q 347 -14 250 -14 q 568 81 481 -14 q 647 292 647 167 q 525 541 647 457 q 353 593 449 593 m 400 804 q 418 845 418 821 q 382 901 418 882 q 354 907 368 907 q 316 891 332 906 q 254 802 305 880 q 175 701 212 741 l 195 678 q 346 768 227 701 q 400 804 385 791 m 623 764 q 648 800 643 776 q 623 861 655 838 q 598 872 612 871 q 557 864 574 876 q 477 789 541 854 q 382 707 426 738 l 397 680 q 563 739 431 696 q 623 764 605 753 z "},"ō":{"ha":699,"x_min":52,"x_max":647,"o":"m 180 290 q 349 559 182 557 q 517 296 515 556 q 351 20 515 22 q 180 290 182 23 m 353 593 q 127 499 216 593 q 52 296 52 416 q 171 43 52 130 q 347 -14 250 -14 q 568 81 481 -14 q 647 292 647 167 q 525 541 647 457 q 353 593 449 593 m 155 732 l 567 732 l 567 802 l 155 802 l 155 732 z "},"½":{"ha":1009,"x_min":54,"x_max":941,"o":"m 237 -41 l 827 827 l 785 856 l 194 -14 l 237 -41 m 237 829 l 54 701 l 75 670 l 202 757 l 202 429 l 90 419 l 90 392 l 407 392 q 387 419 407 415 q 376 420 381 420 l 307 429 l 307 829 l 237 829 m 654 81 q 738 145 658 107 q 879 225 846 198 q 932 323 932 269 q 831 437 932 408 q 760 446 798 446 q 610 392 656 446 q 589 336 589 368 q 640 288 591 289 q 694 330 688 288 q 696 354 696 338 q 719 412 699 401 q 751 419 732 419 q 819 361 810 419 q 821 330 821 346 q 742 194 821 251 q 703 167 730 184 q 608 83 629 119 q 590 15 590 52 l 590 0 l 940 0 l 941 149 l 924 149 l 910 113 q 868 83 898 85 q 837 81 857 81 l 654 81 z "},"¼":{"ha":993,"x_min":54,"x_max":928,"o":"m 237 -41 l 827 827 l 785 856 l 194 -14 l 237 -41 m 237 829 l 54 701 l 75 670 l 202 757 l 202 429 l 90 419 l 90 392 l 407 392 q 387 419 407 415 q 376 420 381 420 l 307 429 l 307 829 l 237 829 m 928 -61 q 913 -34 928 -37 q 901 -33 907 -33 l 837 -33 l 837 66 l 928 66 l 928 99 l 837 99 l 837 270 l 815 270 l 806 243 q 758 198 789 203 q 743 197 751 197 l 735 197 l 735 99 l 538 100 q 728 251 701 228 q 840 410 838 351 q 787 460 834 457 q 731 419 751 460 q 715 385 726 410 q 581 180 662 264 q 492 100 541 140 l 499 68 l 735 66 l 735 -33 l 633 -33 l 633 -61 l 928 -61 z "},"¹":{"ha":400,"x_min":27,"x_max":380,"o":"m 210 880 l 27 753 l 47 722 l 175 808 l 175 480 l 62 471 l 62 444 l 380 444 q 359 471 380 467 q 349 472 354 472 l 279 480 l 279 880 l 210 880 z "},"ª":{"ha":420,"x_min":18,"x_max":396,"o":"m 380 331 l 380 378 l 33 378 l 33 331 l 380 331 m 396 534 l 370 534 q 343 483 365 484 q 323 521 323 486 l 323 685 q 175 814 320 812 q 46 765 76 814 q 38 736 38 750 q 81 696 46 701 q 129 731 119 696 q 144 773 140 768 q 178 787 156 787 q 236 694 235 779 l 236 655 q 27 590 60 655 q 18 544 18 570 q 84 452 18 473 q 123 446 103 446 q 236 519 203 448 q 321 446 258 452 q 395 518 384 446 q 396 534 396 528 m 156 491 q 111 553 113 494 q 187 624 111 612 q 236 628 210 628 l 236 575 q 172 494 217 509 q 156 491 164 491 z "},"º":{"ha":410,"x_min":18,"x_max":385,"o":"m 119 629 q 183 781 119 768 q 201 783 193 783 q 281 693 269 783 q 283 632 283 666 q 222 480 283 494 q 203 477 213 477 q 122 579 132 477 q 119 629 119 602 m 203 814 q 52 742 106 814 q 18 632 18 694 q 106 472 18 522 q 201 446 149 446 q 350 518 296 446 q 385 631 385 567 q 294 792 385 743 q 203 814 252 814 m 28 331 l 376 331 l 376 378 l 28 378 l 28 331 z "},"ø":{"ha":699,"x_min":11,"x_max":665,"o":"m 41 -14 l 133 77 q 347 -14 218 -14 q 568 81 481 -14 q 647 292 647 167 q 568 505 646 422 l 665 598 l 635 625 l 538 532 q 353 593 457 593 q 127 499 216 593 q 52 296 52 416 q 107 109 53 186 l 11 15 l 41 -14 m 180 290 q 349 559 182 557 q 484 477 441 557 l 189 189 q 180 290 180 236 m 351 20 q 199 142 239 22 l 499 437 q 517 296 517 380 q 351 20 515 22 z "},"õ":{"ha":699,"x_min":52,"x_max":647,"o":"m 180 290 q 349 559 182 557 q 517 296 515 556 q 351 20 515 22 q 180 290 182 23 m 353 593 q 127 499 216 593 q 52 296 52 416 q 171 43 52 130 q 347 -14 250 -14 q 568 81 481 -14 q 647 292 647 167 q 525 541 647 457 q 353 593 449 593 m 288 864 q 388 819 328 864 q 464 783 437 783 q 536 854 515 783 q 537 860 537 857 l 566 853 q 442 703 537 704 q 343 746 401 703 q 266 783 294 783 q 195 718 216 783 q 193 707 194 712 l 165 712 q 288 864 194 863 z "},"p":{"ha":749,"x_min":34,"x_max":697,"o":"m 247 -224 l 247 56 q 416 -14 317 -8 q 621 80 540 -14 q 697 304 697 168 q 609 540 697 460 q 467 593 549 593 q 278 499 345 593 q 244 434 256 469 l 237 578 l 34 578 l 34 544 l 130 544 l 130 -144 q 95 -217 130 -205 q 34 -224 75 -224 l 34 -258 l 370 -258 q 350 -225 370 -228 q 336 -224 345 -224 l 247 -224 m 418 536 q 563 369 538 536 q 568 289 568 331 q 461 33 568 81 q 403 20 434 20 q 264 130 304 20 q 245 263 245 186 q 332 506 245 438 q 418 536 372 536 z "},"¶":{"ha":709,"x_min":62,"x_max":690,"o":"m 304 -155 q 519 -69 439 -155 q 587 122 587 5 l 585 779 l 690 779 l 690 814 l 397 814 q 100 681 184 814 q 62 541 62 618 q 170 331 62 401 q 345 285 241 285 l 369 285 l 369 69 q 342 -111 369 -87 q 315 -119 331 -119 q 267 -75 279 -119 q 263 -53 266 -68 q 224 22 250 5 q 182 31 206 31 q 114 -15 130 31 q 110 -41 110 -27 q 195 -136 110 -103 q 304 -155 244 -155 m 476 94 q 426 -94 476 -53 q 380 -114 407 -107 q 407 80 407 -77 l 407 779 l 476 779 l 476 94 z "},"(":{"ha":456,"x_min":68,"x_max":435,"o":"m 423 882 q 134 633 232 830 q 68 334 68 496 q 189 -49 68 106 q 419 -203 281 -165 l 433 -168 q 221 102 282 -113 q 190 336 190 212 q 292 728 190 578 q 435 846 353 815 l 423 882 z "},")":{"ha":458,"x_min":23,"x_max":391,"o":"m 35 882 q 324 633 227 830 q 391 334 391 496 q 270 -49 391 106 q 39 -203 178 -165 l 26 -168 q 237 102 176 -113 q 269 336 269 212 q 167 728 269 578 q 23 846 106 815 l 35 882 z "},"∂":{"ha":703,"x_min":52,"x_max":637,"o":"m 637 488 q 517 777 637 688 q 361 827 449 827 q 175 769 267 826 l 197 735 q 351 789 281 789 q 500 677 457 789 q 522 547 522 621 q 509 433 522 490 q 339 519 446 518 q 125 420 210 519 q 52 214 52 335 q 148 24 52 88 q 283 -14 208 -14 q 560 160 461 -14 q 637 488 637 297 m 180 191 q 273 454 180 381 q 354 484 311 484 q 465 391 437 484 q 476 307 476 353 q 392 64 476 144 q 294 20 346 20 q 183 141 201 20 q 180 191 180 164 z "},"%":{"ha":1099,"x_min":76,"x_max":1016,"o":"m 263 -41 l 853 827 l 811 856 l 220 -14 l 263 -41 m 288 838 q 110 745 168 838 q 76 612 76 688 q 176 406 76 465 q 283 378 224 378 q 464 476 406 378 q 496 608 496 532 q 389 815 496 761 q 288 838 343 838 m 286 406 q 199 490 218 406 q 190 608 190 534 q 247 803 190 774 q 286 811 264 811 q 372 726 353 811 q 381 612 381 682 q 301 407 381 420 q 286 406 293 406 m 807 446 q 629 353 688 446 q 595 220 595 296 q 696 14 595 73 q 803 -14 743 -14 q 983 84 925 -14 q 1016 216 1016 140 q 909 423 1016 369 q 807 446 863 446 m 806 14 q 719 98 738 14 q 709 216 709 142 q 766 411 709 382 q 806 419 784 419 q 891 334 872 419 q 901 220 901 289 q 821 15 901 28 q 806 14 812 14 z "},".":{"ha":271,"x_min":61,"x_max":210,"o":"m 210 68 q 168 136 210 115 q 136 144 152 144 q 69 102 90 144 q 61 68 61 84 q 104 0 61 20 q 136 -7 119 -7 q 203 37 183 -7 q 210 68 210 52 z "},"·":{"ha":401,"x_min":122,"x_max":279,"o":"m 279 313 q 236 384 279 362 q 201 392 218 392 q 130 349 152 392 q 122 313 122 331 q 165 243 122 264 q 201 235 183 235 q 271 278 250 235 q 279 313 279 296 z "},"‰":{"ha":1596,"x_min":76,"x_max":1514,"o":"m 1305 446 q 1127 353 1185 446 q 1093 220 1093 296 q 1194 14 1093 73 q 1301 -14 1241 -14 q 1481 84 1423 -14 q 1514 216 1514 140 q 1407 423 1514 369 q 1305 446 1360 446 m 1303 14 q 1217 98 1236 14 q 1207 216 1207 142 q 1264 411 1207 382 q 1303 419 1282 419 q 1389 334 1370 419 q 1398 220 1398 290 q 1318 15 1398 28 q 1303 14 1310 14 m 263 -41 l 853 827 l 811 856 l 220 -14 l 263 -41 m 288 838 q 110 745 168 838 q 76 612 76 688 q 176 406 76 465 q 283 378 224 378 q 464 476 406 378 q 496 608 496 532 q 389 815 496 761 q 288 838 343 838 m 286 406 q 199 490 218 406 q 190 608 190 534 q 247 803 190 774 q 286 811 264 811 q 372 726 353 811 q 381 612 381 682 q 301 407 381 420 q 286 406 293 406 m 807 446 q 629 353 688 446 q 595 220 595 296 q 696 14 595 73 q 803 -14 743 -14 q 983 84 925 -14 q 1016 216 1016 140 q 909 423 1016 369 q 807 446 863 446 m 806 14 q 719 98 738 14 q 709 216 709 142 q 766 411 709 382 q 806 419 784 419 q 891 334 872 419 q 901 220 901 289 q 821 15 901 28 q 806 14 812 14 z "},"π":{"ha":779,"x_min":33,"x_max":754,"o":"m 754 104 l 722 111 q 666 27 708 41 q 652 24 658 24 q 612 114 612 27 l 612 543 l 727 543 l 727 578 l 33 578 l 33 543 l 134 543 l 134 106 q 53 35 134 41 q 33 35 43 35 l 33 0 l 351 0 q 334 34 351 31 q 319 35 327 35 l 250 35 l 250 543 l 495 543 l 495 178 q 614 -12 495 -3 q 629 -12 623 -12 q 742 64 709 -12 q 754 104 750 83 z "},"+":{"ha":631,"x_min":57,"x_max":574,"o":"m 574 292 l 574 343 l 347 343 l 347 585 l 283 585 l 283 343 l 57 343 l 57 292 l 283 292 l 283 50 l 347 50 l 347 292 l 574 292 z "},"±":{"ha":631,"x_min":57,"x_max":574,"o":"m 574 346 l 574 397 l 347 397 l 347 585 l 283 585 l 283 397 l 57 397 l 57 346 l 283 346 l 283 159 l 347 159 l 347 346 l 574 346 m 574 46 l 574 98 l 57 98 l 57 46 l 574 46 z "},"∏":{"ha":804,"x_min":19,"x_max":785,"o":"m 357 -176 q 339 -142 357 -145 q 323 -141 331 -141 l 258 -141 l 258 779 l 541 779 l 541 -141 l 449 -141 l 449 -176 l 785 -176 q 768 -142 785 -145 q 751 -141 760 -141 l 671 -141 l 671 779 l 785 779 l 785 814 l 19 814 l 19 779 l 127 779 l 127 -141 l 19 -141 l 19 -176 l 357 -176 z "},"q":{"ha":751,"x_min":52,"x_max":719,"o":"m 52 269 q 161 24 52 99 q 289 -14 220 -14 q 476 81 407 -14 q 503 129 492 103 l 503 -144 q 461 -217 503 -203 q 384 -224 437 -224 l 384 -258 l 719 -258 q 701 -225 719 -228 q 685 -224 694 -224 l 618 -224 l 618 544 l 718 544 l 718 578 l 517 578 l 510 522 q 327 593 434 593 q 122 495 199 593 q 52 269 52 407 m 505 316 q 411 64 505 126 q 335 42 376 42 q 190 186 221 42 q 180 290 180 233 q 279 541 180 486 q 349 557 311 557 q 496 410 468 557 q 505 316 505 368 z "},"?":{"ha":623,"x_min":79,"x_max":552,"o":"m 302 233 q 393 431 302 345 q 439 472 408 446 q 534 578 514 536 q 552 652 552 613 q 419 814 552 774 q 312 827 370 827 q 117 766 184 827 q 79 686 80 731 q 148 614 84 617 q 212 666 201 614 q 217 699 214 675 q 248 779 224 761 q 302 792 269 792 q 414 678 412 789 q 357 499 414 589 q 290 384 302 414 q 262 233 262 316 l 302 233 m 358 68 q 316 136 358 115 q 283 144 300 144 q 217 102 237 144 q 209 68 209 85 q 252 0 209 20 q 283 -7 267 -7 q 351 37 331 -7 q 358 68 358 52 z "},"¿":{"ha":659,"x_min":57,"x_max":530,"o":"m 307 353 q 216 155 307 241 q 170 114 201 140 q 75 8 95 50 q 57 -66 57 -27 q 190 -228 57 -189 q 297 -241 239 -241 q 492 -180 425 -241 q 530 -100 529 -145 q 461 -28 525 -31 q 397 -80 408 -28 q 392 -113 395 -90 q 361 -193 385 -175 q 307 -206 340 -206 q 195 -92 197 -203 q 252 87 195 -3 q 319 202 307 172 q 347 353 347 270 l 307 353 m 251 518 q 293 450 251 471 q 326 442 309 442 q 392 484 372 442 q 400 518 400 502 q 357 586 400 566 q 326 593 342 593 q 258 549 278 593 q 251 518 251 534 z "},"\"":{"ha":415,"x_min":61,"x_max":354,"o":"m 122 890 q 62 848 73 890 q 61 831 61 840 q 84 715 61 815 q 103 605 99 654 l 140 605 q 172 776 144 648 q 182 834 182 815 q 138 888 182 879 q 122 890 130 890 m 296 890 q 235 831 240 880 q 258 716 235 817 q 275 605 271 654 l 313 605 q 346 777 316 651 q 354 834 354 815 q 312 888 354 879 q 296 890 304 890 z "},"„":{"ha":419,"x_min":43,"x_max":376,"o":"m 376 56 q 324 145 376 127 q 297 149 311 149 q 233 107 252 149 q 227 76 227 92 q 271 12 227 30 q 285 8 278 9 q 317 -16 316 0 q 259 -114 316 -54 l 288 -134 q 376 56 373 -39 m 191 56 q 140 145 191 127 q 113 149 126 149 q 49 106 66 149 q 43 76 43 91 q 90 11 43 28 q 102 8 96 9 q 133 -16 132 0 q 76 -114 132 -53 l 103 -134 q 191 56 189 -42 z "},"“":{"ha":414,"x_min":43,"x_max":376,"o":"m 43 700 q 95 610 43 628 q 122 606 109 606 q 186 648 167 606 q 193 680 193 663 q 148 743 193 726 q 134 747 141 746 q 102 772 103 755 q 160 869 103 810 l 132 890 q 43 700 46 795 m 228 700 q 279 610 228 628 q 307 606 293 606 q 370 650 353 606 q 376 680 376 665 q 330 745 376 727 q 317 747 323 746 q 286 772 288 755 q 343 869 288 808 l 316 890 q 228 700 231 798 z "},"”":{"ha":422,"x_min":43,"x_max":376,"o":"m 376 751 q 324 841 376 823 q 297 845 311 845 q 233 803 252 845 q 227 772 227 788 q 271 708 227 726 q 285 704 278 705 q 317 680 316 696 q 259 582 316 642 l 288 562 q 376 751 373 656 m 191 751 q 140 841 191 823 q 113 845 126 845 q 49 802 66 845 q 43 772 43 787 q 90 707 43 724 q 102 704 96 705 q 133 680 132 696 q 76 582 132 643 l 103 562 q 191 751 189 654 z "},"‘":{"ha":260,"x_min":49,"x_max":199,"o":"m 199 680 q 152 745 199 726 q 140 749 145 747 q 109 773 110 757 q 167 871 110 811 l 138 891 q 49 700 54 795 q 107 609 49 623 q 129 606 118 606 q 193 648 174 606 q 199 680 199 663 z "},"’":{"ha":274,"x_min":61,"x_max":212,"o":"m 212 791 q 157 880 212 864 q 132 884 144 884 q 68 842 87 884 q 61 811 61 827 q 113 745 61 761 q 121 742 117 743 q 152 718 151 734 q 94 620 151 680 l 122 598 q 212 791 205 694 z "},"‚":{"ha":225,"x_min":41,"x_max":187,"o":"m 187 57 q 132 145 187 130 q 110 148 121 148 q 46 107 64 148 q 41 79 41 92 q 95 12 41 30 q 99 11 98 11 q 130 -14 129 3 q 87 -95 129 -43 l 117 -114 q 187 57 186 -30 z "},"'":{"ha":251,"x_min":61,"x_max":190,"o":"m 126 890 q 62 845 71 890 q 61 831 61 837 q 87 720 61 815 q 107 605 103 655 l 144 605 q 179 774 148 651 q 190 834 190 815 q 145 888 190 878 q 126 890 136 890 z "},"r":{"ha":541,"x_min":41,"x_max":534,"o":"m 351 34 l 254 34 l 254 332 q 332 507 263 449 q 372 526 355 526 q 411 492 392 526 q 454 448 433 454 q 473 445 464 445 q 532 487 518 445 q 534 507 534 498 q 472 583 534 570 q 444 586 458 586 q 294 515 359 586 q 251 448 267 486 l 245 578 l 41 578 l 41 544 l 137 544 l 137 114 q 100 39 137 52 q 41 34 81 34 l 41 0 l 385 0 q 365 33 385 30 q 351 34 359 34 z "},"ŕ":{"ha":541,"x_min":41,"x_max":534,"o":"m 351 34 l 254 34 l 254 332 q 332 507 263 449 q 372 526 355 526 q 411 492 392 526 q 454 448 433 454 q 473 445 464 445 q 532 487 518 445 q 534 507 534 498 q 472 583 534 570 q 444 586 458 586 q 294 515 359 586 q 251 448 267 486 l 245 578 l 41 578 l 41 544 l 137 544 l 137 114 q 100 39 137 52 q 41 34 81 34 l 41 0 l 385 0 q 365 33 385 30 q 351 34 359 34 m 395 783 q 415 825 414 800 q 380 882 415 860 q 350 890 363 890 q 309 872 328 888 q 244 781 297 861 q 163 680 201 719 l 184 655 q 335 743 218 680 q 395 783 378 768 z "},"√":{"ha":609,"x_min":-15,"x_max":639,"o":"m 217 593 l -15 492 l -1 456 l 121 507 l 244 88 q 305 -1 267 11 q 345 -7 321 -7 l 387 -7 l 639 978 l 591 989 l 361 96 l 217 593 z "},"ř":{"ha":541,"x_min":41,"x_max":534,"o":"m 351 34 l 254 34 l 254 332 q 332 507 263 449 q 372 526 355 526 q 411 492 392 526 q 454 448 433 454 q 473 445 464 445 q 532 487 518 445 q 534 507 534 498 q 472 583 534 570 q 444 586 458 586 q 294 515 359 586 q 251 448 267 486 l 245 578 l 41 578 l 41 544 l 137 544 l 137 114 q 100 39 137 52 q 41 34 81 34 l 41 0 l 385 0 q 365 33 385 30 q 351 34 359 34 m 271 680 q 354 732 309 680 q 388 773 365 743 q 465 864 434 830 l 446 886 q 271 787 374 840 q 94 887 146 850 l 75 863 q 156 769 109 826 q 237 688 213 700 q 271 680 255 680 z "},"®":{"ha":536,"x_min":31,"x_max":502,"o":"m 502 642 q 412 825 502 758 q 267 872 349 872 q 76 780 144 872 q 31 642 31 720 q 123 456 31 522 q 267 411 186 411 q 457 502 389 411 q 502 642 502 563 m 65 642 q 148 807 65 750 q 267 844 201 844 q 433 760 374 842 q 468 642 468 707 q 384 475 468 533 q 267 439 332 439 q 102 522 159 439 q 65 642 65 575 m 414 510 q 397 529 411 528 l 385 529 l 320 633 q 384 707 382 651 q 328 772 384 754 q 282 777 307 777 l 140 779 l 140 758 l 171 758 l 171 529 l 140 529 l 140 509 l 269 509 l 269 529 l 236 529 l 236 628 l 262 628 l 327 507 l 414 510 m 236 758 l 267 758 q 311 720 302 758 q 312 707 312 713 q 279 652 312 663 q 267 651 273 651 l 236 651 l 236 758 z "},"˚":{"ha":678,"x_min":190,"x_max":480,"o":"m 270 777 q 321 871 270 860 q 335 872 328 872 q 400 799 392 872 q 401 780 401 789 q 357 689 401 707 q 335 685 346 685 q 270 777 271 686 m 339 903 q 201 831 235 903 q 190 780 190 807 q 262 667 190 699 q 332 654 294 654 q 468 727 433 654 q 480 781 480 753 q 410 890 480 859 q 339 903 377 903 z "},"s":{"ha":548,"x_min":65,"x_max":496,"o":"m 259 23 q 381 81 353 23 q 391 121 391 100 q 307 222 391 180 q 248 250 289 232 q 103 336 140 296 q 65 438 65 380 q 171 575 65 534 q 279 593 221 593 q 435 555 372 593 q 454 600 435 594 q 472 601 461 601 l 472 431 l 435 431 q 297 557 433 556 q 175 498 199 557 q 170 465 170 481 q 252 366 170 407 q 311 340 271 357 q 457 256 420 296 q 496 151 496 212 q 378 1 496 38 q 278 -14 332 -14 q 102 34 176 -12 q 84 -7 102 -1 q 65 -8 76 -8 l 65 198 l 104 198 q 259 23 107 24 z "},"ś":{"ha":548,"x_min":65,"x_max":496,"o":"m 259 23 q 381 81 353 23 q 391 121 391 100 q 307 222 391 180 q 248 250 289 232 q 103 336 140 296 q 65 438 65 380 q 171 575 65 534 q 279 593 221 593 q 435 555 372 593 q 454 600 435 594 q 472 601 461 601 l 472 431 l 435 431 q 297 557 433 556 q 175 498 199 557 q 170 465 170 481 q 252 366 170 407 q 311 340 271 357 q 457 256 420 296 q 496 151 496 212 q 378 1 496 38 q 278 -14 332 -14 q 102 34 176 -12 q 84 -7 102 -1 q 65 -8 76 -8 l 65 198 l 104 198 q 259 23 107 24 m 399 783 q 419 825 418 800 q 384 882 419 860 q 354 890 368 890 q 313 872 332 888 q 248 781 301 861 q 167 680 205 719 l 189 655 q 339 743 222 680 q 399 783 382 768 z "},"š":{"ha":548,"x_min":65,"x_max":496,"o":"m 259 23 q 381 81 353 23 q 391 121 391 100 q 307 222 391 180 q 248 250 289 232 q 103 336 140 296 q 65 438 65 380 q 171 575 65 534 q 279 593 221 593 q 435 555 372 593 q 454 600 435 594 q 472 601 461 601 l 472 431 l 435 431 q 297 557 433 556 q 175 498 199 557 q 170 465 170 481 q 252 366 170 407 q 311 340 271 357 q 457 256 420 296 q 496 151 496 212 q 378 1 496 38 q 278 -14 332 -14 q 102 34 176 -12 q 84 -7 102 -1 q 65 -8 76 -8 l 65 198 l 104 198 q 259 23 107 24 m 275 680 q 358 732 313 680 q 392 773 369 743 q 469 864 438 830 l 450 886 q 275 787 378 840 q 98 887 151 850 l 79 863 q 160 769 113 826 q 241 688 217 700 q 275 680 259 680 z "},"§":{"ha":633,"x_min":69,"x_max":570,"o":"m 175 435 q 236 518 176 492 q 309 484 260 506 q 445 403 418 435 q 463 355 463 380 q 400 270 461 296 q 328 305 377 282 q 193 388 220 355 q 175 435 175 411 m 570 384 q 454 540 570 476 q 370 579 427 553 q 235 661 263 627 q 213 716 213 686 q 266 793 213 769 q 319 804 290 804 q 414 750 396 804 q 420 726 416 742 q 453 673 431 681 q 480 667 465 667 q 528 723 526 670 q 437 821 528 787 q 328 838 385 838 q 138 768 198 838 q 106 678 106 730 q 199 540 107 598 q 71 425 83 513 q 69 406 69 415 q 189 247 69 313 q 269 206 214 232 q 400 125 374 156 q 419 76 419 102 q 361 -8 419 14 q 315 -16 339 -16 q 221 41 240 -16 q 214 65 218 49 q 180 121 202 111 q 157 125 170 125 q 102 69 107 115 q 193 -31 102 3 q 304 -50 244 -50 q 492 18 431 -50 q 528 110 528 57 q 435 248 526 190 q 568 361 552 275 q 570 384 570 373 z "},";":{"ha":260,"x_min":61,"x_max":212,"o":"m 206 388 q 164 453 206 433 q 133 460 149 460 q 68 419 88 460 q 61 388 61 404 q 103 323 61 340 q 133 316 118 316 q 199 358 182 316 q 206 388 206 373 m 212 76 q 156 167 212 151 q 132 171 144 171 q 68 129 87 171 q 61 98 61 114 q 106 33 61 50 q 119 28 114 30 q 152 3 151 20 q 94 -95 151 -35 l 122 -115 q 212 76 206 -19 z "},"-":{"ha":454,"x_min":58,"x_max":361,"o":"m 58 315 l 361 315 l 361 254 l 58 254 l 58 315 z "},"‐":{"ha":454,"x_min":58,"x_max":361,"o":"m 58 315 l 361 315 l 361 254 l 58 254 l 58 315 z "},"අ":{"ha":758,"x_min":43,"x_max":699,"o":"m 543 304 q 514 308 524 304 l 514 416 q 552 524 514 487 q 557 529 555 528 l 557 526 q 582 468 557 502 q 590 457 587 461 q 612 381 612 423 q 562 307 612 320 q 543 304 552 304 m 475 -285 l 514 -285 l 514 5 q 693 68 627 24 l 693 110 q 514 41 623 57 l 514 271 q 567 264 545 264 q 684 319 650 264 q 699 372 699 343 q 637 479 699 429 q 593 524 598 511 q 590 534 590 529 q 602 557 591 549 l 612 562 l 582 576 q 510 532 540 566 q 475 415 475 490 l 475 35 q 403 33 431 33 q 179 155 220 33 q 170 217 170 184 q 236 351 170 307 q 349 380 281 380 l 458 380 l 458 384 q 350 563 458 525 q 279 574 317 574 q 151 522 183 574 q 141 488 141 506 q 179 439 141 450 q 195 437 187 437 q 252 475 232 438 q 294 517 267 510 q 320 519 307 519 q 407 458 381 519 q 418 410 416 434 l 267 410 q 66 308 121 410 q 43 212 43 264 q 187 23 43 77 q 373 -5 264 -5 q 475 0 431 -5 l 475 -285 z "},"ආ":{"ha":1150,"x_min":43,"x_max":1076,"o":"m 543 304 q 514 308 524 304 l 514 416 q 552 524 514 487 q 557 529 555 528 l 557 526 q 582 468 557 502 q 590 457 587 461 q 612 381 612 423 q 562 307 612 320 q 543 304 552 304 m 475 -285 l 514 -285 l 514 5 q 693 68 627 24 l 693 110 q 514 41 623 57 l 514 271 q 567 264 545 264 q 684 319 650 264 q 699 372 699 343 q 637 479 699 429 q 593 524 598 511 q 590 534 590 529 q 602 557 591 549 l 612 562 l 582 576 q 510 532 540 566 q 475 415 475 490 l 475 35 q 403 33 431 33 q 179 155 220 33 q 170 217 170 184 q 236 351 170 307 q 349 380 281 380 l 458 380 l 458 384 q 350 563 458 525 q 279 574 317 574 q 151 522 183 574 q 141 488 141 506 q 179 439 141 450 q 195 437 187 437 q 252 475 232 438 q 294 517 267 510 q 320 519 307 519 q 407 458 381 519 q 418 410 416 434 l 267 410 q 66 308 121 410 q 43 212 43 264 q 187 23 43 77 q 373 -5 264 -5 q 475 0 431 -5 l 475 -285 m 746 145 q 830 9 746 43 q 894 -1 859 -1 q 1067 172 1038 -1 q 1076 266 1076 216 q 940 529 1076 495 q 894 534 918 534 q 770 471 812 534 q 746 387 746 433 q 747 358 746 368 l 784 358 q 783 377 783 366 q 836 471 783 448 q 865 477 849 477 q 968 266 968 475 q 872 56 968 64 q 865 56 868 56 q 785 126 799 56 q 783 155 783 140 q 784 175 783 168 l 747 175 q 746 145 746 164 z "},"ඈ":{"ha":1166,"x_min":43,"x_max":1122,"o":"m 543 304 q 514 308 524 304 l 514 416 q 552 524 514 487 q 557 529 555 528 l 557 526 q 582 468 557 502 q 590 457 587 461 q 612 381 612 423 q 562 307 612 320 q 543 304 552 304 m 475 -285 l 514 -285 l 514 5 q 693 68 627 24 l 693 110 q 514 41 623 57 l 514 271 q 567 264 545 264 q 684 319 650 264 q 699 372 699 343 q 637 479 699 429 q 593 524 598 511 q 590 534 590 529 q 602 557 591 549 l 612 562 l 582 576 q 510 532 540 566 q 475 415 475 490 l 475 35 q 403 33 431 33 q 179 155 220 33 q 170 217 170 184 q 236 351 170 307 q 349 380 281 380 l 458 380 l 458 384 q 350 563 458 525 q 279 574 317 574 q 151 522 183 574 q 141 488 141 506 q 179 439 141 450 q 195 437 187 437 q 252 475 232 438 q 294 517 267 510 q 320 519 307 519 q 407 458 381 519 q 418 410 416 434 l 267 410 q 66 308 121 410 q 43 212 43 264 q 187 23 43 77 q 373 -5 264 -5 q 475 0 431 -5 l 475 -285 m 722 416 l 986 416 l 811 290 l 811 263 l 1025 263 q 826 -18 827 129 q 920 -178 826 -134 q 1015 -197 962 -197 q 1122 -172 1069 -197 l 1122 -140 q 940 -27 970 -140 q 935 23 935 -3 q 1046 241 935 142 q 1077 266 1062 255 l 1077 296 l 878 296 l 1046 420 l 1046 449 l 722 449 l 722 416 z "},"ඇ":{"ha":1162,"x_min":43,"x_max":1126,"o":"m 724 415 l 998 415 q 831 109 867 269 q 822 20 822 62 q 903 -170 822 -115 q 991 -195 943 -195 q 1126 -141 1078 -194 l 1120 -117 q 1069 -119 1090 -121 q 940 -8 971 -109 q 929 77 929 31 q 1046 427 930 252 q 1050 449 1048 445 l 724 449 l 724 415 m 543 304 q 514 308 524 304 l 514 416 q 552 524 514 487 q 557 529 555 528 l 557 526 q 582 468 557 502 q 590 457 587 461 q 612 381 612 423 q 562 307 612 320 q 543 304 552 304 m 475 -285 l 514 -285 l 514 5 q 693 68 627 24 l 693 110 q 514 41 623 57 l 514 271 q 567 264 545 264 q 684 319 650 264 q 699 372 699 343 q 637 479 699 429 q 593 524 598 511 q 590 534 590 529 q 602 557 591 549 l 612 562 l 582 576 q 510 532 540 566 q 475 415 475 490 l 475 35 q 403 33 431 33 q 179 155 220 33 q 170 217 170 184 q 236 351 170 307 q 349 380 281 380 l 458 380 l 458 384 q 350 563 458 525 q 279 574 317 574 q 151 522 183 574 q 141 488 141 506 q 179 439 141 450 q 195 437 187 437 q 252 475 232 438 q 294 517 267 510 q 320 519 307 519 q 407 458 381 519 q 418 410 416 434 l 267 410 q 66 308 121 410 q 43 212 43 264 q 187 23 43 77 q 373 -5 264 -5 q 475 0 431 -5 l 475 -285 z "},"ඓ":{"ha":1560,"x_min":43,"x_max":1496,"o":"m 834 218 q 994 20 834 71 q 1141 0 1059 0 q 1446 144 1354 0 q 1496 324 1496 224 q 1439 548 1496 444 q 1427 570 1432 559 q 1263 753 1367 673 q 1204 791 1232 776 q 1149 636 1149 726 q 1214 496 1149 538 q 1282 476 1244 476 q 1398 545 1366 477 q 1450 363 1450 467 q 1310 144 1450 205 q 1143 113 1240 113 q 899 202 941 113 q 890 245 890 222 q 940 331 891 297 q 1081 368 997 368 l 1165 368 l 1165 384 q 1092 544 1165 494 q 994 572 1050 572 q 869 517 901 572 q 859 477 859 498 q 897 429 859 438 q 909 427 903 427 q 960 472 948 430 q 1028 522 975 521 q 1107 469 1078 522 q 1123 408 1123 441 l 1123 400 l 796 400 l 796 358 q 945 368 841 366 l 959 368 q 878 328 911 357 q 834 218 834 288 m 1191 643 q 1217 741 1191 701 q 1371 583 1317 666 q 1293 526 1352 528 q 1192 621 1203 526 q 1191 643 1191 632 m 308 332 q 350 389 308 372 q 381 395 366 395 q 448 357 429 395 q 454 332 454 345 q 412 275 454 293 q 381 270 396 270 q 315 308 334 270 q 308 332 308 319 m 43 281 q 161 54 43 134 q 357 0 244 0 q 620 114 549 0 q 650 225 650 163 q 533 407 650 353 q 399 434 475 434 q 278 378 315 434 q 264 330 264 355 q 324 243 264 271 q 382 229 353 229 q 483 278 450 229 q 498 327 498 300 q 473 389 496 363 q 583 311 556 373 q 593 266 593 289 q 473 129 593 168 q 357 111 420 111 q 155 197 228 111 q 109 321 109 252 q 221 491 109 430 q 399 534 300 534 q 656 430 557 534 q 735 273 720 362 l 773 273 q 631 506 760 419 q 399 572 530 572 q 133 477 237 572 q 43 281 45 396 z "},"ඖ":{"ha":1369,"x_min":39,"x_max":1305,"o":"m 363 480 q 400 537 363 521 q 425 543 411 543 q 481 505 465 543 q 487 480 487 494 q 449 425 487 441 q 425 419 438 419 q 368 457 384 419 q 363 480 363 468 m 39 297 q 109 75 39 163 q 259 0 168 1 q 404 73 365 1 q 522 0 431 7 q 537 0 529 0 q 760 179 705 0 q 781 336 781 250 q 662 662 781 540 q 400 765 557 765 q 87 623 190 765 q 83 617 84 620 l 123 617 q 350 734 208 722 q 395 735 372 735 q 665 602 571 735 q 728 388 728 511 q 656 163 728 241 q 541 111 608 111 q 427 170 450 111 q 420 202 420 186 l 420 232 l 388 232 l 388 203 q 312 115 388 133 q 264 110 290 110 q 114 209 164 110 q 84 343 84 267 q 132 503 84 442 q 193 537 160 536 q 228 492 228 534 l 228 449 q 315 312 228 349 q 392 297 350 297 q 534 366 491 297 q 553 437 553 399 q 486 562 553 528 q 426 575 458 575 q 332 518 357 575 q 324 477 324 499 q 373 393 324 420 q 422 381 395 381 q 511 434 483 381 q 514 438 513 437 q 515 431 515 434 q 446 345 515 368 q 391 336 419 336 q 273 400 301 336 q 263 446 263 422 l 263 491 q 239 560 262 543 q 197 572 220 572 q 69 463 114 572 q 39 297 39 388 m 827 425 q 892 298 827 336 q 959 281 922 281 q 1072 339 1044 281 q 1080 381 1080 359 q 1031 454 1078 429 l 1031 464 q 1099 534 1034 533 q 1192 315 1192 532 q 1111 46 1192 69 q 1090 43 1101 43 q 1000 118 1020 43 q 993 165 993 141 q 997 208 993 186 l 963 208 q 958 159 958 184 q 1032 14 958 54 q 1105 -3 1065 -3 q 1287 153 1242 -3 q 1305 292 1305 216 q 1225 533 1305 461 q 1120 572 1181 572 q 997 488 1013 572 q 994 463 994 476 q 996 446 994 452 q 1023 384 1023 416 q 977 320 1023 331 q 958 317 967 317 q 873 381 895 317 q 867 426 867 403 q 924 567 868 518 l 876 567 q 827 425 827 513 z "},"බ":{"ha":819,"x_min":43,"x_max":762,"o":"m 134 100 q 170 42 134 62 q 198 35 184 35 q 256 72 236 35 q 263 100 263 87 q 227 159 263 138 q 198 165 212 165 q 141 129 160 165 q 134 100 134 114 m 43 248 q 156 477 43 400 q 324 525 228 525 q 515 449 452 525 q 555 343 555 404 q 484 214 555 252 q 457 201 476 209 q 403 159 411 180 q 400 141 400 151 q 460 95 403 96 q 640 218 570 95 q 696 426 696 315 q 575 686 696 601 q 387 742 498 742 q 126 623 203 741 l 84 623 q 320 770 145 747 q 387 774 353 774 q 697 620 598 774 q 762 376 762 519 q 669 71 762 174 q 505 -3 602 -3 q 374 65 412 -3 q 358 129 358 94 q 414 220 358 187 q 469 250 468 250 q 499 312 498 274 q 397 401 499 378 q 313 411 358 411 q 125 330 187 411 q 85 208 85 278 q 102 121 85 156 q 163 197 109 178 q 198 202 180 202 q 290 151 259 202 q 304 102 304 127 q 245 9 304 37 q 198 -1 222 -1 q 60 126 98 -1 q 43 248 43 182 z "},"භ":{"ha":887,"x_min":8,"x_max":822,"o":"m 8 358 q 165 368 47 366 q 65 205 66 308 q 163 30 65 85 q 288 -1 217 -1 q 476 85 418 -1 q 506 193 506 133 q 454 307 506 278 q 419 315 437 315 q 380 305 395 313 q 559 468 423 467 q 720 363 671 468 q 743 248 743 311 q 656 71 743 129 q 536 35 605 35 q 487 38 503 35 l 487 3 q 541 -1 515 -1 q 762 102 681 -1 q 822 279 822 179 q 736 514 822 431 q 591 572 675 572 q 407 458 483 572 q 338 255 346 369 l 368 243 q 412 282 382 281 q 454 241 446 282 q 456 224 456 232 q 366 122 456 148 q 298 113 334 113 q 138 179 182 113 q 121 241 121 208 q 209 353 121 317 q 301 370 252 370 q 338 368 323 370 q 263 545 336 490 q 178 572 225 572 q 73 515 102 572 q 65 481 65 498 q 111 431 72 435 q 164 471 146 433 q 214 506 179 505 q 285 449 263 506 q 294 401 294 426 l 288 401 l 282 401 l 8 401 l 8 358 z "},"ච":{"ha":791,"x_min":19,"x_max":762,"o":"m 84 218 q 244 20 84 71 q 391 0 309 0 q 708 155 613 0 q 762 363 762 243 q 647 662 762 547 q 401 764 545 764 q 111 623 210 762 l 155 623 q 401 732 245 732 q 636 621 545 732 q 709 406 709 529 q 566 148 709 220 q 395 113 494 113 q 151 201 194 113 q 141 245 141 222 q 193 331 142 300 q 336 366 248 366 l 423 366 l 423 384 q 313 564 423 529 q 250 572 283 572 q 123 521 159 572 q 110 476 110 499 q 145 427 110 438 q 157 426 152 426 q 212 471 195 427 q 255 518 227 509 q 288 522 270 522 q 366 468 340 522 q 378 408 378 441 l 378 400 l 19 400 l 19 357 q 197 366 61 363 l 202 366 q 129 328 161 357 q 84 218 84 286 z "},"ඡ":{"ha":791,"x_min":43,"x_max":754,"o":"m 627 385 q 499 412 575 410 q 522 543 503 483 l 533 543 q 667 393 666 540 q 665 361 667 381 q 627 385 644 376 m 407 411 q 406 429 406 418 q 480 534 407 509 q 463 414 467 480 q 407 411 427 414 m 43 225 q 237 18 43 65 q 395 0 308 0 q 681 96 595 0 q 727 222 727 149 q 696 328 726 282 q 705 396 705 361 q 605 566 705 528 q 537 576 574 576 l 534 576 q 595 677 559 637 q 712 747 642 727 q 753 773 747 758 q 754 787 754 779 q 728 817 754 808 q 715 818 722 818 q 574 732 646 818 q 571 730 571 731 q 491 572 521 667 q 370 442 380 551 q 369 423 369 433 q 376 377 369 401 q 463 382 420 380 q 541 224 465 248 q 574 218 557 218 q 673 275 636 220 q 674 254 674 266 q 473 115 674 138 q 387 111 433 111 q 121 191 182 111 q 99 255 99 220 q 175 359 99 324 q 304 384 227 384 q 336 381 319 384 q 342 431 342 404 q 259 562 342 530 q 197 572 231 572 q 83 521 114 572 q 71 477 71 500 q 107 427 71 438 q 121 426 114 426 q 176 467 156 426 q 183 480 179 472 q 236 517 202 515 q 301 461 289 517 q 304 438 304 449 q 301 412 304 430 q 275 414 293 414 q 71 320 130 414 q 43 225 43 277 m 576 255 q 499 381 503 256 q 652 319 612 374 q 576 255 624 256 z "},"ද":{"ha":604,"x_min":41,"x_max":541,"o":"m 41 224 q 296 420 43 419 l 453 420 q 374 519 437 502 q 347 524 361 524 q 289 483 309 522 q 233 444 269 445 q 182 492 187 452 q 247 564 182 543 q 308 574 275 574 q 480 465 434 574 q 502 388 494 431 l 340 388 q 163 244 171 388 q 163 229 163 236 q 245 72 163 127 q 353 39 294 39 q 502 115 433 39 q 507 122 505 119 l 538 99 q 446 -23 468 16 q 414 -136 414 -83 q 510 -267 414 -232 q 541 -277 525 -273 l 541 -315 q 469 -321 506 -321 q 331 -229 357 -319 q 326 -187 326 -209 q 422 14 327 -109 q 311 -1 373 -1 q 69 111 134 -1 q 41 224 41 161 z "},"ඩ":{"ha":856,"x_min":20,"x_max":792,"o":"m 20 380 l 20 418 l 345 418 q 297 506 342 477 q 262 517 279 517 q 201 480 222 514 q 149 448 180 448 q 100 481 110 448 q 99 495 99 490 q 168 566 99 547 q 218 572 194 572 q 378 461 342 572 q 391 380 389 423 l 293 380 q 130 297 171 380 q 117 240 117 269 q 183 130 117 165 q 263 113 218 113 q 385 164 353 113 q 396 205 396 183 l 396 247 l 431 247 l 431 205 q 500 121 431 145 q 559 113 529 113 q 719 237 674 113 q 739 368 739 296 q 632 640 739 533 q 395 736 536 736 q 141 620 239 735 l 96 620 q 403 770 202 770 q 700 631 589 770 q 792 342 792 513 q 699 52 792 142 q 567 0 644 0 q 420 72 475 0 q 415 79 418 76 q 263 0 350 1 q 87 103 141 0 q 61 214 61 155 q 138 365 61 313 q 165 380 152 373 l 20 380 z "},"ඪ":{"ha":856,"x_min":20,"x_max":792,"o":"m 20 380 l 20 418 l 342 418 q 292 507 338 479 q 258 517 274 517 q 198 480 220 514 q 146 448 178 448 q 98 481 107 448 q 96 495 96 490 q 167 566 96 548 q 214 572 190 572 q 374 461 338 572 q 387 380 385 423 l 293 380 q 130 297 171 380 q 117 240 117 269 q 183 130 117 165 q 263 113 218 113 q 385 164 353 113 q 396 205 396 183 l 396 247 l 431 247 l 431 205 q 500 121 431 145 q 559 113 529 113 q 720 243 680 113 q 736 357 736 294 q 681 559 736 460 q 559 480 629 481 q 434 562 468 480 q 422 632 422 594 q 476 798 422 715 l 476 799 q 690 621 595 751 q 792 331 792 479 q 684 37 792 117 q 564 0 633 0 q 420 72 475 0 q 415 79 416 76 q 263 0 350 1 q 87 103 141 0 q 61 214 61 155 q 138 365 61 313 q 165 380 152 373 l 20 380 m 461 637 q 562 522 464 524 q 656 595 620 524 q 502 745 587 697 q 494 749 496 747 q 461 637 465 704 z "},"ධ":{"ha":845,"x_min":43,"x_max":780,"o":"m 43 258 q 122 52 43 126 q 252 0 176 0 q 401 79 339 1 q 559 0 463 1 q 758 178 705 0 q 780 346 780 254 q 655 663 780 541 q 396 768 547 768 q 85 620 199 766 l 129 620 q 389 736 235 736 q 644 618 547 736 q 727 381 727 518 q 652 153 727 225 q 551 113 610 113 q 427 187 449 113 q 422 225 422 205 l 422 273 l 384 273 l 384 225 q 286 115 384 132 q 251 113 269 113 q 117 194 160 113 q 94 289 94 237 q 168 453 94 391 q 279 494 218 494 l 293 494 l 293 528 q 201 513 245 528 q 71 385 115 483 q 43 258 43 326 z "},"එ":{"ha":788,"x_min":22,"x_max":722,"o":"m 60 218 q 220 20 60 71 q 366 0 285 0 q 671 144 579 0 q 722 324 722 224 q 665 548 722 444 q 652 570 658 559 q 488 753 593 673 q 430 791 457 776 q 374 636 374 726 q 439 496 374 538 q 507 476 469 476 q 624 545 591 477 q 675 363 675 467 q 536 144 675 205 q 369 113 465 113 q 125 202 167 113 q 115 245 115 222 q 165 331 117 297 q 307 368 222 368 l 391 368 l 391 384 q 317 544 391 494 q 220 572 275 572 q 95 517 126 572 q 84 477 84 498 q 122 429 84 438 q 134 427 129 427 q 186 472 174 430 q 254 522 201 521 q 332 469 304 522 q 349 408 349 441 l 349 400 l 22 400 l 22 358 q 171 368 66 366 l 184 368 q 103 328 137 357 q 60 218 60 288 m 416 643 q 442 741 416 701 q 597 583 543 666 q 518 526 578 528 q 418 621 429 526 q 416 643 416 632 z "},"ඒ":{"ha":788,"x_min":22,"x_max":788,"o":"m 621 682 l 621 859 q 723 779 705 812 q 732 738 732 760 q 663 674 730 675 q 621 682 637 674 m 60 218 q 220 20 60 71 q 366 0 285 0 q 669 141 575 0 q 722 317 722 220 q 667 521 722 427 q 652 545 661 533 q 621 591 633 575 l 621 651 q 681 640 650 640 q 780 696 755 640 q 788 735 788 715 q 712 853 788 812 q 665 875 697 861 q 583 920 606 901 l 583 637 q 430 766 505 726 q 374 612 374 701 q 439 472 374 514 q 507 452 469 452 q 624 522 590 453 q 675 357 675 444 q 555 153 675 218 q 369 113 479 113 q 125 202 167 113 q 115 245 115 222 q 165 331 117 297 q 307 368 222 368 l 382 368 l 382 384 q 312 538 382 491 q 222 564 274 564 q 96 511 132 564 q 84 468 84 491 q 122 422 84 430 q 133 420 127 420 q 186 463 171 423 q 256 514 208 513 q 330 458 305 514 q 340 408 340 434 l 340 400 l 22 400 l 22 358 q 171 368 66 366 l 184 368 q 103 328 137 357 q 60 218 60 288 m 416 618 q 442 718 416 675 q 597 559 541 644 q 518 502 578 503 q 418 597 429 502 q 416 618 416 608 z "},"ෆ":{"ha":803,"x_min":43,"x_max":741,"o":"m 43 281 q 118 514 43 431 q 247 571 171 571 q 392 476 351 570 q 537 571 434 570 q 712 437 659 571 q 741 281 741 366 q 669 57 741 140 q 543 -1 616 0 q 492 8 517 -1 l 492 42 q 537 34 515 34 q 666 130 624 34 q 689 252 689 184 q 604 446 689 403 q 538 461 574 461 q 416 362 431 461 q 414 332 414 349 l 414 283 l 370 283 l 370 332 q 269 460 370 446 q 245 461 258 461 q 102 324 129 461 q 95 251 95 290 q 165 64 95 123 q 248 34 203 34 q 292 42 270 34 l 292 8 q 241 -1 266 -1 q 73 125 127 -1 q 43 281 43 197 z "},"ග":{"ha":842,"x_min":45,"x_max":776,"o":"m 45 274 q 130 53 45 133 q 275 -3 191 -3 q 441 83 389 -3 q 467 180 467 126 q 400 311 467 281 q 358 320 380 320 q 328 313 339 319 q 435 461 351 420 q 513 477 472 477 q 684 372 635 477 q 707 258 707 321 q 620 76 707 140 q 480 33 560 33 q 448 35 468 33 l 448 1 q 488 -1 477 -1 q 720 110 639 -1 q 776 288 776 187 q 690 514 776 433 q 543 572 628 572 q 326 416 395 572 q 286 255 294 345 l 320 255 q 323 279 320 263 q 354 289 338 289 q 414 239 404 289 q 415 218 415 228 q 331 119 415 142 q 274 113 305 113 q 121 206 170 113 q 96 312 96 255 q 178 498 96 431 q 294 540 229 540 l 309 540 l 309 571 q 301 572 307 571 q 292 572 294 572 q 98 463 170 572 q 45 274 45 381 z "},"ඝ":{"ha":897,"x_min":7,"x_max":831,"o":"m 68 203 q 140 43 68 104 q 263 -1 193 -1 q 369 15 316 -1 q 373 49 373 24 q 363 114 373 62 q 361 148 361 130 q 416 231 361 214 q 439 235 427 235 q 513 187 494 235 q 519 148 519 168 q 510 84 519 133 q 506 49 506 66 q 511 15 506 26 q 616 -1 566 -1 q 799 92 741 -1 q 831 220 831 146 q 765 369 831 312 q 728 393 747 384 q 766 464 762 419 q 678 567 766 547 q 631 572 656 572 q 488 483 530 572 q 468 385 468 439 l 468 372 q 594 384 525 384 q 773 288 743 384 q 779 245 779 267 q 693 129 779 165 q 606 111 652 111 q 556 119 568 111 q 557 159 559 148 q 472 269 555 250 q 439 273 456 273 q 332 210 359 273 q 321 159 323 187 q 323 119 320 146 q 273 111 311 111 q 144 172 186 111 q 123 239 123 202 q 208 355 123 317 q 289 373 247 373 l 415 373 l 415 391 q 330 555 415 511 q 248 572 294 572 q 122 521 157 572 q 109 476 109 499 q 145 427 109 435 q 157 426 152 426 q 210 471 194 427 q 281 521 231 519 q 359 468 334 521 q 372 414 372 444 q 370 408 372 412 l 7 408 l 7 365 q 179 373 38 370 q 69 222 77 334 q 68 203 68 213 m 507 411 q 623 519 519 518 q 709 477 693 519 q 713 458 713 468 q 694 406 712 425 q 590 419 658 419 q 507 411 534 419 z "},"හ":{"ha":864,"x_min":43,"x_max":802,"o":"m 43 205 q 141 30 43 85 q 266 -1 195 -1 q 454 85 396 -1 q 484 193 484 133 q 433 307 484 278 q 397 315 415 315 q 359 305 374 313 q 537 468 403 467 q 699 363 650 468 q 722 248 722 311 q 635 71 722 129 q 514 35 583 35 q 467 38 483 35 l 467 3 q 521 -1 495 -1 q 742 102 661 -1 q 802 279 802 179 q 715 514 802 431 q 570 572 654 572 q 385 458 461 572 q 316 255 324 369 l 347 243 q 391 282 362 281 q 433 241 425 282 q 434 224 434 232 q 345 122 434 148 q 277 113 312 113 q 118 178 161 113 q 99 241 99 206 q 201 362 99 336 q 271 370 233 370 q 316 368 285 370 q 241 545 315 490 q 156 572 203 572 q 52 515 80 572 q 43 481 43 498 q 90 431 50 435 q 142 471 127 433 q 193 506 160 505 q 263 449 241 506 q 273 401 273 426 l 256 401 q 73 312 129 401 q 43 205 43 264 z "},"්":{"ha":1,"x_min":-186,"x_max":14,"o":"m -186 461 l -186 902 q -90 850 -168 888 q 5 765 -12 814 q 14 718 14 743 q -43 629 14 655 q -90 620 -65 620 q -149 633 -121 620 l -149 438 l -186 461 m -149 666 q -106 656 -132 656 q -39 707 -50 656 q -38 722 -38 715 q -98 811 -38 769 q -149 845 -109 818 l -149 666 z "},"ඉ":{"ha":785,"x_min":43,"x_max":720,"o":"m 43 293 q 178 524 43 448 q 376 572 263 572 q 667 445 578 572 q 720 262 720 369 q 623 45 720 126 q 509 -8 571 4 q 581 -85 574 -20 q 582 -99 582 -92 q 481 -201 582 -172 q 395 -212 441 -212 q 235 -134 260 -212 q 229 -100 229 -118 q 263 -52 229 -60 q 274 -50 269 -50 q 312 -85 307 -57 q 311 -99 312 -88 q 308 -125 308 -115 q 397 -182 312 -180 q 490 -133 473 -182 q 494 -110 494 -121 q 411 -26 494 -45 q 354 -20 385 -20 q 330 -22 340 -20 l 330 16 q 362 18 347 18 q 395 16 373 18 q 429 15 416 15 q 620 103 553 15 q 661 233 661 159 q 548 422 661 358 q 377 464 475 464 q 145 378 217 464 q 106 266 106 331 q 183 137 106 183 q 298 107 233 107 q 439 156 403 109 q 377 138 415 138 q 289 189 317 138 q 275 236 275 212 q 330 331 275 302 q 378 343 353 343 q 490 271 464 343 q 498 224 498 250 q 365 79 498 106 q 292 72 331 72 q 84 163 152 72 q 43 293 43 218 m 313 240 q 353 180 313 199 q 381 174 368 174 q 442 212 423 174 q 449 240 449 227 q 410 300 449 281 q 381 307 395 307 q 320 269 339 307 q 313 240 313 254 z "},"ඊ":{"ha":699,"x_min":41,"x_max":678,"o":"m 543 620 q 576 572 543 583 q 594 570 586 570 q 642 605 632 570 q 644 620 644 612 q 609 667 644 658 q 594 670 602 670 q 545 636 557 670 q 543 620 543 628 m 507 620 q 555 696 507 673 q 594 705 574 705 q 670 658 647 705 q 678 620 678 639 q 631 544 678 566 q 594 536 613 536 q 517 581 541 536 q 507 620 507 600 m 193 712 q 228 665 193 674 q 243 662 236 662 q 290 697 281 662 q 293 712 293 704 q 258 760 293 750 q 243 762 251 762 q 195 727 205 762 q 193 712 193 720 m 156 712 q 203 788 156 765 q 243 798 222 798 q 319 750 296 798 q 327 712 327 731 q 279 636 327 658 q 243 628 262 628 q 165 673 190 628 q 156 712 156 692 m 41 282 q 190 537 41 441 q 225 559 206 548 q 385 669 315 605 q 401 685 393 677 q 469 773 420 704 q 536 826 506 826 q 572 799 571 825 q 477 681 570 758 q 327 578 401 620 q 347 579 336 579 q 570 484 483 578 q 639 298 639 406 q 537 75 639 163 q 328 0 450 0 q 102 102 186 0 q 41 282 41 179 m 91 319 q 180 149 91 205 q 315 114 237 114 q 515 205 445 114 q 563 346 563 266 q 461 522 563 469 q 349 547 411 547 q 161 472 241 547 q 91 319 92 406 z "},"ජ":{"ha":791,"x_min":43,"x_max":753,"o":"m 583 412 q 521 471 532 412 q 518 494 518 481 q 522 537 518 517 q 549 538 532 538 q 646 488 631 538 q 648 471 648 480 q 605 415 648 427 q 583 412 594 412 m 431 410 q 427 442 427 429 q 481 528 429 506 q 480 495 480 515 q 506 411 481 445 q 472 412 494 412 q 431 410 452 412 m 43 225 q 237 18 43 65 q 395 0 308 0 q 681 96 595 0 q 727 222 727 149 q 627 384 726 336 q 689 468 686 407 q 606 567 689 541 q 555 575 581 575 q 532 574 538 575 q 598 675 552 632 q 708 745 628 704 q 753 787 751 769 q 718 818 745 814 q 602 758 666 817 q 488 568 514 675 q 388 438 389 541 q 397 377 388 407 q 418 378 403 377 q 471 382 452 382 q 666 296 629 382 q 673 256 673 275 q 468 117 673 138 q 387 113 430 113 q 117 197 174 113 q 99 255 99 224 q 182 362 99 328 q 304 382 232 382 q 347 380 316 382 q 353 431 353 403 q 271 560 353 528 q 203 572 240 572 q 85 522 118 572 q 73 479 73 502 q 110 427 73 437 q 122 426 117 426 q 179 468 157 426 q 184 477 182 473 q 244 517 205 515 q 311 461 297 517 q 313 438 313 449 q 311 412 313 430 q 275 414 297 414 q 71 320 130 414 q 43 225 43 277 z "},"ඣ":{"ha":1439,"x_min":28,"x_max":1377,"o":"m 98 138 q 171 281 121 206 q 241 361 208 331 q 396 384 292 384 q 598 298 545 384 q 620 222 620 264 q 570 126 620 155 q 515 113 545 113 q 410 189 425 113 q 407 228 407 206 l 407 229 l 372 229 l 372 228 q 267 113 369 114 q 168 138 227 113 q 129 149 144 149 q 98 138 113 148 m 401 419 q 289 407 332 419 q 578 534 420 521 q 627 536 602 536 q 808 515 731 536 q 798 513 804 515 q 670 389 715 484 q 644 307 651 350 q 401 419 570 419 m 28 28 l 62 15 q 115 96 71 95 q 153 65 132 96 q 224 5 186 18 q 270 -1 245 -1 q 392 84 355 0 q 526 -1 434 -1 q 667 91 631 -1 q 674 110 671 100 q 848 0 732 1 q 997 79 935 1 q 1156 0 1058 1 q 1355 178 1302 0 q 1377 346 1377 254 q 1251 663 1377 541 q 991 768 1142 768 q 682 620 795 766 l 724 620 q 986 736 830 736 q 1242 617 1145 736 q 1322 381 1322 518 q 1246 152 1322 222 q 1147 113 1204 113 q 1023 186 1047 113 q 1017 225 1017 205 l 1017 273 l 981 273 l 981 225 q 883 115 981 133 q 846 113 865 113 q 712 197 754 113 q 690 289 690 239 q 765 453 690 391 q 876 494 815 494 l 888 494 l 888 528 q 627 574 793 572 q 304 463 435 574 q 290 452 297 457 q 292 472 292 461 q 231 564 292 540 q 180 574 208 574 q 60 515 100 574 q 38 450 38 486 q 72 396 38 408 q 92 393 83 393 q 142 427 129 395 q 152 465 145 433 q 156 480 153 472 q 209 518 170 515 q 255 467 254 515 q 224 400 254 434 q 144 308 165 339 q 42 92 77 216 q 28 28 33 57 z "},"ඥ":{"ha":1115,"x_min":35,"x_max":1058,"o":"m 178 274 q 263 53 178 133 q 408 -3 324 -3 q 575 87 525 -3 q 586 111 582 99 q 826 -1 652 0 q 937 14 890 -1 q 842 -187 842 -109 q 930 -312 842 -285 q 986 -321 956 -320 q 1058 -315 1024 -321 l 1058 -277 q 933 -170 949 -248 q 930 -136 930 -153 q 1036 76 930 -45 q 1044 85 1039 80 q 1055 99 1053 95 l 1024 122 q 869 39 948 42 q 718 114 773 39 q 680 229 680 165 q 834 388 680 378 q 857 388 845 388 l 1019 388 q 891 566 990 536 q 873 570 882 568 q 742 581 825 581 q 418 255 448 578 l 453 255 q 456 279 453 263 q 486 289 468 289 q 545 236 536 289 q 547 217 547 227 q 458 118 547 140 q 406 113 434 113 q 252 210 298 113 q 229 312 229 256 q 309 498 229 431 q 426 540 361 540 l 441 540 l 441 571 q 435 571 439 571 q 427 572 430 572 l 429 572 q 316 574 411 574 q 54 415 113 574 q 35 293 35 361 q 119 45 35 137 q 179 0 148 16 l 179 41 q 76 289 76 133 q 195 515 76 460 q 302 537 243 536 q 183 340 206 475 q 178 274 178 308 m 490 320 q 461 313 473 319 q 633 532 498 490 q 712 543 671 543 l 722 543 q 699 492 699 521 q 738 445 699 452 q 750 444 745 444 q 806 483 787 446 q 864 524 827 522 q 960 452 932 524 q 970 420 967 435 l 812 420 q 566 286 602 419 q 490 320 534 320 z "},"ක":{"ha":987,"x_min":28,"x_max":929,"o":"m 28 28 l 62 15 q 115 96 71 95 q 153 65 132 96 q 224 5 186 18 q 270 -1 245 -1 q 392 84 355 0 q 526 -1 434 -1 q 670 96 633 -1 q 682 167 682 130 q 553 387 682 321 q 401 419 487 419 q 289 407 331 419 q 519 481 380 481 q 769 387 675 481 q 846 194 846 308 q 788 54 846 99 q 734 35 762 35 q 670 50 692 35 l 670 15 q 735 -1 694 -1 q 903 125 852 -1 q 929 255 929 187 q 818 500 929 410 q 600 575 728 575 q 302 463 427 575 q 290 452 296 457 q 292 472 292 461 q 231 564 292 540 q 180 574 208 574 q 60 515 100 574 q 38 450 38 486 q 72 396 38 408 q 92 393 83 393 q 142 427 129 395 q 152 465 145 433 q 156 480 153 472 q 209 518 170 515 q 255 467 254 515 q 224 400 254 434 q 144 308 165 339 q 42 92 77 216 q 28 28 33 57 m 98 138 q 171 281 121 206 q 241 361 208 331 q 396 384 292 384 q 598 298 545 384 q 620 222 620 264 q 570 126 620 155 q 515 113 545 113 q 410 189 425 113 q 407 228 407 206 l 407 229 l 372 229 l 372 228 q 267 113 369 114 q 168 138 227 113 q 129 149 144 149 q 98 138 113 148 z "},"ඛ":{"ha":834,"x_min":42,"x_max":773,"o":"m 123 95 q 159 42 123 57 q 180 38 170 38 q 233 73 218 38 q 237 95 237 84 q 202 148 237 133 q 180 152 191 152 q 127 117 142 152 q 123 95 123 106 m 42 243 q 167 487 42 412 q 317 525 232 525 q 506 450 439 525 q 547 342 547 403 q 468 164 545 243 q 480 165 473 165 q 521 138 498 165 q 578 107 549 109 q 686 218 644 107 q 719 403 719 304 q 597 692 719 593 q 389 762 511 762 q 129 623 210 761 l 84 623 q 395 796 180 795 q 681 663 574 796 q 773 378 773 548 q 700 94 773 208 q 551 0 637 1 q 461 45 500 0 q 425 72 437 71 q 320 -26 395 72 q 317 -28 317 -27 l 270 -24 q 316 30 279 -15 q 381 111 355 81 q 480 300 480 229 q 312 411 477 410 q 133 338 198 411 q 85 202 85 282 q 95 136 85 165 q 159 191 109 180 q 179 194 170 194 q 273 132 252 194 q 278 95 278 114 q 235 14 278 43 q 187 -1 212 -1 q 54 136 88 -1 q 42 243 42 186 z "},"ල":{"ha":887,"x_min":41,"x_max":826,"o":"m 41 179 q 213 -137 41 -35 q 479 -203 324 -203 q 746 -104 646 -203 q 826 92 826 -24 l 826 111 l 781 111 q 787 87 787 100 q 666 -107 787 -43 q 515 -142 597 -142 q 233 -16 332 -142 q 160 216 160 79 q 274 460 160 368 q 496 534 368 534 q 754 434 712 534 q 762 389 762 412 q 684 290 762 309 q 644 286 665 286 q 537 331 570 286 q 525 368 525 349 l 525 373 l 686 373 l 686 408 l 351 408 l 351 373 l 487 373 q 567 240 487 278 q 643 224 602 224 q 785 290 739 224 q 810 370 810 326 q 639 553 810 507 q 481 572 568 572 q 130 435 251 572 q 41 179 41 334 z "},"ළ":{"ha":842,"x_min":41,"x_max":819,"o":"m 343 536 q 429 483 399 536 q 441 437 441 458 l 481 437 q 529 517 481 486 q 589 534 557 534 q 707 453 677 534 q 718 393 718 425 l 237 393 q 216 392 222 393 q 298 528 222 499 q 343 536 320 536 m 41 151 q 195 -136 41 -39 q 454 -202 304 -202 q 708 -118 598 -202 q 819 98 818 -30 l 783 98 q 671 -84 780 -18 q 502 -132 595 -132 q 228 -22 332 -132 q 142 197 142 68 q 172 302 142 262 q 302 96 194 164 q 442 57 366 57 q 688 201 628 57 q 699 231 694 216 l 659 231 q 448 148 604 148 q 258 233 323 148 q 216 342 222 281 q 278 358 244 358 l 762 358 q 673 552 762 502 q 590 572 636 572 q 475 518 515 572 q 463 499 467 509 q 345 572 422 566 q 199 488 250 572 q 167 378 171 441 q 52 227 83 339 q 41 151 41 187 z "},"ම":{"ha":837,"x_min":43,"x_max":774,"o":"m 350 467 q 388 407 350 426 q 415 401 401 401 q 475 439 456 401 q 480 467 480 453 q 442 526 480 507 q 415 532 429 532 q 355 494 374 532 q 350 467 350 480 m 43 331 q 106 524 43 450 q 206 572 151 571 q 277 495 277 571 q 274 456 277 479 q 270 403 270 426 q 347 298 270 323 q 397 292 372 292 q 522 365 492 292 q 532 418 532 388 q 513 484 532 458 q 515 454 515 469 q 464 370 515 396 q 415 359 442 359 q 320 420 349 359 q 309 465 309 444 q 368 560 309 530 q 422 572 393 572 q 555 488 518 572 q 571 408 571 453 q 492 273 571 317 q 400 250 450 250 q 255 312 301 250 q 229 393 229 347 q 237 476 229 403 q 239 500 239 490 q 203 536 236 534 q 113 458 144 536 q 96 365 96 415 q 235 145 96 210 q 407 110 309 110 q 658 222 571 110 q 719 414 719 302 q 618 655 719 557 q 401 741 528 741 q 146 621 237 739 l 103 621 q 350 773 190 753 q 400 776 376 776 q 673 655 563 776 q 774 387 774 543 q 632 65 774 168 q 411 0 540 0 q 106 130 203 0 q 43 331 43 214 z "},"ා":{"ha":399,"x_min":16,"x_max":345,"o":"m 16 145 q 18 175 16 165 l 54 175 q 53 155 53 167 q 119 57 53 68 q 136 56 127 56 q 239 241 233 57 q 239 266 239 254 q 136 477 237 476 q 61 425 83 477 q 53 377 53 403 q 54 358 53 365 l 18 358 q 16 387 16 369 q 91 517 16 476 q 163 534 125 534 q 336 362 305 534 q 345 266 345 317 q 205 3 345 34 q 163 -1 184 -1 q 30 79 64 -1 q 16 145 16 109 z "},"ෑ":{"ha":445,"x_min":5,"x_max":406,"o":"m 5 416 l 5 449 l 330 449 l 330 420 l 161 296 l 361 296 l 361 266 q 231 99 264 197 q 218 23 218 60 q 346 -134 218 -107 q 406 -140 374 -140 l 406 -172 q 298 -197 353 -197 q 126 -100 170 -197 q 110 -18 110 -62 q 309 263 111 130 l 95 263 l 95 290 l 270 416 l 5 416 z "},"ැ":{"ha":442,"x_min":4,"x_max":406,"o":"m 4 415 l 4 449 l 330 449 q 326 427 328 444 q 209 77 209 251 q 308 -110 209 -69 q 349 -119 327 -117 q 400 -117 370 -121 l 406 -141 q 271 -195 357 -195 q 119 -85 160 -195 q 102 20 102 -38 q 250 381 102 197 q 278 415 264 399 l 4 415 z "},"ෛ":{"ha":1603,"x_min":43,"x_max":1552,"o":"m 308 332 q 350 275 308 293 q 381 270 366 270 q 448 308 429 270 q 454 332 454 320 q 412 389 454 372 q 381 395 396 395 q 315 357 334 395 q 308 332 308 346 m 43 281 q 172 509 43 423 q 399 572 270 572 q 681 465 571 572 q 773 273 762 384 l 735 273 q 590 484 713 410 q 399 534 505 534 q 172 457 258 534 q 109 321 110 399 q 202 155 109 217 q 357 111 270 111 q 560 180 496 111 q 593 266 593 217 q 517 376 593 340 q 473 389 495 385 q 498 327 498 362 q 434 239 498 264 q 382 229 410 229 q 281 279 315 229 q 264 330 264 302 q 332 422 264 393 q 399 434 363 434 q 612 345 544 434 q 650 225 650 294 q 529 35 650 94 q 357 0 457 0 q 107 103 195 0 q 43 281 43 178 m 1086 332 q 1128 275 1086 293 q 1160 270 1145 270 q 1226 308 1207 270 q 1233 332 1233 320 q 1191 389 1233 372 q 1160 395 1175 395 q 1093 357 1112 395 q 1086 332 1086 345 m 822 281 q 951 509 822 423 q 1177 572 1048 572 q 1459 465 1350 572 q 1552 273 1541 384 l 1514 273 q 1369 484 1492 410 q 1177 534 1283 534 q 951 457 1036 534 q 887 321 888 399 q 981 155 887 217 q 1135 111 1048 111 q 1339 180 1275 111 q 1371 266 1371 217 q 1295 376 1371 340 q 1252 389 1274 385 q 1276 327 1276 362 q 1213 239 1276 264 q 1161 229 1188 229 q 1059 279 1093 229 q 1043 330 1043 302 q 1111 422 1043 393 q 1177 434 1142 434 q 1390 345 1322 434 q 1428 225 1428 294 q 1308 35 1428 94 q 1135 0 1236 0 q 886 103 974 0 q 822 281 822 178 z "},"ෞ":{"ha":1495,"x_min":43,"x_max":1416,"o":"m 308 332 q 350 389 308 372 q 381 395 366 395 q 448 357 429 395 q 454 332 454 345 q 412 275 454 293 q 381 270 396 270 q 315 308 334 270 q 308 332 308 319 m 43 281 q 161 54 43 134 q 357 0 244 0 q 620 114 549 0 q 650 225 650 163 q 533 407 650 353 q 399 434 475 434 q 278 378 315 434 q 264 330 264 355 q 324 243 264 271 q 382 229 353 229 q 483 278 450 229 q 498 327 498 300 q 473 389 496 363 q 583 311 556 373 q 593 266 593 289 q 473 129 593 168 q 357 111 420 111 q 155 197 228 111 q 109 321 109 252 q 221 491 109 430 q 399 534 300 534 q 656 430 557 534 q 735 273 720 362 l 773 273 q 631 506 760 419 q 399 572 530 572 q 133 477 237 572 q 43 281 45 396 m 939 425 q 1004 298 939 336 q 1070 281 1034 281 q 1183 339 1156 281 q 1191 381 1191 359 q 1142 454 1190 429 l 1142 464 q 1210 534 1145 533 q 1303 315 1303 532 q 1222 46 1303 69 q 1202 43 1213 43 q 1111 118 1131 43 q 1104 165 1104 141 q 1108 208 1104 186 l 1074 208 q 1069 159 1069 184 q 1143 14 1069 54 q 1217 -3 1176 -3 q 1398 153 1354 -3 q 1416 292 1416 216 q 1336 533 1416 461 q 1232 572 1293 572 q 1108 488 1124 572 q 1105 463 1105 476 q 1107 446 1105 452 q 1134 384 1134 416 q 1088 320 1134 331 q 1069 317 1078 317 q 985 381 1006 317 q 978 426 978 403 q 1035 567 979 518 l 987 567 q 939 425 939 513 z "},"ෙ":{"ha":830,"x_min":43,"x_max":773,"o":"m 308 332 q 350 275 308 293 q 381 270 366 270 q 448 308 429 270 q 454 332 454 320 q 412 389 454 372 q 381 395 396 395 q 315 357 334 395 q 308 332 308 346 m 43 281 q 172 509 43 423 q 399 572 270 572 q 681 465 571 572 q 773 273 762 384 l 735 273 q 590 484 713 410 q 399 534 505 534 q 172 457 258 534 q 109 321 110 399 q 202 155 109 217 q 357 111 270 111 q 560 180 496 111 q 593 266 593 217 q 517 376 593 340 q 473 389 495 385 q 498 327 498 362 q 434 239 498 264 q 382 229 410 229 q 281 279 315 229 q 264 330 264 302 q 332 422 264 393 q 399 434 363 434 q 612 345 544 434 q 650 225 650 294 q 529 35 650 94 q 357 0 457 0 q 107 103 195 0 q 43 281 43 178 z "},"ේ":{"ha":1289,"x_min":43,"x_max":1221,"o":"m 308 332 q 350 275 308 293 q 381 270 366 270 q 448 308 429 270 q 454 332 454 320 q 412 389 454 372 q 381 395 396 395 q 315 357 334 395 q 308 332 308 346 m 43 281 q 172 509 43 423 q 399 572 270 572 q 681 465 571 572 q 773 273 762 384 l 735 273 q 590 484 713 410 q 399 534 505 534 q 172 457 258 534 q 109 321 110 399 q 202 155 109 217 q 357 111 270 111 q 560 180 496 111 q 593 266 593 217 q 517 376 593 340 q 473 389 495 385 q 498 327 498 362 q 434 239 498 264 q 382 229 410 229 q 281 279 315 229 q 264 330 264 302 q 332 422 264 393 q 399 434 363 434 q 612 345 544 434 q 650 225 650 294 q 529 35 650 94 q 357 0 457 0 q 107 103 195 0 q 43 281 43 178 m 1021 461 l 1021 902 q 1118 850 1039 888 q 1213 765 1195 814 q 1221 718 1221 743 q 1164 629 1221 655 q 1118 620 1142 620 q 1058 633 1086 620 l 1058 438 l 1021 461 m 1058 666 q 1101 656 1076 656 q 1168 707 1157 656 q 1169 722 1169 715 q 1109 811 1169 769 q 1058 845 1099 818 l 1058 666 z "},"ි":{"ha":1,"x_min":-722,"x_max":-107,"o":"m -722 686 q -572 865 -722 815 q -415 888 -502 888 q -153 803 -235 888 q -107 686 -107 754 q -218 549 -107 585 q -297 537 -255 538 l -297 564 q -167 633 -193 570 q -161 666 -161 650 q -357 773 -161 760 q -415 776 -385 776 q -663 696 -628 776 q -669 666 -669 681 q -576 571 -669 593 q -533 564 -556 566 l -533 537 q -707 623 -666 543 q -722 686 -722 652 z "},"ී":{"ha":1,"x_min":-777,"x_max":-110,"o":"m -331 681 q -285 616 -331 637 q -244 606 -266 606 q -165 647 -191 606 q -156 681 -156 665 q -203 746 -156 726 q -244 755 -224 755 q -323 713 -298 755 q -331 681 -331 697 m -777 685 q -628 860 -777 807 q -445 888 -547 888 q -178 818 -274 888 q -110 694 -111 768 q -176 585 -110 620 q -244 568 -208 568 q -358 629 -323 568 q -373 682 -373 655 q -316 774 -372 746 q -448 785 -354 785 q -700 718 -635 785 q -726 656 -726 692 q -650 564 -723 583 l -658 537 q -765 618 -734 544 q -777 685 -777 650 z "},"ෳ":{"ha":583,"x_min":43,"x_max":521,"o":"m 43 425 q 109 298 43 336 q 175 281 138 281 q 288 339 260 281 q 296 381 296 359 q 247 454 294 429 l 247 464 q 315 534 250 533 q 408 315 408 532 q 327 46 408 69 q 307 43 317 43 q 216 118 236 43 q 209 165 209 140 q 213 208 209 186 l 179 208 q 174 159 174 184 q 248 14 174 54 q 321 -3 281 -3 q 503 153 458 -3 q 521 292 521 216 q 441 533 521 461 q 336 572 397 572 q 213 488 229 572 q 210 463 210 476 q 212 446 210 452 q 239 384 239 416 q 193 320 239 331 q 174 317 183 317 q 90 381 111 317 q 83 426 83 403 q 140 567 84 518 l 92 567 q 43 425 43 513 z "},"ෟ":{"ha":583,"x_min":43,"x_max":521,"o":"m 43 425 q 109 298 43 336 q 175 281 138 281 q 288 339 260 281 q 296 381 296 359 q 247 454 294 429 l 247 464 q 315 534 250 533 q 408 315 408 532 q 327 46 408 69 q 307 43 317 43 q 216 118 236 43 q 209 165 209 140 q 213 208 209 186 l 179 208 q 174 159 174 184 q 248 14 174 54 q 321 -3 281 -3 q 503 153 458 -3 q 521 292 521 216 q 441 533 521 461 q 336 572 397 572 q 213 488 229 572 q 210 463 210 476 q 212 446 210 452 q 239 384 239 416 q 193 320 239 331 q 174 317 183 317 q 90 381 111 317 q 83 426 83 403 q 140 567 84 518 l 92 567 q 43 425 43 513 z "},"ො":{"ha":1579,"x_min":43,"x_max":1497,"o":"m 308 332 q 350 275 308 293 q 381 270 366 270 q 448 308 429 270 q 454 332 454 320 q 412 389 454 372 q 381 395 396 395 q 315 357 334 395 q 308 332 308 346 m 43 281 q 172 509 43 423 q 399 572 270 572 q 681 465 571 572 q 773 273 762 384 l 735 273 q 590 484 713 410 q 399 534 505 534 q 172 457 258 534 q 109 321 110 399 q 202 155 109 217 q 357 111 270 111 q 560 180 496 111 q 593 266 593 217 q 517 376 593 340 q 473 389 495 385 q 498 327 498 362 q 434 239 498 264 q 382 229 410 229 q 281 279 315 229 q 264 330 264 302 q 332 422 264 393 q 399 434 363 434 q 612 345 544 434 q 650 225 650 294 q 529 35 650 94 q 357 0 457 0 q 107 103 195 0 q 43 281 43 178 m 1169 145 q 1171 175 1169 165 l 1207 175 q 1206 155 1206 167 q 1272 57 1206 68 q 1289 56 1280 56 q 1392 241 1386 57 q 1392 266 1392 254 q 1289 477 1390 476 q 1214 425 1236 477 q 1206 377 1206 403 q 1207 358 1206 365 l 1171 358 q 1169 387 1169 369 q 1244 517 1169 476 q 1316 534 1278 534 q 1489 362 1458 534 q 1497 266 1497 317 q 1358 3 1497 34 q 1316 -1 1337 -1 q 1183 79 1217 -1 q 1169 145 1169 109 z "},"ෝ":{"ha":1449,"x_min":43,"x_max":1378,"o":"m 308 332 q 350 389 308 372 q 381 395 366 395 q 448 357 429 395 q 454 332 454 345 q 412 275 454 293 q 381 270 396 270 q 315 308 334 270 q 308 332 308 319 m 43 281 q 161 54 43 134 q 357 0 244 0 q 620 114 549 0 q 650 225 650 163 q 533 407 650 353 q 399 434 475 434 q 278 378 315 434 q 264 330 264 355 q 324 243 264 271 q 382 229 353 229 q 483 278 450 229 q 498 327 498 300 q 473 389 496 363 q 583 311 556 373 q 593 266 593 289 q 473 129 593 168 q 357 111 420 111 q 155 197 228 111 q 109 321 109 252 q 221 491 109 430 q 399 534 300 534 q 656 430 557 534 q 735 273 720 362 l 773 273 q 631 506 760 419 q 399 572 530 572 q 133 477 237 572 q 43 281 45 396 m 974 145 q 1058 9 974 43 q 1122 -1 1086 -1 q 1295 172 1265 -1 q 1303 266 1303 216 q 1215 507 1302 448 l 1215 633 q 1275 620 1244 620 q 1367 673 1340 620 q 1378 718 1378 693 q 1299 838 1378 793 q 1253 861 1286 846 q 1179 902 1200 886 l 1179 526 q 1122 534 1153 534 q 998 471 1040 534 q 974 387 974 433 q 975 358 974 368 l 1012 358 q 1010 377 1010 366 q 1063 471 1010 448 q 1093 477 1077 477 q 1196 266 1196 475 q 1100 56 1196 64 q 1093 56 1096 56 q 1013 126 1027 56 q 1010 155 1010 140 q 1012 175 1010 168 l 975 175 q 974 145 974 164 m 1215 666 l 1215 845 q 1308 776 1291 795 q 1328 722 1328 750 q 1284 661 1328 674 q 1259 656 1272 656 q 1215 666 1232 656 z "},"ෘ":{"ha":414,"x_min":43,"x_max":351,"o":"m 43 330 l 43 320 l 77 320 l 77 326 q 148 467 77 446 q 172 469 160 469 q 255 294 255 467 q 132 271 182 294 q 43 141 45 233 q 100 20 43 62 q 170 -1 132 -1 q 244 19 193 -1 q 259 23 254 23 q 279 4 273 20 l 330 4 q 328 30 328 14 q 336 110 328 45 q 351 269 351 222 q 270 496 351 437 q 191 521 235 521 q 57 416 91 521 q 43 330 43 377 m 84 141 q 163 245 85 221 q 255 258 199 258 l 255 245 q 255 212 255 235 q 254 153 254 175 q 259 53 254 75 q 248 56 252 57 q 225 49 243 56 q 172 37 191 37 q 92 95 117 37 q 84 141 84 118 z "},"ෲ":{"ha":755,"x_min":43,"x_max":693,"o":"m 43 330 l 43 320 l 77 320 l 77 326 q 148 467 77 446 q 172 469 160 469 q 255 294 255 467 q 132 271 182 294 q 43 141 45 233 q 100 20 43 62 q 170 -1 132 -1 q 244 19 193 -1 q 259 23 254 23 q 279 4 273 20 l 330 4 q 328 30 328 14 q 336 110 328 45 q 351 269 351 222 q 270 496 351 437 q 191 521 235 521 q 57 416 91 521 q 43 330 43 377 m 84 141 q 163 245 85 221 q 255 258 199 258 l 255 245 q 255 212 255 235 q 254 153 254 175 q 259 53 254 75 q 248 56 252 57 q 225 49 243 56 q 172 37 191 37 q 92 95 117 37 q 84 141 84 118 m 385 330 l 385 320 l 419 320 l 419 326 q 488 465 419 445 q 513 469 499 469 q 597 294 597 467 q 473 271 524 294 q 385 141 387 233 q 442 20 385 62 q 511 -1 473 -1 q 585 19 534 -1 q 600 23 594 23 q 620 4 613 20 l 671 4 q 670 30 670 14 q 678 110 670 45 q 693 269 693 222 q 612 496 693 437 q 533 521 576 521 q 397 414 430 521 q 385 330 385 374 m 426 141 q 505 245 427 221 q 597 258 541 258 l 597 245 q 597 212 597 235 q 595 153 595 175 q 601 53 595 75 q 589 56 594 57 q 568 49 585 56 q 514 37 533 37 q 434 95 458 37 q 426 141 426 118 z "},"ු":{"ha":1,"x_min":-787,"x_max":-75,"o":"m -787 -197 q -719 -83 -787 -117 q -655 -68 -689 -68 q -529 -145 -564 -69 l -570 -161 q -650 -107 -593 -109 q -732 -155 -711 -107 q -741 -190 -741 -172 q -632 -262 -738 -260 l -118 -262 l -118 170 l -75 290 l -75 -311 l -640 -311 q -780 -237 -751 -311 q -787 -197 -787 -218 z "},"ූ":{"ha":1,"x_min":-770,"x_max":-77,"o":"m -770 -194 q -704 -81 -770 -118 q -636 -64 -673 -64 q -507 -132 -549 -65 l -548 -145 q -629 -100 -576 -102 q -713 -146 -690 -100 q -722 -179 -722 -163 q -663 -251 -722 -233 q -627 -256 -646 -256 q -463 -212 -574 -256 q -279 -165 -347 -165 q -134 -218 -194 -165 q -121 -233 -126 -227 l -121 191 l -77 270 l -77 -316 l -109 -316 q -205 -217 -138 -248 q -274 -202 -239 -202 q -435 -258 -332 -202 q -591 -321 -538 -313 q -624 -324 -609 -324 q -751 -263 -713 -324 q -770 -194 -770 -232 z "},"ඹ":{"ha":842,"x_min":39,"x_max":781,"o":"m 39 302 q 117 69 39 157 q 270 0 179 0 q 355 22 315 1 q 349 68 357 46 q 342 94 347 77 q 332 146 332 127 q 377 224 332 202 q 411 231 393 231 q 483 178 465 231 q 488 146 488 161 q 472 65 488 127 q 467 22 465 41 q 551 0 509 0 q 736 132 671 0 q 781 336 781 222 q 661 665 781 544 q 397 766 556 766 q 95 633 197 766 q 83 617 88 625 l 125 617 q 353 734 209 723 q 395 735 374 735 q 663 600 570 735 q 727 384 727 506 q 665 167 727 255 q 571 109 621 110 q 525 119 538 109 q 528 156 528 132 q 448 264 525 241 q 411 270 430 270 q 311 217 343 270 q 294 156 296 190 q 297 119 294 130 q 251 109 282 109 q 110 213 156 109 q 84 343 84 273 q 132 503 84 442 q 193 537 160 536 q 228 492 228 534 l 228 454 q 312 317 228 355 q 391 301 349 301 q 532 370 491 301 q 551 438 551 401 q 487 560 551 525 q 426 575 458 575 q 334 521 359 575 q 324 477 324 499 q 373 395 324 420 q 422 382 395 382 q 507 430 480 382 q 510 434 509 433 q 511 429 511 430 q 450 350 511 373 q 391 339 423 339 q 273 403 302 339 q 263 452 263 426 l 263 491 q 239 560 262 543 q 197 572 220 572 q 69 464 114 572 q 39 302 39 392 m 363 480 q 400 537 363 521 q 425 543 411 543 q 481 505 465 543 q 487 480 487 494 q 449 425 487 441 q 425 419 438 419 q 368 457 384 419 q 363 480 363 468 z "},"න":{"ha":1067,"x_min":34,"x_max":1006,"o":"m 34 178 q 85 164 64 164 q 165 217 129 164 q 184 250 171 227 q 274 368 233 327 q 298 431 298 393 q 235 513 289 506 q 180 464 187 513 q 180 457 180 460 q 134 393 178 400 q 125 392 129 392 q 76 433 85 392 q 73 452 73 442 q 126 549 73 514 q 203 571 160 571 q 326 491 296 571 q 335 437 335 465 q 332 418 335 426 q 549 556 415 515 q 670 574 610 574 q 926 465 829 574 q 1006 243 1006 373 q 910 31 1006 98 q 807 -1 863 -1 q 713 26 749 -1 l 713 65 q 796 35 751 35 q 898 109 865 35 q 914 195 914 146 q 783 430 914 347 q 586 484 694 484 q 354 391 438 483 q 457 408 404 408 q 623 332 563 408 q 659 224 659 283 q 518 24 659 80 q 366 -1 450 -1 q 49 145 129 -1 q 34 178 41 160 m 146 148 q 346 111 231 111 q 572 197 518 111 q 591 262 591 227 q 519 359 591 330 q 446 374 486 374 q 250 286 313 374 q 217 235 237 270 q 146 148 178 167 z "},"ඳ":{"ha":699,"x_min":35,"x_max":652,"o":"m 152 224 q 269 31 152 88 q 422 -1 334 -1 q 533 14 486 -1 q 437 -187 437 -110 q 525 -312 437 -285 q 581 -321 551 -320 q 652 -315 618 -321 l 652 -277 q 528 -170 544 -248 q 525 -136 525 -153 q 631 76 525 -45 q 639 85 633 80 q 650 99 647 95 l 618 122 q 464 39 543 42 q 312 114 369 39 q 275 229 275 165 q 420 387 275 374 q 452 388 437 388 l 613 388 q 434 570 581 551 q 410 572 422 572 q 340 576 366 576 q 49 396 103 576 q 35 293 35 349 q 119 45 35 137 q 179 0 148 16 l 179 41 q 76 289 76 133 q 274 533 76 506 q 294 536 285 534 q 278 492 278 517 q 317 445 278 452 q 330 444 324 444 q 385 483 366 446 q 442 521 407 519 q 544 465 506 521 q 564 420 559 444 l 407 420 q 152 224 153 418 z "},"ඦ":{"ha":925,"x_min":35,"x_max":886,"o":"m 716 412 q 654 471 665 412 q 651 494 651 481 q 655 537 651 517 q 684 538 665 538 q 780 486 766 538 q 781 471 781 477 q 738 415 781 427 q 716 412 727 412 m 566 410 q 562 442 562 429 q 616 528 563 506 q 614 495 614 515 q 640 411 616 445 q 605 412 627 412 q 566 410 586 412 m 178 225 q 372 18 178 65 q 529 0 442 0 q 815 96 730 0 q 861 222 861 149 q 760 384 860 338 q 822 468 821 404 q 741 567 822 541 q 689 575 715 575 q 665 574 673 575 q 732 675 686 632 q 841 745 762 704 q 886 787 884 769 q 852 818 880 815 q 736 758 800 817 q 623 568 648 675 q 522 438 524 541 q 532 377 522 407 q 552 378 537 377 q 604 382 585 382 q 799 296 762 382 q 807 256 807 277 q 602 117 807 138 q 521 113 564 113 q 251 197 308 113 q 233 255 233 224 q 317 363 233 331 q 437 382 368 382 q 480 380 449 382 q 486 431 486 403 q 400 562 486 530 q 362 571 382 568 q 316 574 340 574 q 54 415 113 574 q 35 293 35 361 q 119 45 35 137 q 179 0 148 16 l 179 41 q 76 289 76 133 q 197 517 76 463 q 222 526 210 522 q 206 479 206 507 q 243 427 206 438 q 256 426 250 426 q 311 464 290 426 q 317 477 313 471 q 377 517 338 515 q 445 461 431 517 q 448 438 448 449 q 445 412 448 430 q 410 414 431 414 q 205 320 264 414 q 178 225 178 277 z "},"ඞ":{"ha":817,"x_min":61,"x_max":755,"o":"m 117 460 q 157 401 117 419 q 189 395 172 395 q 252 434 235 395 q 258 460 258 448 q 218 518 258 500 q 189 525 203 525 q 123 486 142 525 q 117 460 117 473 m 61 620 q 372 770 180 770 q 646 647 534 770 q 755 345 755 524 q 666 49 755 140 q 551 0 616 0 q 419 50 468 0 q 395 79 408 62 q 250 0 331 1 q 95 83 146 0 q 68 186 68 129 q 148 320 68 277 q 237 342 190 342 q 305 336 262 342 q 370 332 349 332 q 454 411 453 335 q 361 530 454 495 q 283 544 321 544 q 241 541 262 544 q 294 457 293 511 q 244 376 294 406 q 187 361 218 361 q 95 408 127 361 q 80 458 80 433 q 184 564 80 537 q 275 575 225 575 q 469 488 414 575 q 492 406 492 450 q 426 307 492 331 q 370 297 400 297 q 307 301 343 297 q 240 305 269 305 q 134 252 161 305 q 126 214 126 233 q 195 121 126 145 q 251 113 221 113 q 365 163 334 113 q 376 203 376 182 l 376 240 l 412 240 l 412 203 q 483 119 412 142 q 538 111 510 111 q 680 240 640 111 q 699 382 699 302 q 591 650 699 545 q 368 738 498 738 q 103 620 209 736 l 61 620 z "},"ණ":{"ha":1275,"x_min":28,"x_max":1213,"o":"m 28 236 l 43 203 q 132 240 104 237 q 209 183 171 240 q 263 100 262 103 q 483 0 345 1 q 734 133 656 0 q 739 142 736 138 q 829 52 766 68 q 854 47 842 47 q 945 90 911 49 q 1013 7 955 28 q 1059 -1 1035 -1 q 1207 146 1180 -1 q 1213 222 1213 182 q 1145 435 1213 374 q 1078 461 1115 461 q 963 380 994 461 q 952 332 955 357 q 854 378 916 377 q 769 336 807 377 q 661 519 751 456 q 883 581 785 563 q 1047 608 947 593 q 1095 616 1082 613 q 1143 658 1142 627 q 1090 699 1141 697 q 867 644 1021 699 q 612 547 735 598 q 476 574 548 574 q 264 491 334 574 q 225 377 225 442 q 227 358 225 363 q 28 236 99 285 m 264 384 q 355 514 264 471 q 473 538 408 538 q 563 525 526 538 q 264 378 406 457 l 264 384 m 460 111 q 258 197 342 111 q 235 220 250 205 q 164 274 190 269 q 152 275 157 275 q 183 293 163 281 q 235 321 218 312 q 369 216 264 237 q 425 210 395 210 q 519 229 481 210 q 590 321 582 258 q 591 338 591 330 q 536 438 591 401 q 499 454 518 450 q 614 502 575 487 q 712 323 707 433 q 608 146 712 205 q 460 111 544 111 m 354 338 q 396 248 355 282 q 273 332 301 260 q 270 342 271 338 q 311 363 283 349 q 368 392 349 382 q 354 338 354 368 m 392 339 q 435 410 392 387 q 472 419 453 419 q 543 374 521 419 q 551 339 551 357 q 507 267 551 290 q 472 259 490 259 q 401 302 425 259 q 392 339 392 320 m 853 90 q 777 149 803 90 q 764 208 765 176 q 773 270 770 236 q 853 339 804 332 q 941 214 940 336 q 880 94 941 115 q 853 90 868 90 m 972 140 l 972 144 q 982 213 982 174 q 978 264 982 243 q 1053 403 986 401 q 1120 252 1114 403 q 1120 224 1120 237 q 1066 53 1120 72 q 1044 49 1055 49 q 975 109 987 49 q 972 140 972 123 z "},"ඬ":{"ha":967,"x_min":35,"x_max":907,"o":"m 136 380 l 281 380 q 178 241 193 342 q 176 214 176 228 q 251 43 176 104 q 378 0 304 0 q 530 79 468 1 q 654 1 581 9 q 682 0 669 0 q 879 157 822 0 q 907 342 907 239 q 781 669 907 547 q 518 770 674 770 q 212 620 316 769 l 256 620 q 510 736 353 736 q 777 606 678 736 q 853 368 853 505 q 769 144 853 208 q 674 113 727 113 q 557 165 589 113 q 547 205 547 184 l 547 247 l 511 247 l 511 205 q 435 119 511 141 q 380 113 408 113 q 248 180 286 113 q 232 240 232 209 q 301 355 232 316 q 408 380 345 380 l 506 380 q 391 564 503 530 q 388 566 389 566 q 316 574 359 574 q 54 415 113 574 q 35 293 35 361 q 119 45 35 137 q 179 0 148 16 l 179 41 q 76 289 76 133 q 197 517 76 460 q 224 528 210 524 q 214 495 214 510 q 251 449 214 457 q 264 448 258 448 q 316 480 297 449 q 377 517 339 517 q 446 467 420 517 q 460 418 458 444 l 136 418 l 136 380 z "},"ඟ":{"ha":991,"x_min":35,"x_max":932,"o":"m 199 274 q 285 53 199 133 q 430 -3 346 -3 q 595 83 544 -3 q 621 180 621 126 q 555 311 621 281 q 513 320 534 320 q 483 313 494 319 q 590 461 506 420 q 667 477 627 477 q 840 372 791 477 q 863 258 863 321 q 776 76 863 140 q 635 33 716 33 q 602 35 623 33 l 602 1 q 644 -1 632 -1 q 876 110 795 -1 q 932 288 932 187 q 846 514 932 433 q 699 572 784 572 q 481 419 551 572 q 441 255 449 346 l 476 255 q 477 279 476 271 q 509 289 494 289 q 568 239 559 289 q 570 218 570 228 q 486 119 570 142 q 429 113 460 113 q 275 208 323 113 q 252 312 252 255 q 332 498 252 431 q 449 540 384 540 l 464 540 l 464 571 q 456 572 461 571 q 448 572 450 572 q 414 574 435 574 q 374 574 392 574 q 336 574 357 574 l 316 574 q 54 415 113 574 q 35 293 35 361 q 119 45 35 137 q 179 0 148 16 l 179 41 q 76 289 76 133 q 332 541 79 536 q 206 349 233 483 q 199 274 199 312 z "},"ඤ":{"ha":1356,"x_min":35,"x_max":1299,"o":"m 263 138 q 336 281 286 206 q 407 361 373 331 q 562 384 457 384 q 764 298 711 384 q 785 222 785 264 q 735 126 785 155 q 681 113 711 113 q 575 189 590 113 q 572 228 572 206 l 572 229 l 537 229 l 537 228 q 433 113 534 114 q 334 138 392 113 q 294 149 309 149 q 263 138 278 148 m 194 28 l 228 15 q 281 96 236 95 q 319 65 297 96 q 389 5 351 18 q 435 -1 411 -1 q 557 84 521 0 q 692 -1 600 -1 q 836 96 798 0 q 1067 -3 905 -3 q 1179 14 1127 -3 q 1084 -187 1084 -109 q 1172 -313 1084 -286 q 1226 -321 1198 -320 q 1299 -315 1265 -321 l 1299 -277 q 1173 -168 1188 -248 q 1171 -136 1171 -152 q 1274 72 1171 -46 q 1283 81 1276 75 q 1297 98 1293 94 l 1265 122 q 1109 39 1192 39 q 958 114 1013 39 q 921 228 921 164 q 1099 388 924 387 l 1260 388 q 1096 566 1229 536 q 909 586 1025 586 q 639 547 754 586 q 456 452 537 513 q 457 472 457 461 q 393 566 457 541 q 351 574 373 572 q 316 575 335 575 q 56 419 115 575 q 35 293 35 363 q 119 45 35 137 q 179 0 148 16 l 179 41 q 76 289 76 133 q 197 517 76 461 q 235 530 216 525 l 237 532 q 203 450 203 495 q 237 396 203 408 q 258 393 248 393 q 308 427 294 395 q 317 465 311 433 q 321 480 319 473 q 374 518 335 515 q 422 467 418 511 q 389 400 420 435 q 311 308 336 345 q 208 92 243 214 q 194 28 198 57 m 567 419 q 456 408 499 419 q 741 534 589 506 q 902 548 810 548 l 939 548 q 907 492 907 526 q 947 445 907 452 q 959 444 954 444 q 1016 483 997 445 q 1073 524 1038 522 q 1181 473 1135 524 q 1211 419 1204 448 l 1053 419 q 812 302 857 418 q 586 419 746 411 q 567 419 576 419 z "},"ඔ":{"ha":842,"x_min":39,"x_max":781,"o":"m 363 480 q 400 537 363 521 q 425 543 411 543 q 481 505 465 543 q 487 480 487 494 q 449 425 487 441 q 425 419 438 419 q 368 457 384 419 q 363 480 363 468 m 39 297 q 109 75 39 163 q 259 0 168 1 q 404 73 365 1 q 522 0 431 7 q 537 0 529 0 q 760 179 705 0 q 781 336 781 250 q 662 662 781 540 q 400 765 557 765 q 87 623 190 765 q 83 617 84 620 l 123 617 q 350 734 208 722 q 395 735 372 735 q 665 602 571 735 q 728 388 728 511 q 656 163 728 241 q 541 111 608 111 q 427 170 450 111 q 420 202 420 186 l 420 232 l 388 232 l 388 203 q 312 115 388 133 q 264 110 290 110 q 114 209 164 110 q 84 343 84 267 q 132 503 84 442 q 193 537 160 536 q 228 492 228 534 l 228 449 q 315 312 228 349 q 392 297 350 297 q 534 366 491 297 q 553 437 553 399 q 486 562 553 528 q 426 575 458 575 q 332 518 357 575 q 324 477 324 499 q 373 393 324 420 q 422 381 395 381 q 511 434 483 381 q 514 438 513 437 q 515 431 515 434 q 446 345 515 368 q 391 336 419 336 q 273 400 301 336 q 263 446 263 422 l 263 491 q 239 560 262 543 q 197 572 220 572 q 69 463 114 572 q 39 297 39 388 z "},"ඕ":{"ha":842,"x_min":39,"x_max":781,"o":"m 186 718 q 273 766 186 746 q 376 777 324 777 q 665 642 576 777 q 701 560 688 605 q 369 688 590 688 q 212 673 290 688 q 216 682 216 677 q 197 701 216 689 q 186 718 187 711 m 56 586 q 372 654 201 654 q 674 532 581 654 q 727 366 727 463 q 726 340 727 350 l 727 340 q 628 137 712 195 q 541 111 589 111 q 427 170 450 111 q 420 202 420 186 l 420 232 l 388 232 l 388 203 q 312 115 388 133 q 264 110 290 110 q 114 209 164 110 q 84 343 84 267 q 132 503 84 442 q 193 537 160 536 q 228 492 228 534 l 228 449 q 315 312 228 349 q 392 297 350 297 q 534 366 491 297 q 553 437 553 399 q 486 562 553 528 q 426 575 458 575 q 332 518 357 575 q 324 477 324 499 q 373 393 324 420 q 422 381 395 381 q 511 434 483 381 q 514 438 513 437 q 515 431 515 434 q 446 345 515 368 q 391 336 419 336 q 273 400 301 336 q 263 446 263 422 l 263 491 q 239 560 262 543 q 197 572 220 572 q 69 463 114 572 q 39 297 39 388 q 109 75 39 163 q 259 0 168 1 q 404 73 365 1 q 522 0 431 7 q 537 0 529 0 q 761 180 705 0 q 781 326 780 245 l 781 331 l 781 336 q 758 472 779 423 q 585 781 738 690 q 368 833 494 833 q 153 770 220 833 q 129 723 130 746 q 155 688 129 707 q 167 673 165 678 q 84 637 167 665 q 56 627 66 631 l 56 586 m 363 480 q 400 537 363 521 q 425 543 411 543 q 481 505 465 543 q 487 480 487 494 q 449 425 487 441 q 425 419 438 419 q 368 457 384 419 q 363 480 363 468 z "},"ප":{"ha":815,"x_min":41,"x_max":761,"o":"m 41 244 q 161 415 41 372 q 274 433 212 433 q 323 430 289 433 q 323 437 323 433 q 324 445 324 442 q 273 519 324 505 q 251 522 262 522 q 186 477 199 521 q 126 434 171 437 q 75 471 83 434 q 73 483 73 476 q 148 566 73 543 q 209 575 176 575 q 359 483 335 575 q 365 442 365 463 q 359 395 365 418 q 343 397 353 396 q 324 398 334 397 q 307 399 315 399 q 293 400 298 400 l 288 400 q 107 321 145 400 q 98 274 98 300 q 259 129 98 167 q 407 113 327 113 q 655 179 571 113 q 707 281 705 221 q 589 397 707 374 q 522 403 557 403 q 429 393 480 403 q 425 434 425 416 q 525 567 425 541 q 582 574 551 574 q 705 513 671 574 q 716 469 716 491 q 681 401 715 427 q 761 247 760 353 q 594 30 761 91 q 407 0 513 0 q 58 152 125 0 q 41 244 41 194 m 468 445 q 469 430 468 434 q 534 434 505 434 q 648 418 605 434 q 669 465 669 439 q 614 530 669 513 q 572 536 594 536 q 475 481 499 536 q 468 445 468 464 z "},"ඵ":{"ha":768,"x_min":43,"x_max":707,"o":"m 43 218 q 203 20 43 71 q 350 0 269 0 q 655 144 562 0 q 707 324 707 222 q 650 548 707 444 q 637 570 643 559 q 473 753 578 673 q 415 791 442 776 q 359 636 359 726 q 425 495 359 537 q 491 476 454 476 q 608 545 575 477 q 659 363 659 467 q 519 142 659 203 q 354 113 449 113 q 113 197 160 113 q 100 247 100 220 q 206 365 100 336 q 293 376 245 376 l 372 376 l 372 393 q 300 547 372 499 q 208 572 260 572 q 81 519 117 572 q 69 476 69 499 q 106 429 69 437 q 117 427 111 427 q 170 471 155 430 q 241 522 191 521 q 317 471 290 522 q 330 418 330 445 l 330 410 l 305 410 q 45 250 66 410 q 43 218 43 233 m 400 643 q 426 741 400 701 q 582 583 529 665 q 502 526 560 529 q 401 621 412 526 q 400 643 400 632 z "},"ර":{"ha":699,"x_min":41,"x_max":697,"o":"m 41 282 q 228 552 42 473 q 294 578 248 560 q 532 693 450 633 q 608 770 559 713 q 662 806 639 804 q 697 777 696 803 q 589 661 697 723 q 586 659 587 659 q 385 575 484 604 q 570 484 491 570 q 639 298 639 406 q 537 75 639 163 q 328 0 450 0 q 102 102 186 0 q 41 282 41 179 m 91 319 q 180 149 91 205 q 315 114 237 114 q 515 205 445 114 q 563 346 563 266 q 457 521 563 472 q 349 544 408 544 q 160 471 240 544 q 91 319 92 406 z "},"ස":{"ha":897,"x_min":7,"x_max":831,"o":"m 68 203 q 141 43 68 104 q 269 -1 195 -1 q 441 109 395 0 q 609 0 484 1 q 804 103 749 0 q 831 220 831 153 q 765 369 831 312 q 728 393 747 384 q 766 464 761 422 q 674 568 766 549 q 631 572 654 572 q 488 483 530 572 q 468 385 468 439 l 468 372 q 595 384 533 384 q 774 251 773 381 q 696 129 774 164 q 617 113 659 113 q 469 175 500 113 q 461 213 461 193 l 461 250 l 425 250 l 425 213 q 351 123 425 149 q 285 113 320 113 q 145 178 189 113 q 126 241 126 208 q 214 359 126 324 q 292 374 252 374 l 415 374 l 415 392 q 332 553 415 510 q 248 572 296 572 q 122 521 157 572 q 109 476 109 499 q 145 429 109 437 q 156 427 151 427 q 209 469 194 429 q 267 521 227 515 q 283 522 275 522 q 361 469 332 522 q 374 412 374 442 q 373 408 374 410 l 7 408 l 7 365 q 183 374 45 372 q 69 227 80 335 q 68 203 68 214 m 507 411 q 623 518 518 517 q 711 475 696 518 q 713 457 713 465 q 694 406 712 426 q 590 419 652 419 q 507 411 537 419 z "},"ශ":{"ha":836,"x_min":45,"x_max":770,"o":"m 45 273 q 133 43 45 118 q 262 -1 187 -1 q 430 88 378 -1 q 454 183 454 132 q 373 317 454 300 q 347 320 359 320 q 317 315 330 320 q 419 457 335 415 q 503 476 458 476 q 667 369 610 476 q 701 235 699 308 q 640 244 674 244 q 503 171 544 244 q 486 99 486 137 q 528 8 486 37 q 566 -4 545 -4 q 627 20 594 -4 q 655 33 643 33 q 671 19 670 30 q 665 1 670 11 l 701 1 q 765 189 746 58 q 770 259 770 227 q 688 503 770 412 q 529 572 624 572 q 282 305 328 572 q 275 255 278 279 l 309 255 q 311 263 309 258 q 313 279 312 275 q 345 289 327 289 q 406 217 400 277 q 330 121 406 148 q 269 111 300 111 q 113 214 157 111 q 94 315 94 262 q 190 506 94 445 q 315 540 243 540 l 332 540 l 332 571 q 323 571 331 571 q 311 572 313 572 q 88 449 160 572 q 45 273 45 373 m 528 104 q 587 198 528 172 q 639 209 612 209 q 703 197 678 209 l 703 163 q 685 57 696 90 q 661 71 678 69 q 610 47 648 71 q 574 35 589 35 q 528 104 532 43 z "},"ෂ":{"ha":798,"x_min":41,"x_max":761,"o":"m 41 244 q 271 11 41 54 q 407 0 334 0 q 708 102 614 0 q 761 247 761 161 q 681 401 760 354 q 716 469 716 429 q 659 556 716 526 q 582 574 625 574 q 431 483 460 574 q 425 434 425 460 q 429 393 425 415 q 522 403 481 403 q 616 391 575 403 q 515 351 575 361 q 381 342 468 342 q 228 267 229 340 q 359 187 228 197 q 392 186 376 186 q 572 266 571 187 q 529 323 571 302 q 651 374 604 336 q 708 277 707 342 q 566 133 708 176 q 406 110 492 110 q 142 180 224 110 q 98 274 99 221 q 228 396 98 374 q 288 400 255 400 q 359 395 311 400 q 365 442 365 418 q 259 570 365 548 q 209 575 236 575 q 85 524 118 575 q 73 483 73 505 q 113 435 73 445 q 126 434 119 434 q 187 477 174 435 q 250 522 201 521 q 320 472 307 522 q 324 445 324 458 q 323 437 324 442 q 323 430 323 433 q 274 433 286 433 q 60 330 111 433 q 41 244 41 292 m 468 445 q 534 530 468 511 q 572 536 553 536 q 663 487 644 536 q 667 465 667 476 q 647 418 666 438 q 534 434 602 434 q 469 430 503 434 q 468 445 468 437 m 267 269 q 395 313 270 313 q 533 266 532 312 q 423 220 533 227 q 396 220 410 220 q 267 269 269 221 z "},"ත":{"ha":932,"x_min":28,"x_max":879,"o":"m 28 33 q 165 350 49 189 q 212 407 190 382 q 237 461 236 437 q 199 513 233 510 q 159 471 161 510 q 100 391 153 392 q 50 434 61 391 q 49 453 49 444 q 106 556 49 519 q 168 574 136 574 q 266 511 243 574 q 273 471 273 491 q 271 460 273 464 q 560 576 377 576 q 810 461 719 576 q 879 245 879 372 q 798 38 879 106 q 688 -1 751 -1 q 602 18 637 -1 l 602 57 q 671 38 636 38 q 783 126 753 38 q 793 198 793 160 q 688 425 793 336 q 479 496 600 496 q 266 406 340 495 q 372 423 308 423 q 582 321 525 423 q 608 214 608 275 q 514 37 608 96 q 373 -3 454 -3 q 187 60 252 -3 q 142 99 152 95 q 118 104 130 104 q 58 12 77 102 l 28 33 m 100 148 q 144 159 115 159 q 225 136 161 159 q 339 114 285 114 q 538 214 507 114 q 545 258 545 235 q 461 374 545 338 q 374 392 420 392 q 208 345 271 391 q 100 148 140 259 z "},"ථ":{"ha":812,"x_min":43,"x_max":750,"o":"m 43 311 q 144 507 43 429 q 324 570 224 570 l 324 537 q 141 456 210 537 q 94 327 94 399 q 263 130 94 176 q 404 113 327 113 q 640 213 556 113 q 700 381 700 283 q 652 555 700 479 q 537 486 618 487 q 419 568 454 486 q 404 647 404 605 q 460 802 406 738 q 644 637 557 749 q 682 581 666 608 q 750 353 746 471 q 750 334 750 343 q 627 75 750 171 q 391 -1 528 -1 q 125 103 224 -1 q 43 311 43 189 m 444 651 q 545 534 446 536 q 627 594 608 537 q 472 751 572 678 q 444 651 444 708 z "},"ට":{"ha":798,"x_min":42,"x_max":738,"o":"m 42 275 q 152 476 42 407 q 308 518 221 518 q 425 496 370 518 l 425 457 q 311 483 372 483 q 133 410 194 483 q 95 301 95 362 q 227 136 95 184 q 366 113 290 113 q 636 232 553 113 q 684 400 684 301 q 586 639 684 540 q 365 732 494 732 q 121 623 203 732 l 76 623 q 362 764 174 762 q 648 627 541 764 q 738 359 738 513 q 618 84 738 187 q 377 -1 519 -1 q 96 113 187 -1 q 42 275 42 182 z "},"ඨ":{"ha":812,"x_min":43,"x_max":780,"o":"m 43 258 q 122 52 43 126 q 252 0 176 0 q 401 79 339 1 q 559 0 463 1 q 757 159 703 0 q 780 308 780 228 q 697 581 779 439 q 533 764 637 684 q 475 802 502 787 q 419 647 419 736 q 483 506 419 548 q 551 486 514 486 q 667 555 633 487 q 728 366 719 479 q 730 335 730 350 q 656 148 730 208 q 552 113 612 113 q 427 186 452 113 q 422 225 422 205 l 422 273 l 384 273 l 384 225 q 286 115 384 133 q 250 113 269 113 q 115 198 157 113 q 95 290 95 240 q 170 454 95 392 q 279 494 218 494 l 293 494 l 293 528 q 201 513 245 528 q 71 385 115 483 q 43 258 43 326 m 458 651 q 486 751 458 708 q 642 594 591 673 q 560 534 623 536 q 458 651 460 537 z "},"උ":{"ha":861,"x_min":42,"x_max":799,"o":"m 42 132 q 179 -133 42 -33 q 434 -213 290 -213 q 709 -111 602 -213 q 799 91 799 -26 l 760 91 q 656 -100 760 -24 q 465 -161 572 -161 q 237 -60 326 -161 q 164 146 164 26 q 285 336 164 286 q 410 358 339 358 l 713 358 l 713 366 q 620 541 713 484 q 498 572 566 572 q 358 507 380 572 q 354 483 354 496 q 389 435 354 446 q 407 433 399 433 q 464 469 441 434 q 543 515 495 514 q 650 454 610 515 q 670 392 667 425 l 350 392 q 94 283 179 392 q 42 132 42 217 z "},"ඌ":{"ha":1312,"x_min":42,"x_max":1249,"o":"m 42 132 q 179 -133 42 -33 q 434 -213 290 -213 q 709 -111 602 -213 q 799 91 799 -26 l 760 91 q 656 -100 760 -24 q 465 -161 572 -161 q 237 -60 326 -161 q 164 146 164 26 q 285 336 164 286 q 410 358 339 358 l 713 358 l 713 366 q 620 541 713 484 q 498 572 566 572 q 358 507 380 572 q 354 483 354 496 q 389 435 354 446 q 407 433 399 433 q 464 469 441 434 q 543 515 495 514 q 650 454 610 515 q 670 392 667 425 l 350 392 q 94 283 179 392 q 42 132 42 217 m 772 425 q 837 298 772 336 q 903 281 867 281 q 1016 339 989 281 q 1024 381 1024 359 q 975 454 1023 429 l 975 464 q 1043 534 978 533 q 1137 315 1137 532 q 1055 46 1137 69 q 1035 43 1046 43 q 944 118 964 43 q 937 165 937 141 q 941 208 937 186 l 907 208 q 902 159 902 184 q 977 14 902 54 q 1050 -3 1009 -3 q 1232 153 1187 -3 q 1249 292 1249 216 q 1169 533 1249 461 q 1065 572 1126 572 q 941 488 958 572 q 939 463 939 476 q 940 446 939 452 q 967 384 967 416 q 921 320 967 331 q 902 317 911 317 q 818 381 840 317 q 811 426 811 403 q 868 567 812 518 l 821 567 q 772 425 772 513 z "},"ව":{"ha":791,"x_min":43,"x_max":726,"o":"m 43 218 q 203 22 43 73 q 354 0 270 0 q 671 155 576 0 q 726 363 726 243 q 610 663 726 548 q 366 764 510 764 q 76 623 175 762 l 119 623 q 366 732 210 732 q 601 618 511 732 q 674 401 674 526 q 529 146 674 217 q 358 113 456 113 q 113 194 163 113 q 99 247 99 218 q 187 358 99 327 q 270 370 225 370 l 387 370 l 387 384 q 277 564 387 529 q 213 572 247 572 q 87 519 122 572 q 75 476 75 499 q 113 427 75 435 q 123 426 118 426 q 175 471 159 427 q 222 518 190 510 q 251 521 236 521 q 331 465 307 521 q 343 408 343 439 l 343 403 l 263 403 q 66 311 121 403 q 43 218 43 269 z "},"ය":{"ha":842,"x_min":39,"x_max":784,"o":"m 39 245 q 142 469 39 395 q 296 515 208 515 q 332 513 309 515 l 332 475 q 290 479 309 479 q 122 396 180 479 q 90 289 90 349 q 174 132 90 175 q 255 113 210 113 q 373 160 336 113 q 391 210 391 183 l 391 248 l 426 248 l 426 212 q 507 122 426 148 q 576 113 540 113 q 724 208 697 113 q 731 254 731 229 q 540 397 728 396 q 426 382 480 397 q 425 411 425 393 q 545 570 425 545 q 597 574 570 574 q 735 505 711 574 q 739 473 739 490 q 699 404 739 425 q 690 401 693 403 q 784 239 776 351 q 784 221 784 229 q 697 37 784 99 q 578 -1 646 -1 q 407 94 449 0 q 247 -1 361 0 q 66 113 121 -1 q 39 245 39 172 m 464 423 q 543 430 492 430 q 656 416 616 430 q 686 464 685 431 q 631 521 686 506 q 597 525 614 525 q 464 423 471 522 z "},"෴":{"ha":2307,"x_min":68,"x_max":2226,"o":"m 1713 60 l 1747 179 l 1550 57 l 1588 236 l 1382 100 l 1407 319 l 1198 122 l 1179 355 l 1001 159 l 960 351 l 787 155 l 750 302 l 601 104 l 562 218 l 479 75 q 427 118 453 117 q 323 68 389 118 q 202 1 247 11 q 167 -3 184 -3 q 77 46 103 -3 q 68 87 68 65 q 114 161 68 144 q 140 165 127 165 q 201 122 184 165 q 206 96 206 109 q 182 42 205 61 q 203 34 190 34 q 316 99 239 34 q 429 171 396 164 q 442 172 435 172 q 490 148 476 171 l 595 332 l 642 202 l 808 425 l 848 264 l 1028 472 l 1069 274 l 1264 498 l 1282 244 l 1512 457 l 1481 203 l 1702 345 l 1657 157 l 1847 278 l 1808 161 q 1850 172 1826 172 q 1965 107 1885 172 q 2077 35 2044 42 q 2090 34 2085 34 q 2112 42 2105 35 q 2087 96 2087 61 q 2124 159 2087 140 q 2154 165 2139 165 q 2220 118 2204 165 q 2226 87 2226 103 q 2167 4 2226 27 q 2127 -3 2148 -3 q 1983 58 2066 -3 q 1884 118 1912 110 q 1858 121 1870 121 q 1713 60 1788 119 z "},"ඏ":{"ha":1085,"x_min":41,"x_max":1024,"o":"m 848 71 q 880 103 854 98 q 914 71 909 96 q 888 38 914 45 q 880 37 884 37 q 848 71 853 43 m 941 103 q 882 140 921 138 q 868 138 872 140 q 895 247 895 186 q 815 401 894 354 q 852 469 852 430 q 830 526 850 500 q 812 576 812 552 q 840 598 814 597 q 956 484 916 598 q 983 317 983 411 q 948 118 983 195 q 941 103 945 109 m 770 590 q 777 563 770 578 q 715 574 749 574 q 566 477 590 574 q 560 434 560 457 q 563 393 560 408 q 655 403 616 403 q 834 321 802 403 q 841 281 841 302 q 697 134 841 178 q 540 113 625 113 q 271 187 349 113 q 232 274 232 224 q 350 393 232 369 q 422 400 384 400 q 492 395 444 400 q 498 442 498 418 q 387 571 498 552 q 345 575 366 575 q 289 568 316 575 q 294 590 294 576 q 231 637 286 635 q 77 517 130 637 q 41 317 41 433 q 91 76 41 172 q 183 1 129 3 q 247 42 229 1 q 252 71 252 57 l 252 76 q 540 0 346 0 q 814 77 716 1 l 814 71 q 854 7 814 24 q 882 1 868 1 q 1002 152 962 1 q 1024 317 1024 232 q 941 589 1024 500 q 834 637 894 637 q 770 590 773 633 m 151 71 q 184 103 157 98 q 217 71 212 96 q 184 37 210 42 q 152 62 159 37 q 151 71 151 66 m 176 244 q 201 137 176 182 q 183 140 189 140 q 123 103 142 138 q 83 302 87 165 q 83 317 83 311 q 145 555 83 475 q 225 598 182 597 q 254 578 252 595 q 229 536 252 562 l 231 537 q 208 483 208 513 q 259 434 216 439 q 319 477 307 435 q 384 522 336 521 q 454 473 438 522 q 458 445 458 460 q 458 437 458 442 q 457 430 457 433 q 408 433 420 433 q 194 328 245 433 q 176 244 176 290 m 602 445 q 669 530 602 511 q 707 536 688 536 q 799 487 780 536 q 803 465 803 476 q 781 418 802 439 q 667 434 736 434 q 604 430 637 434 q 602 445 602 437 z "},"ඐ":{"ha":1592,"x_min":41,"x_max":1531,"o":"m 848 71 q 880 103 854 98 q 914 71 909 96 q 888 38 914 45 q 880 37 884 37 q 848 71 853 43 m 941 103 q 882 140 921 138 q 868 138 872 140 q 895 247 895 186 q 815 401 894 354 q 852 469 852 430 q 830 526 850 500 q 812 576 812 552 q 840 598 814 597 q 956 484 916 598 q 983 317 983 411 q 948 118 983 195 q 941 103 945 109 m 770 590 q 777 563 770 578 q 715 574 749 574 q 566 477 590 574 q 560 434 560 457 q 563 393 560 408 q 655 403 616 403 q 834 321 802 403 q 841 281 841 302 q 697 134 841 178 q 540 113 625 113 q 271 187 349 113 q 232 274 232 224 q 350 393 232 369 q 422 400 384 400 q 492 395 444 400 q 498 442 498 418 q 387 571 498 552 q 345 575 366 575 q 289 568 316 575 q 294 590 294 576 q 231 637 286 635 q 77 517 130 637 q 41 317 41 433 q 91 76 41 172 q 183 1 129 3 q 247 42 229 1 q 252 71 252 57 l 252 76 q 540 0 346 0 q 814 77 716 1 l 814 71 q 854 7 814 24 q 882 1 868 1 q 1002 152 962 1 q 1024 317 1024 232 q 941 589 1024 500 q 834 637 894 637 q 770 590 773 633 m 151 71 q 184 103 157 98 q 217 71 212 96 q 184 37 210 42 q 152 62 159 37 q 151 71 151 66 m 176 244 q 201 137 176 182 q 183 140 189 140 q 123 103 142 138 q 83 302 87 165 q 83 317 83 311 q 145 555 83 475 q 225 598 182 597 q 254 578 252 595 q 229 536 252 562 l 231 537 q 208 483 208 513 q 259 434 216 439 q 319 477 307 435 q 384 522 336 521 q 454 473 438 522 q 458 445 458 460 q 458 437 458 442 q 457 430 457 433 q 408 433 420 433 q 194 328 245 433 q 176 244 176 290 m 602 445 q 669 530 602 511 q 707 536 688 536 q 799 487 780 536 q 803 465 803 476 q 781 418 802 439 q 667 434 736 434 q 604 430 637 434 q 602 445 602 437 m 1054 425 q 1119 298 1054 336 q 1187 281 1150 281 q 1299 339 1272 281 q 1308 381 1308 359 q 1259 454 1306 429 l 1259 464 q 1326 534 1261 533 q 1419 315 1417 529 q 1337 46 1419 69 q 1317 43 1328 43 q 1226 118 1246 43 q 1219 165 1219 141 q 1223 208 1219 186 l 1190 208 q 1184 159 1184 184 q 1259 14 1184 54 q 1332 -3 1291 -3 q 1514 153 1469 -3 q 1531 292 1531 216 q 1449 537 1531 467 q 1347 572 1405 572 q 1223 488 1240 572 q 1221 463 1221 476 q 1222 446 1221 452 q 1249 384 1249 416 q 1203 320 1249 331 q 1184 317 1194 317 q 1100 381 1122 317 q 1093 426 1093 403 q 1150 567 1095 518 l 1103 567 q 1054 425 1054 513 z "},"ඍ":{"ha":1184,"x_min":41,"x_max":1124,"o":"m 817 330 l 817 320 l 850 320 l 850 326 q 920 465 850 445 q 944 469 930 469 q 1028 294 1028 467 q 905 271 955 294 q 817 141 818 233 q 873 20 817 62 q 943 -1 905 -1 q 1016 19 966 -1 q 1031 23 1025 23 q 1051 4 1044 20 l 1103 4 q 1101 30 1101 14 q 1109 110 1101 45 q 1124 269 1124 222 q 1043 496 1124 437 q 964 521 1008 521 q 829 414 861 521 q 817 330 817 374 m 857 141 q 936 245 859 221 q 1028 258 972 258 l 1028 245 q 1028 212 1028 235 q 1027 153 1027 175 q 1032 53 1027 75 q 1020 56 1025 57 q 1000 49 1016 56 q 945 37 964 37 q 865 95 890 37 q 857 141 857 118 m 41 203 q 114 43 41 104 q 243 -1 170 -1 q 415 109 369 0 q 583 0 458 1 q 779 103 723 0 q 806 220 806 153 q 738 370 806 313 q 703 393 722 385 q 739 454 734 414 q 741 464 741 460 q 648 568 741 548 q 604 572 627 572 q 461 483 503 572 q 441 385 441 439 l 441 372 q 572 384 506 384 q 738 300 701 384 q 749 243 749 274 q 673 129 749 164 q 590 113 635 113 q 442 175 473 113 q 434 213 434 193 l 434 250 l 399 250 l 399 213 q 324 123 399 149 q 258 113 293 113 q 118 178 163 113 q 99 241 99 208 q 198 370 99 336 q 278 384 236 384 q 388 373 320 384 l 388 392 q 305 553 388 510 q 221 572 269 572 q 95 519 130 572 q 83 476 83 499 q 121 429 83 435 q 130 427 126 427 q 183 469 168 429 q 232 519 199 511 q 258 522 244 522 q 332 472 305 522 q 347 415 347 445 l 347 411 q 275 419 320 419 q 80 331 145 419 q 41 203 41 275 m 480 411 q 595 518 492 517 q 685 476 667 518 q 688 457 688 467 q 667 406 686 426 q 563 419 625 419 q 480 411 510 419 z "},"ඎ":{"ha":1510,"x_min":41,"x_max":1453,"o":"m 817 330 l 817 320 l 850 320 l 850 326 q 920 465 850 445 q 944 469 930 469 q 1028 294 1028 467 q 905 271 955 294 q 817 141 818 233 q 873 20 817 62 q 943 -1 905 -1 q 1016 19 966 -1 q 1031 23 1025 23 q 1051 4 1044 20 l 1103 4 q 1101 30 1101 14 q 1109 110 1101 45 q 1124 269 1124 222 q 1043 496 1124 437 q 964 521 1008 521 q 829 414 861 521 q 817 330 817 374 m 857 141 q 936 245 859 221 q 1028 258 972 258 l 1028 245 q 1028 212 1028 235 q 1027 153 1027 175 q 1032 53 1027 75 q 1020 56 1025 57 q 1000 49 1016 56 q 945 37 964 37 q 865 95 890 37 q 857 141 857 118 m 1145 330 l 1145 320 l 1179 320 l 1179 326 q 1248 465 1179 445 q 1272 469 1259 469 q 1356 294 1356 467 q 1233 271 1283 294 q 1145 141 1146 233 q 1202 20 1145 62 q 1271 -1 1233 -1 q 1344 19 1294 -1 q 1359 23 1354 23 q 1379 4 1373 20 l 1431 4 q 1430 30 1430 14 q 1438 110 1430 45 q 1453 269 1453 222 q 1371 496 1453 437 q 1293 521 1336 521 q 1157 414 1190 521 q 1145 330 1145 374 m 1185 141 q 1264 245 1187 221 q 1356 258 1301 258 l 1356 245 q 1356 212 1356 235 q 1355 153 1355 175 q 1360 53 1355 75 q 1348 56 1354 57 q 1328 49 1344 56 q 1274 37 1293 37 q 1194 95 1218 37 q 1185 141 1185 118 m 41 203 q 114 43 41 104 q 243 -1 170 -1 q 415 109 369 0 q 583 0 458 1 q 779 103 723 0 q 806 220 806 153 q 738 370 806 313 q 703 393 722 385 q 739 454 734 414 q 741 464 741 460 q 648 568 741 548 q 604 572 627 572 q 461 483 503 572 q 441 385 441 439 l 441 372 q 572 384 506 384 q 738 300 701 384 q 749 243 749 274 q 673 129 749 164 q 590 113 635 113 q 442 175 473 113 q 434 213 434 193 l 434 250 l 399 250 l 399 213 q 324 123 399 149 q 258 113 293 113 q 118 178 163 113 q 99 241 99 208 q 198 370 99 336 q 278 384 236 384 q 388 373 320 384 l 388 392 q 305 553 388 510 q 221 572 269 572 q 95 519 130 572 q 83 476 83 499 q 121 429 83 435 q 130 427 126 427 q 183 469 168 429 q 232 519 199 511 q 258 522 244 522 q 332 472 305 522 q 347 415 347 445 l 347 411 q 275 419 320 419 q 80 331 145 419 q 41 203 41 275 m 480 411 q 595 518 492 517 q 685 476 667 518 q 688 457 688 467 q 667 406 686 426 q 563 419 625 419 q 480 411 510 419 z "},"/":{"ha":564,"x_min":0,"x_max":551,"o":"m 88 -210 l 551 963 l 463 963 l 0 -210 l 88 -210 z "}," ":{"ha":264,"x_min":0,"x_max":0,"o":""},"£":{"ha":777,"x_min":65,"x_max":745,"o":"m 745 212 l 716 212 q 537 113 684 113 q 307 149 449 113 q 321 274 321 206 q 315 406 321 332 l 524 406 l 524 445 l 311 445 q 301 594 301 536 q 434 791 308 787 q 532 727 510 791 q 541 686 536 713 q 576 609 553 625 q 620 598 594 598 q 689 647 674 598 q 693 673 693 659 q 583 802 693 758 q 442 827 521 827 q 191 713 266 827 q 153 576 153 654 q 175 445 153 521 l 81 445 l 81 406 l 186 406 q 239 227 232 262 q 247 164 245 193 q 171 176 193 176 q 69 113 90 176 q 65 84 65 99 q 114 9 65 31 q 156 0 133 0 q 285 92 239 0 q 288 96 288 95 q 334 68 302 87 q 507 -14 444 -3 q 549 -18 529 -18 q 727 102 684 -18 q 745 212 745 149 m 155 38 q 110 72 118 38 q 109 83 109 77 q 145 134 109 122 q 168 138 157 138 q 244 119 205 138 q 180 42 232 60 q 155 38 167 38 z "},"∑":{"ha":635,"x_min":7,"x_max":628,"o":"m 625 -176 l 625 80 l 595 80 l 572 -1 q 495 -69 557 -57 q 431 -73 469 -73 l 95 -73 l 460 368 l 163 779 l 408 779 q 529 734 495 779 q 566 652 549 707 l 585 587 l 612 587 l 628 814 l 7 814 l 7 783 l 350 309 l 7 -109 l 7 -176 l 625 -176 z "},"t":{"ha":450,"x_min":26,"x_max":444,"o":"m 26 543 l 121 543 l 121 168 q 285 -15 130 -9 q 444 138 412 -15 q 444 141 444 140 l 407 148 q 309 26 378 27 q 236 130 237 28 l 236 543 l 441 543 l 441 576 l 236 576 l 236 734 l 121 705 l 121 576 l 26 576 l 26 543 z "},"ť":{"ha":450,"x_min":26,"x_max":444,"o":"m 26 543 l 121 543 l 121 168 q 285 -15 130 -9 q 444 138 412 -15 q 444 141 444 140 l 407 148 q 309 26 378 27 q 236 130 237 28 l 236 543 l 441 543 l 441 576 l 236 576 l 236 734 l 121 705 l 121 576 l 26 576 l 26 543 m 442 812 q 384 910 442 891 q 355 914 370 914 q 286 869 307 914 q 279 836 279 853 q 334 765 279 783 q 345 762 339 764 q 378 735 377 751 q 317 632 378 697 q 315 629 316 631 l 346 608 q 442 799 434 697 q 442 812 442 806 z "},"þ":{"ha":757,"x_min":38,"x_max":705,"o":"m 254 -222 l 254 56 q 425 -14 323 -11 q 629 80 548 -14 q 705 304 705 168 q 617 540 705 460 q 475 593 557 593 q 286 499 353 593 q 252 434 264 469 l 252 882 l 38 882 l 38 846 l 138 846 l 138 -152 q 91 -218 138 -208 q 41 -222 72 -222 l 41 -258 l 378 -258 q 361 -224 378 -227 q 346 -222 354 -222 l 254 -222 m 426 536 q 568 388 538 536 q 576 289 576 343 q 475 35 576 87 q 411 20 445 20 q 273 127 312 20 q 252 263 252 184 q 340 507 252 439 q 426 536 380 536 z "},"¾":{"ha":1012,"x_min":54,"x_max":947,"o":"m 408 810 l 408 829 l 69 829 l 66 680 l 87 680 l 103 719 q 148 749 114 746 q 170 749 156 749 l 307 749 l 161 601 l 182 585 q 237 597 210 597 q 317 495 316 594 q 214 361 315 362 q 165 404 174 361 q 164 425 165 411 q 136 486 157 475 q 107 491 123 491 q 56 450 62 491 q 54 441 54 446 q 141 346 54 370 q 213 336 175 336 q 382 397 319 336 q 426 499 426 441 q 349 608 426 576 q 269 623 312 623 q 214 617 239 623 l 408 810 m 256 -41 l 846 827 l 804 856 l 213 -14 l 256 -41 m 947 -61 q 932 -34 947 -37 q 920 -33 926 -33 l 856 -33 l 856 66 l 947 66 l 947 99 l 856 99 l 856 270 l 834 270 l 825 243 q 777 198 808 203 q 762 197 770 197 l 754 197 l 754 99 l 557 100 q 747 251 720 228 q 859 410 857 351 q 806 460 853 457 q 750 419 770 460 q 734 385 745 410 q 600 180 681 264 q 511 100 560 140 l 518 68 l 754 66 l 754 -33 l 652 -33 l 652 -61 l 947 -61 z "},"³":{"ha":496,"x_min":54,"x_max":426,"o":"m 408 861 l 408 880 l 69 880 l 66 731 l 87 731 l 103 770 q 148 800 114 798 q 170 800 156 800 l 307 800 l 161 652 l 182 636 q 237 648 210 648 q 317 547 316 646 q 214 412 315 414 q 165 456 174 412 q 164 476 165 463 q 136 537 157 526 q 107 543 123 543 q 56 502 62 543 q 54 492 54 498 q 141 397 54 422 q 213 388 175 388 q 382 449 319 388 q 426 551 426 492 q 349 659 426 628 q 269 674 312 674 q 214 669 239 674 l 408 861 z "},"˜":{"ha":678,"x_min":149,"x_max":549,"o":"m 271 864 q 372 819 312 864 q 448 783 420 783 q 519 854 499 783 q 521 860 521 857 l 549 853 q 426 703 521 704 q 327 746 385 703 q 250 783 278 783 q 179 718 199 783 q 176 707 178 712 l 149 712 q 271 864 178 863 z "},"™":{"ha":776,"x_min":30,"x_max":746,"o":"m 262 492 q 244 511 259 510 l 213 511 l 213 795 l 220 795 q 271 762 258 795 q 277 747 273 760 l 294 700 l 315 700 l 312 814 l 33 814 l 30 700 l 50 700 l 66 747 q 96 789 80 783 q 123 795 109 795 l 132 795 l 132 511 l 81 511 l 81 492 l 262 492 m 532 487 l 635 754 l 635 511 l 597 511 l 597 492 l 746 492 q 728 511 743 510 l 712 511 l 712 795 l 746 795 l 746 814 l 632 814 l 547 590 l 434 814 l 342 814 l 342 795 l 376 795 l 376 511 l 342 511 l 342 492 l 444 492 q 426 511 441 510 l 401 511 l 401 705 l 517 487 l 532 487 z "},"²":{"ha":468,"x_min":41,"x_max":393,"o":"m 106 525 q 190 589 110 551 q 331 669 298 642 q 384 766 384 712 q 283 880 384 852 q 212 890 250 890 q 62 836 109 890 q 41 780 41 811 q 92 731 43 732 q 146 773 140 731 q 148 798 148 781 q 171 856 151 845 q 203 863 184 863 q 271 804 262 863 q 273 773 273 789 q 194 637 273 694 q 155 610 182 628 q 60 526 81 563 q 42 458 42 495 l 42 444 l 392 444 l 393 593 l 376 593 l 362 556 q 320 526 350 529 q 289 525 309 525 l 106 525 z "},"u":{"ha":768,"x_min":26,"x_max":732,"o":"m 700 34 l 636 34 l 636 578 l 418 578 l 418 544 l 519 544 l 519 241 q 435 69 518 122 q 365 47 401 47 q 244 161 259 47 q 241 197 241 179 l 241 578 l 26 578 l 26 544 l 125 544 l 125 217 q 319 -14 126 -12 q 487 71 422 -14 q 522 133 509 99 l 532 0 l 732 0 q 715 33 732 28 q 700 34 708 34 z "},"ú":{"ha":768,"x_min":26,"x_max":732,"o":"m 700 34 l 636 34 l 636 578 l 418 578 l 418 544 l 519 544 l 519 241 q 435 69 518 122 q 365 47 401 47 q 244 161 259 47 q 241 197 241 179 l 241 578 l 26 578 l 26 544 l 125 544 l 125 217 q 319 -14 126 -12 q 487 71 422 -14 q 522 133 509 99 l 532 0 l 732 0 q 715 33 732 28 q 700 34 708 34 m 510 783 q 530 825 529 800 q 495 882 530 860 q 465 890 479 890 q 425 872 444 888 q 359 781 412 861 q 278 680 316 719 l 300 655 q 450 743 334 680 q 510 783 494 768 z "},"û":{"ha":768,"x_min":26,"x_max":732,"o":"m 700 34 l 636 34 l 636 578 l 418 578 l 418 544 l 519 544 l 519 241 q 435 69 518 122 q 365 47 401 47 q 244 161 259 47 q 241 197 241 179 l 241 578 l 26 578 l 26 544 l 125 544 l 125 217 q 319 -14 126 -12 q 487 71 422 -14 q 522 133 509 99 l 532 0 l 732 0 q 715 33 732 28 q 700 34 708 34 m 551 677 l 567 700 q 467 819 549 719 q 384 875 415 871 q 308 826 349 875 q 281 791 300 815 q 203 699 235 734 l 220 678 q 387 770 289 722 q 551 677 488 719 z "}}}
